<?xml version="1.0" standalone="no"?><!DOCTYPE svg PUBLIC "-//W3C//DTD SVG 1.1//EN" "http://www.w3.org/Graphics/SVG/1.1/DTD/svg11.dtd"><svg t="1735196745912" class="icon" viewBox="0 0 1024 1024" version="1.1" xmlns="http://www.w3.org/2000/svg" p-id="4271" xmlns:xlink="http://www.w3.org/1999/xlink" width="200" height="200"><path d="M792.971603 523.746629c0 4.903777 7.199418 10.877251 6.995094 15.71292-0.216343 4.883745-5.468673 10.432545-5.88934 15.272221-0.412654 4.863714-18.429228 8.409337-19.038193 13.208948-0.600953 4.839675 0.20833 10.100018-0.600953 14.871586-0.821303 4.803618-24.122256 5.03198-25.123845 9.767491-1.025627 4.759548-16.55826 4.99993-17.780199 9.691369-1.24197 4.715478 29.715126 17.840294 28.292871 22.463626-1.418249 4.655383-12.115214 6.093664-13.749806 10.656902-1.618567 4.591281-20.949224 1.674656-22.772115 6.173791-1.802859 4.523173 37.872063 26.530075 35.868886 30.965108-2.007183 4.423015-21.293771 0.957519-23.48124 5.284381-2.207501 4.342888-23.076598-1.830904-25.44836 2.419838-2.379774 4.250741-6.390134 6.346064-8.930162 10.476615-2.568073 4.122538 19.126333 23.425151 16.422044 27.44753-2.732333 4.026386 16.317879 24.378663 13.437311 28.284858-2.904607 3.92222-11.95496 4.539199-15.011808 8.301165-3.068867 3.777992-33.67741-15.352348-36.890506-11.710572-3.225115 3.649788 18.661596 30.68867 15.300265 34.198236-3.365337 3.50556-18.841882-4.218691-22.347442-0.857359-3.509566 3.365337-28.473157-17.227321-32.134964-14.01022-3.645782 3.209089 4.18664 18.905984 0.404642 21.950813-3.761966 3.068867 14.775433 35.660555 10.857219 38.553143-3.906195 2.908613-30.548448-25.640664-34.574834-22.932369-4.022379 2.728327 5.656972 26.858596 1.518409 29.414649-4.118532 2.548041-23.192782-20.220068-27.439518-17.8443-4.238722 2.371761-10.93334-1.398217-15.272221 0.797265-4.326862 2.187469 14.462937 53.384665 10.043929 55.391848-4.423015 2.003177-18.938035-17.135175-23.453195-15.324304-4.499135 1.810872-14.879598-11.602401-19.45886-9.979827-4.583269 1.614561-7.984663 6.261931-12.644053 7.676174-4.631345 1.418249-8.741864 4.591281-13.445324 5.805207-4.69144 1.221938-5.03198 22.75609-9.783516 23.789729-4.747529 1.017614-16.446082-33.637347-21.269732-32.804025-4.763555 0.81329-4.330868 37.643701-9.170544 38.260679-4.791599 0.604959-14.150442-42.150849-19.026174-41.750214-4.82365 0.416661-7.463837 30.556461-12.351589 30.764791-4.835669 0.216343-9.999859 4.250741-14.883605 4.250742s-9.094423-26.958755-13.930092-27.15106c-4.879739-0.204324-12.952542 45.744548-17.780198 45.339906-4.863714-0.416661-4.3509-53.380658-9.154519-54.001643-4.839675-0.596947-12.648059 21.902736-17.435651 21.105472-4.807625-0.821303-13.06472 14.206531-17.796224 13.188917-4.759548-1.029633-9.398906-5.568832-14.090347-6.762726-4.719485-1.233957-6.762725-13.269044-11.398076-14.687293-4.655383-1.418249-12.704148 6.322026-17.279404 4.711472-4.591281-1.610554 5.881327-42.178893 1.382192-43.989765-4.515161-1.814878-7.928574-3.088899-12.355595-5.092075-4.423015-2.01119-16.94287 14.671268-21.281752 12.475786s-7.123297-6.506319-11.362019-8.878081c-4.254748-2.375768-28.477163 28.461138-32.62374 25.925116-4.130551-2.556054 1.602542-21.846647-2.419837-24.574974-4.026386-2.728327-21.710431 12.327551-25.624639 9.430957-3.910201-2.896594 26.526069-50.407944 22.760096-53.468799-3.773985-3.060854-20.821021 10.500653-24.466803 7.287558s-21.582228 8.657731-25.091794 5.2964c-3.50556-3.377356-0.641017-13.902048-4.006354-17.407608s-15.360361 0.112178-18.577463-3.529597c-3.225115-3.645782 7.692199-19.779369 4.623333-23.557361-3.052842-3.765973 2.47192-13.962143-0.416661-17.876351-2.904607-3.902189-16.454095-0.084133-19.182422-4.106512-2.724321-4.022379 15.504589-21.137523 12.936516-25.292112-2.552047-4.126544-49.109885 17.383569-51.485653 13.136834-2.367755-4.246735 19.847477-22.331416 17.656002-26.674304-2.191476-4.330868 19.85549-19.739305 17.848306-24.166326-2.003177-4.423015-50.015321 10.789111-51.834206 6.27395-1.806866-4.499135-9.210607-8.192994-10.833181-12.780268-1.602542-4.57125 41.62201-24.266485 40.183729-28.925875-1.418249-4.635351-30.648607-1.350141-31.878557-6.081645-1.217932-4.687434-1.249982-10.220209-2.26359-14.967738-1.017614-4.751536 13.000618-12.567932 12.191335-17.359531-0.81329-4.775574-10.761066-8.265108-11.370033-13.104784-0.596947-4.803618-13.269044-8.862055-13.685704-13.725768-0.408648-4.82365 10.777092-10.913308 10.588793-15.78904-0.204324-4.827656-9.106442-9.939764-9.106442-14.827516 0-4.891758-13.473368-10.941352-13.273051-15.777021 0.20833-4.883745-3.325274-11.269873-2.920632-16.089517 0.416661-4.875733 13.513431-9.495059 14.118391-14.298677 0.600953-4.839675 5.256336-9.847618 6.073633-14.623191 0.817296-4.795606 33.885741-3.393382 34.899348-8.116873 1.02162-4.767561-12.968567-12.692129-11.758649-17.387576 1.225944-4.723491 6.025556-8.281133 7.42778-12.928504 1.422256-4.65939 3.906195-8.725839 5.508737-13.297088 1.622573-4.591281-27.211155-21.153548-25.40429-25.652684 1.818885-4.515161 0.961525-11.514261 2.960696-15.941281 2.007183-4.423015 29.634999 2.624162 31.830481-1.706707 2.199488-4.342888-22.131099-23.665532-19.775362-27.900248 2.379774-4.258754 52.667527 19.418797 55.215568 15.276227 2.556054-4.126544-0.108172-10.66892 2.608136-14.695306 2.732333-4.026386-10.336393-18.889958-7.439799-22.78814 2.896594-3.918214-14.030251-23.994053-10.977409-27.776052 3.068867-3.777992 42.002614 22.435581 45.215709 18.781787 3.213096-3.653795-25.40429-36.762303-22.038952-40.267862 3.361331-3.50556 19.25053 4.495129 22.756089 1.133798 3.50556-3.37335 12.103195-1.498376 15.769009-4.719485 3.641776-3.213096 29.306478 20.740894 33.100495 17.672027 3.773985-3.052842-28.152648-51.942377-24.250459-54.838971 3.902189-2.904607 20.752913 11.450159 24.779298 8.737857 4.022379-2.724321 4.258754-11.850795 8.413343-14.406848 4.118532-2.556054 12.652065 1.802859 16.906813-0.584928 4.234716-2.371761 3.589693-14.639217 7.932581-16.846717 4.330868-2.187469 25.636658 31.674233 30.083711 29.66705 4.423015-2.003177-6.277956-38.669327-1.762796-40.480199 4.499135-1.810872 4.639358-17.555842 9.230639-19.170403 4.583269-1.614561 10.620844-2.347723 15.280234-3.769979 4.631345-1.418249 8.717826-9.370862 13.433304-10.596806 4.695447-1.229951 24.026104 59.257979 28.797671 58.232353 4.73551-1.02162 1.181874-42.89603 5.981487-43.717333 4.763555-0.81329 14.434893 33.12854 19.274568 32.503548 4.803618-0.596947 5.408578-39.246242 10.264278-39.646877 4.82365-0.416661 10.100018-4.3509 14.971745-4.563237 4.835669-0.20833 10.432545 23.669538 15.308278 23.669538s10.737028-30.075698 15.572697-29.87538c4.891758 0.216343 7.423774 39.979405 12.247424 40.38004 4.863714 0.416661 15.272221-48.436818 20.087858-47.827852 4.839675 0.600953-0.140222 67.386871 4.631345 68.192148 4.807625 0.817296 20.015744-53.613027 24.75526-52.595413 4.759548 1.02162 4.419008 25.732811 9.09843 26.958755 4.719485 1.225944 2.223526 25.86502 6.858877 27.28327 4.655383 1.426262 11.450159-6.478274 16.037435-4.863714 4.591281 1.622573 15.272221-13.685705 19.779369-11.874832 4.519167 1.818885 9.390893 3.116943 13.805895 5.12012 4.423015 2.007183 9.959796 2.139393 14.290664 4.334875 4.342888 2.199488 10.400495 1.802859 14.619185 4.186639 4.254748 2.375768 11.105613 1.217932 15.256195 3.75796 4.126544 2.564066 3.361331 13.365196 7.383711 16.09753 4.026386 2.732333 5.07605 9.755472 8.958207 12.632034 3.92222 2.908613 12.519856-0.116184 16.297847 2.928644 3.773985 3.056848-5.881327 21.774533-2.239552 24.983623 3.649788 3.217102 31.838494-20.059814 35.352066-16.69047 3.50556 3.365337 8.609654 6.474268 11.970986 9.979827 3.365337 3.509566-5.492711 19.114314-2.267597 22.764102 3.209089 3.641776-9.08641 20.147953-6.017543 23.941971 3.052842 3.777992-9.266696 18.216891-6.382122 22.119079 2.904607 3.906195 8.998271 3.990328 11.738617 8.020721 2.728327 4.018373 41.605984-15.620774 44.154026-11.48221 2.548041 4.126544-5.97748 15.248183-3.589693 19.486905 2.371761 4.238722 29.719133-3.994335 31.914614 0.348552 2.187469 4.330868-13.212955 18.084681-11.201765 22.511703 1.999171 4.423015-14.915655 16.962902-13.100777 21.478062 1.810872 4.499135 13.829933 4.983904 15.444494 9.587205 1.602542 4.57125 23.949983 2.904607 25.368232 7.563996 1.418249 4.635351-25.043718 17.559849-23.813767 22.275327 1.221938 4.687434 32.487523 2.716308 33.51315 7.47185 1.02162 4.743523-26.72238 15.484558-25.905084 20.288176 0.805277 4.763555-14.438899 11.434134-13.829933 16.277816 0.596947 4.803618 43.869574 5.192235 44.286235 10.051941 0.416661 4.82365-17.868338 11.430127-17.664014 16.297848 0.244388 4.847688 15.440488 9.891688 15.440487 14.771426z" fill="#FFE6FA" p-id="4272"></path><path d="M968.610155 659.96266c0 4.907783-19.81142 9.571179-20.135934 14.366784-0.328521 4.887752-8.441388 8.457413-9.09843 13.257025-0.661048 4.835669 27.864191 14.939693 26.890647 19.67921-0.989569 4.759548-26.518056 4.050424-27.816114 8.705807-1.310078 4.69144-14.60316 4.707466-16.221727 9.266696-1.622573 4.591281 13.245006 14.951712 11.30593 19.406778s9.43897 15.777021 7.223456 20.087858c-2.243558 4.314843-30.696683-6.189817-33.224692-2.055259-2.528009 4.14257 5.496717 14.454925 2.700283 18.425221-2.804448 3.96629 2.04324 13.898041-1.025627 17.656002s-12.764243 1.96712-16.077498 5.512742c-3.313255 3.549629 6.4943 20.953231 2.928645 24.286517-3.545623 3.309248-16.293841-2.784416-20.071833 0.26442-3.75796 3.060854-11.029492 1.722732-14.991776 4.523173-3.942252 2.796435 2.107342 21.950813-2.039234 24.478822-4.138564 2.524003-15.636799-6.398147-19.947636-4.138564-4.294811 2.235545-4.386957 15.083922-8.838016 17.018992-4.435034 1.919043-16.930851-15.324303-21.502101-13.693718-4.57125 1.606548-6.037575 13.27305-10.741035 14.599153-4.639358 1.298059-8.429368 9.170544-13.212955 10.160114-4.727498 0.97755-12.20736-11.217791-17.043029-10.556743-4.767561 0.649029-10.600812-13.565514-15.464526-13.236993-4.807625 0.312496-8.66975 20.131928-13.573527 20.131928-4.895764 0-9.43897-9.475027-14.266626-9.787522-4.875733-0.324515-12.603989 22.643912-17.383569 21.994883-4.835669-0.657042-7.672168-17.431646-12.41569-18.40519-4.759548-0.985563-12.267455 6.983075-16.934858 5.68101-4.69144-1.306071-11.646471 1.181874-16.213714-0.420667-4.591281-1.62658-5.052012-15.736958-9.479033-17.656002-4.463078-1.935069-5.5488-11.029492-9.839605-13.27305-4.314843-2.243558-11.646471 0.917455-15.777021-1.594529-4.146576-2.528009 1.979139-19.947636-1.963114-22.764102-3.962284-2.792429-19.150371 9.767491-22.928363 6.714649-3.75796-3.084892 8.004695-23.180763 4.459072-26.494018-3.553636-3.313255-18.773774 6.005524-22.087029 2.455895-3.309248-3.561649-8.096841-5.785175-11.161701-9.563167-3.064861-3.75796-18.781787 1.346135-21.598254-2.60413-2.796435-3.954271 0.929474-13.240999-1.586516-17.375556-2.524003-4.134557 8.709813-16.085511 6.462249-20.396348-2.243558-4.282792-18.889958-1.766802-20.825027-6.249912-1.919043-4.431027 9.158525-14.158454 7.527938-18.745729-1.610554-4.57125 12.103195-13.076739 10.785105-17.764173-1.294052-4.639358-4.194652-7.547971-5.184222-12.307519-0.97755-4.743523-3.589693-7.964631-4.254748-12.8003-0.649029-4.77958 3.112937-8.765902 2.784416-13.629616-0.324515-4.811631-40.279881-8.257095-40.279881-13.136834 0-4.891758 35.139729-8.653724 35.472257-13.461349 0.328521-4.875733-26.353795-12.2955-25.704766-17.095112 0.661048-4.827656 0.661048-10.584787 1.638598-15.296259 0.989569-4.771567 16.385987-6.374109 17.688052-11.029492 1.306071-4.69144-17.611931-16.389994-15.993364-20.949224 1.630586-4.591281 40.732599 5.697035 42.659655 1.253989 1.927056-4.463078-15.007801-17.115144-12.772256-21.429987 2.251571-4.302824-8.785934-16.706495-6.257924-20.829034 2.528009-4.150583 23.445183 3.405401 26.237611-0.572908 2.800441-3.958278-6.145747-16.978928-3.088899-20.740894 3.080886-3.75796 20.869097 5.404571 24.182352 1.858948 3.313255-3.549629-14.775433-28.961932-11.22981-32.283199 3.545623-3.313255 27.479581 16.233746 31.253566 13.164879 3.75796-3.072873 5.677003-7.55999 9.635281-10.352418 3.954271-2.800441 3.104924-12.471779 7.259513-14.999789 4.134557-2.519997 15.929263 9.543135 20.248113 7.291564 4.282792-2.231539-1.161843-24.262479 3.28521-26.205561 4.43904-1.919043 11.101606 0.925468 15.672856-0.705118 4.567243-1.606548 6.902948-11.678521 11.598394-12.988599 4.64737-1.290046 10.905295 1.418249 15.672856 0.424673 4.731504-0.97755 12.267455 15.232157 17.107131 14.575116 4.775574-0.649029 7.023138-28.461138 11.902878-28.789659 4.807625-0.324515 10.769079 23.040541 15.65683 23.040541s10.745041-21.702419 15.552666-21.377904c4.875733 0.328521 9.266696 11.494229 14.046276 12.139252 4.835669 0.649029 12.788281-12.451748 17.519786-11.474197 4.771567 0.985563 0.204324 40.087576 4.851694 41.389641 4.699453 1.314084 20.949224-34.154166 25.496436-32.535599 4.591281 1.630586-0.056089 27.575733 4.386957 29.506796 4.463078 1.927056 11.390064-2.003177 15.672856 0.228362 4.318849 2.243558 5.68101 9.162531 9.815567 11.686534 4.150583 2.528009 0.360572 15.516608 4.31885 18.31705 3.958278 2.788422 6.594458 5.140152 10.356424 8.213025 3.75796 3.068867 18.809831-7.90053 22.359461-4.591282a211.787882 211.787882 0 0 1 10.248253 10.184152c3.313255 3.561649 16.598324-1.133798 19.651166 2.612143 3.064861 3.761966 4.094494 9.931751 6.906954 13.898041 2.796435 3.954271 15.32831 2.684257 17.860325 6.83484 2.532016 4.134557-2.231539 13.605578 0.020032 17.932439 2.239552 4.278786-11.073562 16.181663-9.114455 20.628716 1.919043 4.43904-8.485457 12.84437-6.858878 17.443665 1.614561 4.559231 36.582017-1.550459 37.892095 3.153 1.298059 4.639358-8.365267 12.748218-7.375698 17.519785 0.969538 4.731504 13.052701 8.309178 13.713749 13.144847 0.649029 4.77958-7.155348 11.27388-6.830833 16.153619 0.356565 4.82365 9.523103 10.200177 9.523103 15.087929z" fill="#ECFF9E" opacity=".65" p-id="4273"></path><path d="M853.952315 325.432115c0 4.851694 22.103054 9.931751 21.750495 14.691299-0.356565 4.831663-16.94287 7.491882-17.631963 12.231399-0.729156 4.775574 29.562885 15.620774 28.485175 20.284169-1.077709 4.715478-39.001855-0.42868-40.432122 4.138564-1.418249 4.61532 18.445253 16.069485 16.682457 20.532563-1.762796 4.491123-21.64633 0.544864-23.737646 4.86772-2.091317 4.342888-2.616149 8.209019-5.023968 12.363608-2.419838 4.174621 8.605648 16.197689 5.913378 20.167985-2.720314 3.978309 4.338881 15.865161 1.338122 19.623121-3.004765 3.75796-3.489534 11.265867-6.762725 14.779439-3.269185 3.525591-7.756301 7.784345-11.269873 11.057537-3.525591 3.273191-7.992676 7.568002-11.762655 10.568761-3.75796 3.000759-28.961932-22.952401-32.960273-20.248112-3.954271 2.720314-3.830074 9.959796-8.000689 12.38364-4.154589 2.403812-9.879669-0.324515-14.226562 1.758789-4.318849 2.08731-4.322856 11.870826-8.813979 13.633622-4.451059 1.750777-1.177868 26.894653-5.781168 28.300884-4.591281 1.418249-12.103195-4.014367-16.798642-2.924639-4.667402 1.061684-14.422874-26.365815-19.202454-25.648677-4.731504 0.705118-6.542376 22.780128-11.374038 23.124674-4.759548 0.348553-9.811561-10.54873-14.663255-10.548729s-8.341229-10.256266-13.104783-10.600813c-4.835669-0.360572-12.38364 26.594177-17.111138 25.885053-4.787593-0.717137-7.984663-11.638458-12.652065-12.708155-4.715478-1.073703-13.845959 12.343576-18.429228 10.93334-4.611313-1.418249-2.419838-23.284928-6.870896-25.023686-4.491123-1.766802-10.476615 0.697106-14.795465-1.402224-4.342888-2.08731-9.370862-2.740346-13.529457-5.144158-4.170614-2.415831-1.274021-15.164049-5.248324-17.88837-3.978309-2.716308-6.971056-5.204254-10.741034-8.201006-3.75796-3.004765-11.95496 0.140222-15.480551-3.132969-3.53761-3.261172 3.557642-15.92125 0.268425-19.446842-3.257166-3.525591-34.610891 17.11915-37.615656 13.36119-2.992746-3.75796-1.915037-11.99903-4.611313-15.973332-2.708295-3.962284 4.206672-14.607166 1.79084-18.781787-2.411825-4.154589 6.558401-13.92208 4.455066-18.264967-2.08731-4.318849-9.286728-5.737099-11.069556-10.232228-1.754783-4.459072 3.429439-10.66892 2.01119-15.276227-1.414243-4.587275-20.720862-4.174621-21.786552-8.894105-1.06569-4.667402-11.458172-8.453407-12.17531-13.253019-0.709125-4.731504 12.603989-11.730604 12.259443-16.566273-0.348553-4.759548 3.225115-9.723421 3.225115-14.579122 0-4.851694 0.85736-9.475027 1.209919-14.242587 0.360572-4.831663 5.376527-8.765902 6.089657-13.489394 0.72515-4.77958-17.928433-13.417279-16.866749-18.080675 1.085722-4.715478 4.362919-9.767491 5.769149-14.334734 1.418249-4.61532 27.347371-0.496788 29.106161-4.955859 1.758789-4.491123-16.738546-17.519785-14.639217-21.834629 2.08731-4.346894 20.043788-0.156248 22.451607-4.30683 2.415831-4.174621 4.26276-7.788352 6.971056-11.766661 2.724321-3.974303-13.781857-22.355454-10.781099-26.109408 3.004765-3.761966 30.536429 13.78987 33.805614 10.268285 3.261172-3.525591 5.865302-5.817226 9.390893-9.094423 3.529598-3.273191 1.141811-11.770668 4.91179-14.775433 3.75796-3.000759-6.630516-25.376245-2.664225-28.100566 3.96629-2.708295 9.931751-4.05443 14.106372-6.466255 4.154589-2.403812 8.261102-6.987081 12.603989-9.086411 4.322856-2.08731 8.489464-7.483869 12.980586-9.250671 4.455065-1.754783 18.457272 22.980446 23.080605 21.570209 4.591281-1.418249 4.639358-19.150371 9.354836-20.224074 4.663396-1.069696 10.664914 3.369344 15.4485 2.6482 4.727498-0.709125 8.934169-9.767491 13.773845-10.12005 4.759548-0.348553 10.264279 20.428398 15.10796 20.428399s9.106442-4.062443 13.874003-3.709884c4.835669 0.356565 7.676174 10.152101 12.419697 10.857219 4.771567 0.713131 8.609654-0.180286 13.277057 0.877391 4.715478 1.085722 12.031081-10.228221 16.610343-8.817985 4.603301 1.418249 8.205013 4.943841 12.652065 6.70263 4.495129 1.754783 9.931751 0.765214 14.26262 2.864543 4.346894 2.08731 2.295641 15.027833 6.43821 17.431646 4.178627 2.419838 21.101466-15.656831 25.067756-12.940523 3.962284 2.720314 4.587275 10.921321 8.32921 13.918073 3.75796 3.004765 2.640187 11.738617 6.165778 15.011808 3.53761 3.265178 0.2524 12.559919 3.533604 16.085511 3.257166 3.525591 14.186499-0.180286 17.191265 3.589693 2.98874 3.75796 22.619874-3.946259 25.328168 0.032051 2.724321 3.96629-10.404501 18.753742-7.988669 22.928362 2.415831 4.154589 6.358084 7.596047 8.441387 11.938935 2.08731 4.318849-5.292393 12.539887-3.533604 17.03101 1.754783 4.459072 5.027974 7.844441 6.430198 12.451748 1.418249 4.587275-0.789252 9.547141 0.268426 14.262619 1.061684 4.667402 25.70076 5.108101 26.417897 9.903707 0.717137 4.731504-19.783375 12.147265-19.430816 16.982934 0.392623 4.799612-11.48221 9.122468-11.48221 13.974162z" fill="#FF7F00" opacity=".14" p-id="4274"></path><path d="M671.631165 1007.497829v-0.016026l48.713256-0.244387 18.369133-8.012708v7.479863h27.135034v-50.768516h-25.552525s-1.927056 33.356902-26.357802 23.300954c-39.598801-16.297847-45.504167 17.475715-45.504166 17.475715s-1.49437 10.785105 3.19707 10.785105z" fill="#7B7B9C" p-id="4275"></path><path d="M671.631165 1013.507359a8.505489 8.505489 0 0 1-6.486287-2.956689c-3.653795-4.198659-3.080886-11.646471-2.660219-14.655242 1.654624-9.511084 10.428539-27.10699 31.978717-27.10699 6.546382 0 13.869997 1.646611 21.76652 4.899771 2.315673 0.949506 4.402983 1.434275 6.197829 1.434274 10.368444 0 11.862814-19.346683 11.874833-19.542994l0.348553-5.636939 37.211014-0.01202v62.787578h-39.154096v-4.310837l-11.093594 4.835669-49.98327 0.264419z m22.832211-32.703866c-16.950883 0-19.987699 16.257784-20.111897 16.94287a20.821021 20.821021 0 0 0-0.108171 3.709884l44.831099-0.224356 25.644671-11.189746v10.648888h15.115973v-38.749454h-14.21855c-2.007183 11.233816-8.40533 25.191953-23.196788 25.191953-3.37335 0-6.9991-0.785245-10.773086-2.343717-6.430198-2.644194-12.211366-3.986322-17.183251-3.986322z" fill="#6E6E96" p-id="4276"></path><path d="M914.912995 1007.497829v-0.016026l-48.717263-0.244387-18.369132-8.012708v7.479863h-27.135034v-50.768516h25.560537s3.589693 36.966627 26.349789 23.300954c38.136482-22.872274 45.504167 17.475715 45.504167 17.475715s4.787593 10.785105-3.193064 10.785105z" fill="#7B7B9C" p-id="4277"></path><path d="M914.912995 1013.507359l-6.009531-0.048076-43.977746-0.220349-11.093594-4.835669v4.310836h-39.154096v-62.787577h37.022716l0.528839 5.42861c0.653036 6.542376 4.3509 20.905154 11.057536 20.905154 1.698694 0 3.850106-0.753195 6.221868-2.17545 8.71382-5.228292 16.82268-7.876492 24.106231-7.876492 19.366714 0 28.156655 18.417209 30.272009 28.745589 1.093735 2.716308 3.128962 9.210607-0.044069 14.098359-1.085722 1.662637-3.681839 4.455065-8.930163 4.455065z m-47.451255-12.271461l45.876758 0.228362a12.676104 12.676104 0 0 0-0.729157-2.303654l-0.41666-1.36216c-0.148235-0.777233-3.878151-19.567032-18.581469-19.567032-5.07605 0-11.101606 2.075291-17.924427 6.161772-4.294811 2.580092-8.469432 3.89017-12.403672 3.89017-13.505419 0-19.943629-14.707325-22.219238-26.333764h-14.370791v38.749454h15.115973v-10.648888l25.652683 11.18574z" fill="#6E6E96" p-id="4278"></path><path d="M569.929873 595.79289s-24.178345 5.861296-29.254395 20.792977c-5.064031 14.939693-21.9428 43.192501 11.101606 13.918073 0 0-14.935687 49.570616-5.260343 52.330994 9.659319 2.760378 20.949224-35.973051 20.949225-35.973051s-14.002207 35.255914-1.598536 39.506655c12.399665 4.254748 17.780198-42.319115 17.780199-42.319116s-3.577674 38.020298 2.019202 39.943348c5.59287 1.92305 25.015673-60.275593 17.111137-76.605492-7.912549-16.337911 4.871726-23.05256 4.871726-23.05256l-23.933957-9.963802-13.785864 21.421974z" fill="#E3B8A8" p-id="4279"></path><path d="M567.44994 692.654507c-1.185881 0-2.375768-0.200318-3.53761-0.596947-3.605718-1.237963-6.149753-3.673826-7.624092-7.283551-3.385369 3.477515-6.297988 4.214684-8.769908 4.214684-0.897423 0-1.786834-0.124197-2.652206-0.372591-1.67065-0.476756-4.006354-1.674656-5.640947-4.663396-3.822062-6.995094-1.253989-23.453195 2.047247-37.507484-3.561649 2.203495-5.84527 2.828486-7.800371 2.828486h-0.004006c-2.596117 0-4.879739-1.1979-6.261931-3.281204-3.016784-4.535193-0.669061-10.66892 4.094494-22.014915 1.366167-3.249153 2.772397-6.606477 3.689851-9.310766 5.124127-15.079916 24.102225-21.974851 31.137382-24.054148l12.531875-19.486905a6.013537 6.013537 0 0 1 7.363678-2.295641l23.933958 9.963802a6.009531 6.009531 0 0 1 0.484769 10.869238c-1.698694 0.965531-7.123297 5.052012-2.255577 15.111967 8.365267 17.271391-7.283551 68.444549-14.398836 79.790542-0.941493 1.502383-3.437452 5.484698-7.852453 5.484699-0.669061 0-1.590522-0.152241-2.223527-0.372591-1.4503-0.496788-3.421426-1.173862-4.94384-4.795606-2.992746 4.723491-6.70263 7.772326-11.31795 7.772327z m2.075291-32.956267c-3.894176 13.741794-2.808454 19.194441-2.04324 20.600672 3.553636-3.425433 8.261102-20.288176 10.192164-36.938583a6.009531 6.009531 0 1 1 11.950954 1.253989 252.520482 252.520482 0 0 0-1.101748 22.591829c6.189817-17.531804 13.120809-48.352684 8.842023-57.198713-4.943841-10.20819-3.513572-18.124745-0.240381-23.541335l-11.085581-4.611314-11.057537 17.195271a6.009531 6.009531 0 0 1-3.637769 2.588105c-5.833251 1.430268-21.710431 7.259513-24.979616 16.886781-1.049665 3.100918-2.544035 6.662566-3.990328 10.100018-0.38461 0.917455-0.829315 1.979139-1.28604 3.088899a187.625562 187.625562 0 0 0 6.70263-5.709055 6.017543 6.017543 0 0 1 9.743452 6.229881c-5.084063 16.870756-8.433375 34.422592-8.321196 42.315109 1.931063-2.660219 4.983904-8.004695 8.874073-18.577463 1.818885-6.334045 3.717896-11.129651 3.794017-11.333975a6.009531 6.009531 0 0 1 11.358013 3.902189c-0.064102 0.20833-1.466326 5.003936-3.71389 11.157695z" fill="#6E6E96" p-id="4280"></path><path d="M641.711715 625.952722l37.976228 211.202955 14.607166 113.219559s4.166608 11.410096 37.787929 12.872415c11.293911 0.492782 33.905772 1.394211 44.823087-8.12088v-394.040924l-135.19441 64.866875z" fill="#8D8DB3" p-id="4281"></path><path d="M742.523596 969.53362c-0.004006 0-0.004006 0 0 0-4.062443 0-7.756301-0.156248-10.700971-0.280445-35.808791-1.562478-42.242995-14.278645-43.168463-16.814667l-0.312495-1.290046-14.607166-113.219559-38.741442-215.413633 147.926603-70.98057v406.324405l-2.063273 1.794846c-7.628098 6.646541-20.167985 9.879669-38.332793 9.879669z m-42.431293-21.205631c1.458313 1.710713 8.333216 7.872485 32.255154 8.914137a225.036894 225.036894 0 0 0 10.172133 0.272432c13.176898 0 22.700001-1.814878 28.377004-5.396558v-381.485012l-122.454205 58.757185 37.162938 206.699813 14.486976 112.238003z" fill="#6E6E96" p-id="4282"></path><path d="M764.414313 706.925139l36.509903 248.518134s23.361049 15.276227 68.664898 0l10.232228-127.84275 33.601289-171.56409-148.992292-17.451677-0.016026 68.340383z" fill="#8D8DB3" p-id="4283"></path><path d="M831.660962 968.24758c-0.004006 0-0.004006 0 0 0-21.886711-0.004006-33.533182-7.451818-34.021956-7.76832l-2.259584-1.482351-36.970633-252.067764 0.012019-75.095096 162.149158 18.990117-34.783163 177.601666-10.520686 131.452475-3.753953 1.262001c-13.978169 4.715478-27.391441 7.107272-39.851202 7.107272z m-25.232016-16.710502c3.753954 1.686675 12.25143 4.687434 25.22801 4.691441h0.004006c10.055948 0 20.889129-1.770808 32.263168-5.264349l10.003865-124.513471 32.351307-165.193987-135.839433-15.917244-0.012019 61.152985 36.001096 245.044625z" fill="#6E6E96" p-id="4284"></path><path d="M565.699164 580.436536l24.182351 13.028663 22.463626 2.588104 83.336166-222.028122 47.459268-118.664194c-39.763062 11.606407-68.652879 38.42494-100.162853 66.489448 0.004006 0.004006-71.661651 99.573918-77.278558 258.586101z" fill="#8D8DB3" p-id="4285"></path><path d="M616.32345 602.559622l-28.276845-3.257166-28.485176-15.344335 0.13221-3.733922c5.007942-141.704735 61.858103-236.735448 75.531789-257.632589l-0.997582-0.997582 8.705807-7.756301c30.408226-27.127022 59.129776-52.747654 98.528259-64.249896l11.846789-3.457484-52.042537 130.122366-84.942714 226.306909z m-24.607025-14.931681l16.654413 1.919044 81.685548-217.633153 42.647637-106.629107c-30.949083 12.191335-55.720369 34.286376-81.769682 57.527235l-3.433445 3.06486c-6.041582 8.677762-69.426105 103.103516-75.647973 251.05015l19.863502 10.700971z" fill="#6E6E96" p-id="4286"></path><path d="M627.240765 604.999491l-4.77958 31.802437 38.136482 21.626298 63.556797 13.994194 38.136482-115.7676-37.431364-305.312206-34.602878 123.399704z" fill="#8D8DB3" p-id="4287"></path><path d="M728.164824 679.457577l-69.738601-15.356354-42.519433-24.106231 5.540787-36.582017 63.015939-230.257173 34.618904-123.439768 11.754642 0.893417 37.591618 306.650328-0.416661 1.278027-39.847195 120.919771z m-65.391707-26.702348l57.36698 12.632034 36.021127-109.333396-33.621321-274.202869-26.50203 94.513893-62.911775 229.87657-4.110519 27.367403 33.757538 19.146365z" fill="#6E6E96" p-id="4288"></path><path d="M779.233816 681.328544l69.213769 1.266008 64.97104-30.536429-1.262002-150.106058-60.876546-236.627276s-67.791513 69.966963-110.166718 227.713138c-0.012019 0.016025-18.373139 40.724587 38.120457 188.290617z" fill="#8D8DB3" p-id="4289"></path><path d="M849.737631 688.632128l-74.670423-1.366167-1.446294-3.786005c-52.318975-136.656729-41.609991-182.902071-38.284717-191.988481l-0.032051-0.008013c42.295077-157.441693 108.840614-227.432694 111.653075-230.337301l7.463837-7.700212 63.737083 248.462046 1.294053 153.956165-69.714563 32.767968z m-66.333201-13.236994l63.753109 1.169856 60.219504-28.300884-1.225944-145.518783-57.819698-224.752444c-18.473297 22.87628-68.104009 92.598856-101.416841 216.607526l-0.416661 1.189887c-1.414243 4.346894-12.980586 47.903973 36.906531 179.604842z" fill="#6E6E96" p-id="4290"></path><path d="M713.774001 258.061269s-23.509284 84.301697 30.700689 221.903926c0 0 41.261438-119.573636 105.95604-214.171663 64.686589-94.59402 0 0 0 0l-136.656729-7.732263" fill="#FFFFFF" p-id="4291"></path><path d="M744.598887 485.746363l-1.987151-5.048005c-53.837383-136.64471-31.005172-222.324593-30.768798-223.17394l0.432687-1.554466 137.133485 7.760308 20.13994-29.454714 2.363749-3.457483a5030.65831 5030.65831 0 0 0 5.600883-8.188987l0.136216 0.092146c0.81329-0.973544 1.073703-0.973544 1.522414-0.973544h1.209919l0.564896 1.069696c0.172273 0.324515 0.288457 0.54887-0.420667 1.866961l0.29647 0.204324-7.964631 11.646471-14.398836 21.057396-4.374938 6.398147-2.003177 2.928644c-63.797178 93.283943-105.30701 212.501013-105.719665 213.694907l-1.762796 5.132139z m-29.28244-225.589771c-1.278027 5.528768-5.284381 25.588582-4.515161 57.431082 0.817296 33.89776 7.363678 88.300038 33.593277 156.648435 7.572009-20.796983 38.328787-101.90161 83.660681-177.217055a2.003177 2.003177 0 1 1 0.38461-0.637011 671.965696 671.965696 0 0 1 18.345094-28.793665l-131.468501-7.431786z" fill="#6E6E96" p-id="4292"></path><path d="M721.954975 268.525865l34.418586 35.868886s-20.981275 19.707254-44.799048 29.634999c-1.121779-40.716574 6.947018-37.066786 10.380462-65.503885z" fill="#FFFFFF" p-id="4293"></path><path d="M705.805363 342.943888l-0.240381-8.749877c-0.717137-25.893065 2.239552-34.879316 5.368514-44.394407 1.862955-5.656972 3.781998-11.506248 5.052012-21.998889l1.518408-12.595976 47.407185 49.406355-4.423014 4.158595c-0.893417 0.833322-22.062991 20.572627-46.601908 30.800849l-8.080816 3.37335z m20.071833-61.649773c-1.117773 4.947847-2.367755 8.74587-3.525592 12.263449-2.495958 7.596047-4.703459 14.298677-4.867719 31.053248 12.88844-6.714649 24.190364-15.544653 30.195888-20.596665l-21.802577-22.720032z" fill="#6E6E96" p-id="4294"></path><path d="M851.268058 265.336808s-55.652261 44.398413-102.682849 39.057943l34.182211 38.54513c0.004006 0 55.792483-22.267315 68.500638-77.603073z" fill="#FFFFFF" p-id="4295"></path><path d="M782.76742 348.949412h-2.704289l-46.373545-52.294937 15.572697 1.766802c2.383781 0.268426 4.871726 0.408648 7.399736 0.408649 42.419274 0 90.383342-37.811967 90.864104-38.192571l13.445324-10.712991-3.8461 16.758578c-13.096771 57.014421-70.872399 82.266469-74.357927 82.26647z m-20.580639-38.276705l22.127092 24.951572c10.608825-5.212266 40.868815-22.391512 55.427905-54.774869-17.559849 11.402083-47.751731 27.936305-77.554997 29.823297z" fill="#6E6E96" p-id="4296"></path><path d="M749.602823 492.57319c-13.180904-34.891335-40.396066-115.391003-40.440135-185.26582l-16.402013 21.377904-11.694547 21.894724s30.356143 96.98982 66.80595 146.047622l1.730745-4.05443z" fill="#8D8DB3" p-id="4297"></path><path d="M749.294334 508.614631l-6.245906-8.40533c-36.634099-49.310203-66.46541-143.836115-67.715392-147.834457l-0.753195-2.403812 13.413273-24.943559 27.167085-35.412161 0.012019 17.688052c0.04407 69.726582 28.024445 151.307965 40.05152 183.146459l0.853353 2.259583-6.782757 15.905225z m-61.725893-157.449705c3.769979 11.598394 21.061402 63.236289 43.464932 106.288567-11.506248-35.98507-24.631063-85.924271-27.363396-133.111106l-5.837258 7.608066-10.264278 19.214473z" fill="#6E6E96" p-id="4298"></path><path d="M851.268058 265.336808v50.247689l-22.247283 20.035776-30.704696 8.890099c0 0.004006 31.417827-59.770793 52.951979-79.173564z" fill="#8D8DB3" p-id="4299"></path><path d="M786.377145 354.22578l3.03281-5.733092-14.254607-3.533604 19.050212-5.51675c6.542376-12.187328 33.244724-60.736324 53.040119-78.572611l10.03191-9.038334v66.429353l-25.260061 22.748077-29.578911 8.565584-0.989569 1.870967-2.98874-0.717137-12.083163 3.497547z m58.881382-73.440472c-12.684116 15.87718-26.618215 39.506655-34.723068 53.929529l15.488563-4.487116 19.234505-17.323474v-32.118939z" fill="#6E6E96" p-id="4300"></path><path d="M839.974146 360.744118l-101.689272 158.395205s-6.346064-49.658756 60.027199-174.624945l30.704696-8.898112 10.957377 25.127852z" fill="#8D8DB3" p-id="4301"></path><path d="M734.418742 536.286517l-2.095323-16.385987c-0.264419-2.103336-5.821232-52.996048 60.680235-178.206625l1.193894-2.247564 38.220615-11.077569 14.346753 32.912197-112.346174 175.005548z m68.015869-186.708107c-39.146083 74.153603-52.130676 121.188197-56.337347 146.267971l87.082106-135.647127-7.563996-17.343506-23.180763 6.722662z" fill="#6E6E96" p-id="4302"></path><path d="M713.761982 262.949021s-28.240788 18.112726-37.635688 44.194089c0 0-3.265178 16.914826 35.576422 39.510661 0.004006 0.008013-0.969538-55.083359 2.059266-83.70475" fill="#8D8DB3" p-id="4303"></path><path d="M712.163447 353.873221l-3.481522-2.027215c-41.337559-24.046136-38.873651-43.681276-38.45699-45.844707l0.248394-0.897423c9.967808-27.683905 38.817562-46.433641 40.043506-47.218887l10.536711-6.758718-1.318091 12.447741c-2.808454 26.574145-2.111348 77.13433-2.027215 82.811334l0.048077 3.02079-5.59287 4.467085zM682.035666 308.489245c0.092146 1.586516 1.426262 12.231398 23.545341 27.243206-0.084133-14.42688-0.032051-39.658897 1.137805-59.798838-8.321197 7.17538-19.47088 18.721691-24.683146 32.555632z" fill="#6E6E96" p-id="4304"></path><path d="M975.697395 471.427655l-21.377904 164.024132-22.547759-1.205913h-22.599842l-8.465426-7.616078 11.434134-124.669719-46.870333-132.037403-14.006213-104.589873s19.775362 27.984381 61.445448 55.339766c0.004006 0 59.698678 60.580076 62.987895 150.755088z" fill="#8D8DB3" p-id="4305"></path><path d="M959.555796 641.753781l-28.108579-1.502382-24.582987 0.008012-12.423703-11.17372 11.594388-126.356394-46.641972-131.384367-14.090346-105.210858 10.861225-4.270773c0.192305 0.268426 19.743312 27.467562 59.838901 53.789306l-0.232368 0.352559c9.150512 6.546382 27.739994 35.199825 32.39137 43.216539 14.334734 24.695165 31.794424 64.169769 33.533182 111.989609l0.020032 0.500794-0.068108 0.496788-22.091035 169.544887z m-48.080253-13.513431h20.292182l17.307449 0.917455 20.592659-158.006589c-3.213096-82.663099-55.684312-140.370619-60.832477-145.831279-22.511702-14.847547-38.665321-29.771215-48.909567-40.560326l11.213784 83.744814 47.102702 132.690439-0.116184 1.31809-11.161702 121.66896 4.511154 4.058436z" fill="#6E6E96" p-id="4306"></path><path d="M925.738163 508.406301h-9.523103a6.009531 6.009531 0 1 1 0-12.019062h9.523103a6.009531 6.009531 0 1 1 0 12.019062z" fill="#6E6E96" p-id="4307"></path><path d="M942.901383 635.463806l-35.640524 48.432811 1.915037-49.64273z" fill="#E3B8A8" p-id="4308"></path><path d="M907.260859 689.906148a6.009531 6.009531 0 0 1-6.005524-6.241899l1.919043-49.64273c0.128203-3.313255 2.976721-5.925397 6.221868-5.773156l33.725486 1.209918a6.009531 6.009531 0 0 1 4.623332 9.567173l-35.640523 48.432812a6.025556 6.025556 0 0 1-4.843682 2.447882z m7.692199-49.430393l-0.929474 24.098218 17.299436-23.509284-16.369962-0.588934z" fill="#6E6E96" p-id="4309"></path><path d="M907.725596 176.668185c-8.645712 45.844707-28.152648 99.710134-133.8643 78.616681-58.168251-11.602401-80.860239-48.825434-83.71677-99.469753-25.232016-112.314123 31.542024-153.026691 105.627519-141.400252 135.286556 14.715338 121.408546 112.113805 111.953551 162.253324z" fill="#7B7B9C" p-id="4310"></path><path d="M816.793383 266.005869c-13.200936 0-28.04047-1.62658-44.109955-4.831663-55.287683-11.029492-85.062904-46.197266-88.508369-104.525771-11.506248-51.613856-6.538369-92.703021 14.38281-118.84448 16.394-20.484487 41.882423-31.309655 73.712904-31.309655 7.820403 0 16.045447 0.669061 24.434752 1.983145 47.879935 5.200247 82.370635 21.433993 102.222118 48.208455 29.931469 40.364015 19.647159 94.89049 14.703319 121.096051-8.229051 43.629193-26.169503 88.223918-96.837579 88.223918zM772.270773 18.513361c-28.052489 0-50.299772 9.266696-64.33403 26.802507-18.621533 23.272909-22.748077 61.024781-11.930921 109.181155l0.136216 0.97755c2.996753 53.200372 28.801678 83.921094 78.889113 93.91294 15.292253 3.052842 29.338529 4.599294 41.75422 4.599294 61.725893 0 77.346667-37.695783 85.030853-78.432389 4.623332-24.526898 14.250601-75.56384-12.551906-111.709163-17.776192-23.974021-49.450425-38.597213-94.145309-43.45692a148.002723 148.002723 0 0 0-22.848236-1.874974z" fill="#6E6E96" p-id="4311"></path><path d="M873.070635 229.652214s-24.751254-50.780535-4.883745-84.405862c13.589552-22.988458-3.605718-46.878346-15.869167-59.702685-2.103336-1.594529-7.76832-8.589623-10.564755-8.805966-116.75717-8.990258-103.484119-22.267315-136.083821 20.556602-45.85272 60.227517-17.760167 168.655477 32.299225 199.332128 33.893753 20.772945 91.040384 7.203424 142.794463-75.599897 6.926986-11.093594 12.72418-21.98687 16.486146-32.896171-2.511984 12.672097-24.178345 41.521851-24.178346 41.521851z" fill="#E3B8A8" p-id="4312"></path><path d="M769.470332 311.265648c-12.499824 0-24.474816-3.289216-34.638935-9.51509-26.16149-16.033428-47.311032-52.118657-55.183518-94.169347-8.217032-43.877587-0.47275-85.399438 21.245694-113.924678l2.379775-3.132968c15.600742-20.540576 22.054978-29.046065 42.443312-29.046066 7.912549 0 18.212884 1.209919 32.471498 2.884575 15.188087 1.782827 35.981064 4.222697 64.029547 6.382122 3.878151 0.300477 7.095253 3.309248 11.554324 7.864472 0.893417 0.913449 1.654624 1.730745 2.187469 2.151412l0.705119 0.628998c22.419556 23.445183 28.34896 47.206867 16.698482 66.914122-13.084752 22.147124-4.587275 53.40069 1.133798 69.029476 3.942252-5.701041 8.958207-13.333146 12.583958-20.135934 1.762796-3.786004 3.277197-7.495888 4.495129-11.025486l11.578362 3.132969c-0.693099 3.469502-2.42785 7.804377-5.312425 13.257024-3.12095 6.662566-7.039164 13.7458-11.970985 21.650337-47.351096 75.744125-93.251892 87.054062-116.400604 87.054062z m-23.757678-237.769087c-14.026245 0-17.047036 3.457483-32.868127 24.29453l-2.391793 3.144987c-19.663185 25.824957-26.586164 63.889324-18.990118 104.429619 7.159354 38.228628 26.646259 72.038248 49.65475 86.136607 8.385299 5.140152 17.924427 7.744282 28.352966 7.744282 32.078875 0 67.110433-24.699171 97.562728-68.320351-3.982316-8.729845-23.6455-55.512039-4.014366-88.736731 11.586375-19.603089-4.138564-41.013044-14.775433-52.210803a44.831099 44.831099 0 0 1-3.060855-2.960696c-1.161843-1.181874-3.46149-3.533604-4.651376-4.346894-27.896242-2.163431-48.597072-4.591281-63.745096-6.370102-13.853972-1.62658-23.86585-2.804448-31.07328-2.804448z" fill="#6E6E96" p-id="4313"></path><path d="M883.503181 210.557932c-7.784345 13.453336-16.414032 21.862673-5.588864 28.581328 10.80113 6.726668 25.905084 1.253989 33.673404-12.203354 7.792358-13.453336 5.332457-29.807272-5.492711-36.537947-10.797124-6.714649-14.795465 6.694617-22.591829 20.159973z" fill="#EDC0AF" p-id="4314"></path><path d="M888.126513 248.025353c-0.004006 0-0.004006 0 0 0a25.280093 25.280093 0 0 1-13.389234-3.786005c-4.162602-2.584098-6.718655-5.825238-7.596047-9.627268-1.554465-6.774744 2.463908-13.124815 7.111278-20.476474 1.298059-2.051253 2.684257-4.238722 4.046417-6.586446 1.346135-2.323685 2.576086-4.64737 3.745941-6.858878 4.923809-9.302754 9.575186-18.088688 18.725698-18.088687 2.760378 0 5.620914 0.909442 8.497476 2.692269 13.53747 8.417349 16.91082 28.449119 7.519926 44.65482-6.434204 11.149683-17.419626 18.076668-28.661455 18.076669z m12.648059-53.404697c-1.915037 0-5.789181 7.319608-8.100847 11.694547-1.24197 2.339711-2.544035 4.795606-3.966291 7.255507-1.438281 2.491952-2.912619 4.815637-4.282792 6.991087-2.672238 4.218691-5.993505 9.47102-5.560819 11.36202 0.096152 0.412654 0.733163 1.181874 2.227533 2.111348a13.104783 13.104783 0 0 0 7.039163 1.975133c6.858878 0 14.026245-4.739517 18.264968-12.075151 6.173791-10.656901 4.61532-23.405119-3.46149-28.429087-1.322097-0.821303-1.991158-0.885404-2.159425-0.885404z" fill="#6E6E96" p-id="4315"></path><path d="M817.117898 438.471388h41.922486v12.019062h-41.922486z" fill="#6E6E96" p-id="4316"></path><path d="M687.908981 152.309553s5.288387-57.599349 57.599349-57.599349h77.462851s25.155896 9.931751 25.155896 39.06195-23.032528 58.360556-6.622503 88.724712c0 0-25.147883 46.337488-82.078171 46.337488-56.95032 0-71.517422-62.2347-71.517422-116.524801z" fill="#EDC0AF" p-id="4317"></path><path d="M589.881515 593.465199l84.78246-238.562345s38.288724 88.961087 66.817969 132.538197l-3.19707 15.765002s-58.324499-76.801803-58.324499-95.339202l-67.615234 188.194465-22.463626-2.596117zM693.309546 665.627644l46.22531-128.15124 10.773086 55.544089-26.153478 79.401927z" fill="#6E6E96" opacity=".25" p-id="4318"></path><path d="M865.274271 369.922674l-119.773954 177.637723s9.851624 45.740542 33.725486 133.772154c0 0-39.670916-123.431755-40.948942-162.181209l101.689273-158.395205-10.941353-25.123845 28.961932-20.035776 7.287558 54.326158z" fill="#6E6E96" opacity=".25" p-id="4319"></path><path d="M744.895357 472.761771s-21.285758-105.944021-10.640875-124.48142l28.224762-28.220756-10.476615-11.810732-37.61165 26.794495c0-0.004006 0.332527 100.423265 30.504378 137.718413z" fill="#6E6E96" opacity=".15" p-id="4320"></path><path d="M750.139675 332.391152l35.936993 35.936993 12.239411-23.813767-15.548659-1.574497-20.292182-22.884293z" fill="#6E6E96" opacity=".15" p-id="4321"></path><path d="M848.267299 395.150684l40.908879 107.246086-11.918903 125.274678-31.778398 29.126192h-68.853197l2.608136 24.530904 69.213769 1.274021 59.911015-27.155066 0.817296-21.193612-8.469432-7.624091 11.43814-124.669719-46.870333-132.037403zM912.713507 320.672567l38.697371 144.132585-15.873174 170.398241 18.781787 0.248394 21.377904-164.024132s-12.371621-115.202704-62.983888-150.755088zM760.736481 635.616047l3.677832 71.309092 13.509425 91.949827-1.009601 156.239786-32.074868 8.381293v-264.323201h-54.286095L652.340571 685.054454l-6.27395-34.859285 78.087843 22.227251 28.637417-75.203268z" fill="#6E6E96" opacity=".25" p-id="4322"></path><path d="M776.914137 792.000063l12.948536-83.552509h60.91661l22.511702-6.62651-29.138211 124.469401v134.737686l25.43634-5.576845 9.795535-122.47023 28.973951-177.533557-59.911015 27.155066-69.213769-1.274021-6.578433-15.256195-8.24107 40.85279z" fill="#6E6E96" opacity=".25" p-id="4323"></path><path d="M725.095957 174.536804a6.009531 6.009531 0 0 1-6.009531-6.00953v-21.846648a6.009531 6.009531 0 1 1 12.019062 0v21.846648a6.009531 6.009531 0 0 1-6.009531 6.00953zM789.998889 175.177821a6.009531 6.009531 0 0 1-6.009531-6.009531v-23.12868a6.009531 6.009531 0 1 1 12.019062 0v23.12868a6.009531 6.009531 0 0 1-6.009531 6.009531zM756.541828 245.056645a39.899278 39.899278 0 0 1-28.300883-11.70256 6.009531 6.009531 0 1 1 8.497476-8.497476c10.917314 10.917314 28.697512 10.913308 39.622839 0a6.009531 6.009531 0 0 1 8.497477 8.501482 39.959373 39.959373 0 0 1-28.316909 11.698554z" fill="#6E6E96" p-id="4324"></path><path d="M219.033373 375.928199c-6.398147 5.184222-11.157695 7.872485-11.157695 7.872485 4.731504-2.035228 8.365267-4.739517 11.157695-7.872485z m86.208722-210.998631l-45.608332-73.957292s-113.764423-0.108172-81.45318 121.608864c0.829315 3.112937 1.722732 6.281963 2.744353 9.559161 0 0 1.342129 3.080886 3.657801 8.541546 3.66982 13.853972 6.089658 33.180622-2.26359 48.833447-13.597565 25.488423 35.25992 32.575663 43.23657 58.352543 0.452718 2.323685 0.853353 4.731504 1.101748 7.203424v0.024039c1.141811 10.737028-0.084133 22.383499-7.608066 30.828892 18.276986-14.847547 49.943207-50.311791 21.878698-102.927236-21.838635-40.924904 64.313998-108.067388 64.313998-108.067388z" fill="#B08F81" p-id="4325"></path><path d="M207.879684 389.810215a6.009531 6.009531 0 0 1-2.964702-11.237823c0.04407-0.024038 4.282792-2.447882 9.967809-7.011119 5.039993-5.917385 6.995094-14.60316 5.797194-25.824957l-0.016026-0.196311c-0.196311-1.882986-0.496788-3.858119-0.941493-6.177798-2.956689-9.018302-12.900459-15.873174-22.523721-22.507696-13.553495-9.342817-30.420245-20.969256-20.184011-40.15969 7.395729-13.857978 5.132139-31.530005 1.862955-44.057873a979.188932 979.188932 0 0 0-3.465496-8.088829 5.63694 5.63694 0 0 1-0.228362-0.612972 245.389172 245.389172 0 0 1-2.812461-9.799541c-10.600812-39.923316-7.111278-71.685689 10.360431-94.401716 26.433923-34.366503 74.850709-34.763132 76.893949-34.763132a6.009531 6.009531 0 0 1 5.116114 2.856531L310.358209 161.772561c1.606548 2.608136 0.997582 6.009531-1.41825 7.896524-22.848236 17.820262-78.652738 70.615993-62.711456 100.499385 30.516397 57.206726-5.668991 95.908104-23.060573 110.150692-3.477515 3.781998-7.820403 6.810802-12.912478 9.002277a6.02155 6.02155 0 0 1-2.375768 0.488776z m24.76728-45.191672a68.50865 68.50865 0 0 1 0.388616 7.920562c12.587964-17.720103 20.296188-43.504996 2.584098-76.709657-21.205631-39.751043 44.00579-97.570741 61.7299-112.246015L256.372591 97.130042c-10.680939 0.72515-44.963309 4.987911-64.137719 29.96352-15.055878 19.603089-17.828275 47.847884-8.245076 83.949139 0.781239 2.928645 1.622573 5.921391 2.576086 9.006283 0.392623 0.909442 1.642605 3.798023 3.549629 8.289146 0.112178 0.260413 0.204324 0.532845 0.276439 0.805277 3.874144 14.635211 6.542376 35.744689-2.772397 53.200373-4.719485 8.846029 1.061684 14.034257 16.402012 24.607025 10.877251 7.499894 23.204801 15.997371 27.275257 29.138211 0.064102 0.204324 0.116184 0.412654 0.156248 0.624991 0.564896 2.896594 0.941493 5.360501 1.181874 7.748289l0.01202 0.156247z" fill="#6E6E96" p-id="4326"></path><path d="M378.053569 447.221265s-134.741692-26.105402-124.950163 130.567071c19.863502 179.564779-277.920765 241.511021-172.000782 324.931321 105.927995 83.420299 351.393288 68.280288 409.152891-9.266696 79.966822-107.370283 10.148094-174.749141-67.523088-301.902799-69.79469-114.245186-36.249489-151.440175-36.249489-151.440175" fill="#FFFFFF" p-id="4327"></path><path d="M286.316079 964.677919c-74.862728 0-157.089134-16.414032-208.927345-57.234771-16.766591-13.204942-24.987629-26.718374-25.139871-41.309514-0.304483-29.490771 33.525169-57.286853 72.695291-89.469894 58.857344-48.360697 132.113524-108.552157 122.193791-198.218362-3.261172-52.094619 8.609654-90.235107 35.25992-113.656251 37.43537-32.892165 90.219082-24.647089 96.304734-23.561367 1.646611-3.205083 3.052842-4.839675 3.32928-5.148165a6.005524 6.005524 0 1 1 8.92215 8.048765c-0.228362 0.276438-28.901837 36.553972 36.914544 144.284827 11.554324 18.918003 22.812179 36.317597 33.701448 53.152296 62.647355 96.821553 104.03299 160.786998 33.509144 255.477171-23.256884 31.229528-76.429212 54.414298-145.879356 63.620898-19.699242 2.608136-40.976987 4.01036-62.88373 4.014367z m71.024641-513.033639c-18.31705 0-45.948872 3.62575-67.078382 22.235263-23.665532 20.845059-34.15016 55.676299-31.157414 103.532196 10.608825 95.856022-65.435777 158.33511-126.532673 208.538729-36.782334 30.223933-68.548714 56.325328-68.304326 80.062975 0.112178 10.716996 6.83484 21.177586 20.560608 31.982723 64.253903 50.604255 178.286752 61.93823 262.796779 50.748484 66.25708-8.781928 116.488744-30.243965 137.818572-58.885389 65.535936-87.991549 28.08454-145.871343-33.961862-241.771434-10.93334-16.894794-22.235264-34.362497-33.869715-53.408703-46.978505-76.893949-48.152367-120.587244-43.056285-141.925084a128.92046 128.92046 0 0 0-17.215302-1.10976z" fill="#6E6E96" p-id="4328"></path><path d="M389.619913 30.712708s82.514863 14.222556 82.514863 96.108422c0 60.556038-41.898448 24.274498-27.599771 130.106341 5.897353 43.553072-22.952401 51.429564-22.952401 51.429564-5.364508 7.123297 33.104502-26.137452 7.648129-54.646666-18.180834-20.356284-73.484542-167.413507-39.61082-222.997661z" fill="#B08F81" p-id="4329"></path><path d="M421.137898 315.34011h-0.004006a6.137734 6.137734 0 0 1-5.436622-3.361331c-1.15383-2.311666-0.785245-4.747529 1.089728-7.239482 0.753195-1.001588 1.806866-1.742764 3.000759-2.119361 4.166608-4.471091 22.071003-25.752842 4.967879-44.90722-19.755331-22.119079-75.535795-172.24517-40.263856-230.12897 1.282033-2.107342 3.733922-3.217102 6.153759-2.792429 0.873385 0.152241 87.502774 16.073492 87.502774 102.029813 0 27.159073-8.084822 36.806373-15.905224 46.133165-9.731433 11.610413-19.795394 23.617456-11.750636 83.167899 5.364508 39.618833-15.777021 53.112233-24.054149 56.806091-1.474338 1.310078-3.132969 2.411825-5.300406 2.411825zM392.724837 37.52351c-11.434134 23.060573-10.41652 64.089642 3.004765 116.40461 11.870826 46.281399 30.123774 86.973935 37.984241 95.779901 1.798853 2.015196 3.32928 4.058436 4.607307 6.10969-8.265108-63.176193 3.409407-77.110292 14.703318-90.58366 7.027145-8.381292 13.096771-15.620774 13.096771-38.412921 0-66.609639-57.194707-85.33133-73.396402-89.29762z" fill="#6E6E96" p-id="4330"></path><path d="M179.943379 558.397584c21.518126-24.230428 42.230976-60.684241 45.988936-69.101591l18.00856-31.910608c9.599224-24.919521 12.852383-32.515568 17.339499-46.958474 7.407748-15.528627 8.201006-28.797671 15.324304-16.522203 0 0 23.373068 16.890788 29.991564 46.690048h72.571094c1.374179-26.682316 12.76825-46.702067 26.24963-54.109815 5.63694-3.100918 0.2524-4.294811 4.731504-4.130551-1.474338 0.344546-1.402224 1.145817 1.266008 0.068108 7.920562 2.804448 12.924497 15.200106 25.131857 43.228558l20.440417 50.331823c4.847688 10.877251 46.878346 74.698467 80.932354 91.56121l3.253159-5.068037c3.004765-5.93341-1.742764-17.455684-9.839605-31.574075-6.774744-11.830763-19.907572-29.462726-28.80969-43.1925-11.770668-18.112726-19.146365-32.367333-24.146294-46.690048l-16.77861-53.753249 0.008012 0.048076c-10.769079-37.046754-29.286446-88.340102-50.784541-85.984366-13.40526 1.470332-23.761685 1.117773-33.004343 0.47275-12.495818-9.675344-11.00946-31.465903-11.00946-31.465903h-32.683834v14.482969c0 10.432545-4.855701 16.766591-11.037505 20.644742-21.450018 5.853283-16.442076 5.124127-36.36968 4.05443-40.740612-2.207501-60.263574 60.067263-68.416505 98.520247l-14.346753 50.391918c-4.250741 12.171303-10.452577 27.848165-16.674444 38.705384-8.172962 14.298677-21.546171 41.613997-31.189465 60.479918 0 0-6.926986 13.128821-15.356354 13.128821v-0.004006s-15.440488-6.049594-31.133376 9.627268c-4.162602 4.154589-18.673615 23.152719-13.160872 26.273668 0 0 10.672927 0.416661 14.911649-4.755542a40.724587 40.724587 0 0 1 9.05436-8.132898c-3.653795 7.764314-6.025556 15.03184-6.025556 15.03184s-7.199418 23.681557 13.605577 28.709531c23.032528 5.552806 40.72058-49.726864 40.72058-49.726863 5.432616-14.106372 2.13138-10.805136 11.237823-29.37058z" fill="#F9D5B3" p-id="4331"></path><path d="M131.250155 643.901187a19.871515 19.871515 0 0 1-4.675415-0.560889c-7.191405-1.738758-12.712161-5.660978-15.961314-11.345995-4.254748-7.439799-3.733922-15.993364-2.892587-20.949224-4.166608 1.394211-8.40533 1.614561-10.704978 1.614561l-0.809283-0.012019a6.177798 6.177798 0 0 1-2.724321-0.773226c-2.327692-1.31809-3.814049-3.565655-4.190646-6.322027-1.430268-10.54873 15.889199-29.258402 16.065479-29.434681 10.368444-10.356425 20.865091-12.531875 27.844159-12.531875 3.665814 0 6.538369 0.604959 8.188987 1.06569 3.052842-0.721144 7.371691-6.069626 9.386887-9.851624a3199.542274 3199.542274 0 0 0 8.701801-17.20729c8.164949-16.221727 16.610343-32.992324 22.57981-43.436888 7.059195-12.323544 13.693717-30.472327 16.21772-37.703796l14.186499-49.859073c18.116732-85.239184 49.234082-103.139573 72.154432-103.139573 0.797264 0 1.610554 0.020032 2.419838 0.068108 2.532016 0.136216 4.667402 0.264419 6.506319 0.376597 3.261172 0.200318 5.532775 0.344546 7.47185 0.344547 3.753954 0 5.873315-0.54887 15.264208-3.136975l4.30683-1.181875c5.128133-3.489534 7.523932-8.309178 7.523933-15.099947v-14.482969a6.009531 6.009531 0 0 1 6.00953-6.009531h32.683835a6.001518 6.001518 0 0 1 5.993505 6.418179c-0.312496 4.895764 0.488775 18.421215 7.419767 25.195959 4.487116 0.284451 8.273121 0.412654 12.071144 0.412654 5.925397 0 11.774674-0.324515 17.876351-0.997582 20.175998-2.215514 38.833588 27.187117 57.122593 89.982707l0.04407 0.136216 16.77861 53.753249c4.747529 13.585546 11.99903 27.583746 23.453195 45.203691 3.465496 5.34047 7.68018 11.430127 11.758649 17.315461 6.390134 9.230639 12.996612 18.77778 17.231327 26.165497 10.88927 18.974092 13.777851 29.779228 9.983834 37.275116-0.08814 0.184292-0.192305 0.360572-0.304483 0.532845l-3.253159 5.068037a5.981486 5.981486 0 0 1-7.72425 2.135387c-35.488282-17.575874-78.632707-83.007645-83.752827-94.497868l-22.395518-54.830958c-7.880498-18.124745-13.072733-30.059673-17.567861-34.15016a15.248183 15.248183 0 0 1-3.221109 2.303653c-10.560749 5.8012-21.81059 23.248871-23.1407 49.153955a6.009531 6.009531 0 0 1-6.001518 5.701042H306.600249a6.005524 6.005524 0 0 1-5.865302-4.707466c-6.053601-27.255225-27.431505-42.968145-27.643842-43.124392a4.887752 4.887752 0 0 1-0.424673-0.336534c-0.352559 0.90143-0.705118 1.83491-1.033639 2.700282-1.233957 3.257166-2.760378 7.287558-4.735511 11.478204-3.533604 11.325962-6.386128 18.665602-11.999029 33.120527-1.542446 3.970297-3.297229 8.49347-5.344476 13.805895a5.97748 5.97748 0 0 1-0.376598 0.793258l-17.87635 31.674234c-4.603301 10.12005-25.195959 45.760573-46.317457 69.758633-5.088069 10.420526-5.857289 13.164879-6.922979 16.934857-0.705118 2.495958-1.58251 5.604889-3.745941 11.22981-1.662637 5.228292-17.980516 53.965586-43.064297 53.965586z m-10.8452-56.153055a6.009531 6.009531 0 0 1 5.440628 8.569591c-3.437452 7.307589-5.729086 14.270632-5.753124 14.33874-0.713131 2.419838-2.019202 10.216202 0.981557 15.41645 1.614561 2.792429 4.338881 4.623332 8.325203 5.588863 13.421285 3.229121 28.55729-30.011597 33.585264-45.716503 2.083304-5.428609 2.840505-8.124886 3.509566-10.500654 1.209919-4.294811 2.171444-7.688193 8.052771-19.687223 0.240381-0.488775 0.540858-0.937487 0.90143-1.346134 20.845059-23.469221 41.337559-59.366151 44.99536-67.563151 0.076121-0.168267 0.160254-0.336534 0.2524-0.500795l17.792217-31.525998c1.983145-5.148165 3.693858-9.551148 5.200248-13.429298 5.75713-14.819503 8.385299-21.582228 11.850794-32.74393 0.084133-0.272432 0.192305-0.544864 0.316502-0.80127 1.850935-3.882157 3.277197-7.640117 4.531186-10.957378 2.920632-7.712231 5.232298-13.801889 11.510255-13.801889 4.298818 0 7.111278 3.257166 9.270703 6.750706 4.611313 3.62575 22.772115 19.20646 30.099736 44.758985H373.618536c2.592111-24.286517 13.53747-44.803055 28.713538-53.260468 0.268426-1.193893 0.833322-2.083304 1.36216-2.696276 1.983145-2.295641 4.723491-2.295641 5.753124-2.295641l0.921461 0.020032c0.248394 0.008013 0.496788 0.032051 0.737169 0.072115 0.753195-0.052083 1.562478 0.072114 2.315673 0.336533 9.951783 3.521585 14.85556 14.799471 26.706355 42.05069l1.931062 4.443046 20.496506 50.472046c4.3509 9.755472 41.878417 66.613645 73.348326 85.836131 0.54887-1.474338 0.885404-7.079227-9.775503-25.664703-3.978309-6.943011-10.436552-16.273809-16.686464-25.296118-4.126544-5.961454-8.393311-12.123227-11.95496-17.611931-11.99903-18.457272-19.639146-33.256743-24.779298-47.980094l-16.742553-53.625046a6.033569 6.033569 0 0 1-0.124197-0.380603c-22.046965-75.836272-38.933746-81.729618-43.581117-81.729618-0.256407 0-0.51682 0.012019-0.777232 0.044069a174.344499 174.344499 0 0 1-19.186429 1.065691c-4.631345 0-9.222627-0.17628-14.891617-0.572909a6.017543 6.017543 0 0 1-3.261172-1.245976c-10.304342-7.97665-12.760237-22.014914-13.27305-30.207908h-20.732881v8.473438c0 11.149683-4.791599 20.047795-13.853972 25.736817a6.089658 6.089658 0 0 1-1.610554 0.709125l-5.188228 1.422256c-9.683357 2.672238-12.944529 3.573668-18.457272 3.573667-2.13138 0-4.627339-0.148235-8.209019-0.364578-1.814878-0.112178-3.918214-0.240381-6.422186-0.372591a33.136553 33.136553 0 0 0-1.774814-0.048076c-15.144017 0-43.132405 12.187328-60.439854 93.816787a6.486287 6.486287 0 0 1-0.096153 0.400636l-14.346753 50.391918c-3.381363 9.711402-9.955789 27.335352-17.243347 40.047513-5.805207 10.16412-14.555083 27.539676-22.275327 42.871992a3620.269521 3620.269521 0 0 1-8.777921 17.355525c-0.917455 1.742764-8.990258 16.406019-20.704837 16.406019-0.777233 0-1.518408-0.148235-2.203494-0.416661-0.881398-0.300477-12.50383-3.886163-24.683146 8.281134-3.140981 3.132969-8.397318 10.356425-11.029492 15.328309 1.858948-0.460731 3.265178-1.117773 3.882157-1.870967a46.954467 46.954467 0 0 1 10.556742-9.446982c0.973544-0.624991 2.063272-0.917455 3.144988-0.917455z" fill="#6E6E96" p-id="4332"></path><path d="M310.638653 90.122929s31.834488 54.722787-52.980023 111.520865c0.004006-0.004006-39.366433-60.423828 52.980023-111.520865z" p-id="4333"></path><path d="M257.662637 203.642965a2.01119 2.01119 0 0 1-1.698694-0.93348c-0.556883-0.873385-13.525451-21.682387-6.598465-48.905562 6.301995-24.763273 26.59017-46.778187 60.303638-65.435777a2.003177 2.003177 0 0 1 2.700282 0.745182c0.328521 0.564896 31.794424 57.006409-53.592995 114.193103a1.987151 1.987151 0 0 1-1.113766 0.336534z m52.142695-110.759658c-31.630163 17.876351-50.652331 38.697372-56.557697 61.910186-5.46066 21.454025 2.171444 38.561156 5.07605 43.985758 72.69529-49.606673 56.032865-96.224606 51.481647-105.895944z" fill="#6E6E96" p-id="4334"></path><path d="M333.619099 79.830606s19.775362 44.334311-24.190364 66.918128l1.213925-56.625805c-0.004006 0 5.652965-12.832351 22.976439-10.292323z" p-id="4335"></path><path d="M309.428735 148.751911a2.003177 2.003177 0 0 1-2.003177-2.047247l1.213925-56.625805c0-1.077709 2.111348-4.358913 4.731504-6.754712 2.916626-2.660219 8.028733-5.833251 15.849136-5.833251a32.852101 32.852101 0 0 1 4.69144 0.352559 2.01119 2.01119 0 0 1 1.53844 1.165849c0.204324 0.460731 20.023756 46.333482-25.103813 69.518251a2.015196 2.015196 0 0 1-0.917455 0.224356z m3.205083-58.148219l-1.129792 52.735635c15.604748-8.982245 23.841812-21.950813 24.50286-38.601219 0.432686-10.917314-2.664225-20.091864-3.806036-23.072592a27.327339 27.327339 0 0 0-2.984734-0.168266c-11.197759 0.004006-15.704907 7.42778-16.582298 9.106442z" fill="#6E6E96" p-id="4336"></path><path d="M434.863667 109.193174C430.528792 54.246031 354.444126 6.133728 283.812108 48.633129 210.792303 92.574818 237.843204 164.492875 260.222697 213.630805c23.288935 51.149119 93.908934 75.347496 119.753922 62.198643 21.466044-10.921321 60.756356-92.302386 54.887048-166.636274z" fill="#F9D5B3" p-id="4337"></path><path d="M362.144338 285.368577h-0.004006c-36.477852-0.004006-87.907416-26.477992-107.386308-69.249826-18.216891-39.999437-56.125011-123.23945 25.961173-172.637793 18.877939-11.358013 38.893683-17.11915 59.49836-17.11915 51.028929 0 97.118023 37.715815 100.639609 82.354609 5.781169 73.160027-32.154996 159.240546-58.152226 172.46552-5.456654 2.78041-12.375627 4.18664-20.556602 4.18664zM340.213557 38.384876c-18.389164 0-36.321604 5.180215-53.300531 15.396418-64.073617 38.557149-48.068233 98.416082-21.221656 157.357559 18.48131 40.588371 67.887666 62.206656 96.448962 62.210662h0.004006c6.181804 0 11.406089-0.997582 15.107961-2.876562 17.93244-9.122468 57.419063-87.442679 51.621869-160.80703-3.052842-38.637276-43.653231-71.281047-88.660611-71.281047z" fill="#6E6E96" p-id="4338"></path><path d="M250.018514 226.519245a4.14257 3.589693 90 1 0 7.179386 0 4.14257 3.589693 90 1 0-7.179386 0Z" fill="#FFFFFF" p-id="4339"></path><path d="M253.608207 232.664992c-3.088899 0-5.596876-2.756371-5.596877-6.145747s2.511984-6.145747 5.596877-6.145746 5.59287 2.756371 5.59287 6.145746-2.507977 6.145747-5.59287 6.145747z m0-8.28514c-0.861366 0-1.590522 0.981557-1.590523 2.139393s0.729156 2.139393 1.590523 2.139393c0.861366 0 1.586516-0.981557 1.586516-2.139393s-0.72515-2.139393-1.586516-2.139393z" fill="#6E6E96" p-id="4340"></path><path d="M489.306009 539.299295s20.071833-5.608895 31.133375 13.605578c11.073562 19.226492 18.677622 19.186428 13.164879 22.28334 0 0-0.172273 0.020032-0.464737 0.028044-2.243558-1.358154-12.828345-8.160943-17.215302-19.63514-4.935828-12.852383-31.297636-0.544864-49.378311-22.627886l10.256265 0.088139c4.026386-3.345305 3.19707-12.692129 3.197071-12.692129-4.443046 1.161843 1.522414 13.036675 9.30676 18.950054z" fill="#FFFFFF" opacity=".13" p-id="4341"></path><path d="M533.139526 577.22344a2.015196 2.015196 0 0 1-1.037646-0.288457c-3.100918-1.87898-13.573527-8.918144-18.048624-20.632722-1.662637-4.318849-6.462249-5.116114-14.803477-6.149754-9.967808-1.24197-23.621462-2.932651-34.254325-15.929262a1.995164 1.995164 0 0 1-0.256407-2.131381c0.332527-0.701112 1.10976-1.262001 1.822891-1.137804l9.426951 0.084133c0.685087-0.809283 1.225944-2.05526 1.582509-3.649788-1.205913-2.924638-1.418249-5.248324-0.624991-6.890929a3.854112 3.854112 0 0 1 2.548041-2.079297 1.971126 1.971126 0 0 1 1.658631 0.29647c0.480762 0.34054 0.789252 0.877391 0.841334 1.462319 0.012019 0.140222 0.280445 3.297229-0.2524 6.718656 1.74677 3.641776 4.86772 7.600053 8.060784 10.24024a31.890576 31.890576 0 0 1 6.233886-0.596947c6.458242 0 18.445253 1.999171 26.141459 15.376386 5.152171 8.946188 9.527109 13.61359 12.135246 16.402013 2.107342 2.251571 3.381363 3.605718 3.096911 5.440628-0.240381 1.53844-1.498376 2.439869-2.824479 3.185052a2.115355 2.115355 0 0 1-0.753195 0.248393s-0.240381 0.028044-0.63701 0.040064c-0.020032-0.008013-0.036057-0.008013-0.056089-0.008013z m-61.998326-42.226969c9.062372 8.749877 19.799401 10.083993 28.605367 11.173721 8.28514 1.029633 15.444494 1.919043 18.048624 8.693788 3.53761 9.254677 11.325962 15.320297 15.083922 17.812249a63.236289 63.236289 0 0 0-1.486357-1.62658c-2.732333-2.916626-7.299577-7.788352-12.688123-17.139182-6.358084-11.049524-15.837117-13.369203-22.66795-13.369202-3.637769 0-6.165779 0.685087-6.189816 0.689093a1.991158 1.991158 0 0 1-1.746771-0.332528c-2.948676-2.243558-5.837258-5.444635-8.008701-8.793946a8.593629 8.593629 0 0 1-2.007183 2.483939c-0.360572 0.300477-0.865372 0.38461-1.298059 0.460731l-5.644953-0.052083z" fill="#6E6E96" opacity=".13" p-id="4342"></path><path d="M507.430753 559.911985c0.825309-0.673067 2.832492 1.402224 5.220279 4.587276-1.754783-1.410237-3.004765-2.17545-3.004765-2.175451a148.844057 148.844057 0 0 1 6.037575 15.023827c5.432616 8.858048 14.146435 27.243206 10.496647 30.22794 0 0-11.041511-19.899559-12.439728-25.135864-2.059266-7.55999-8.990258-20.336252-6.310008-22.527728z" fill="#FFFFFF" opacity=".19" p-id="4343"></path><path d="M526.180489 609.574747a2.031221 2.031221 0 0 1-1.754783-1.033639c-0.452718-0.821303-11.177727-20.175998-12.624021-25.592588-0.669061-2.459901-1.935069-5.63694-3.161013-8.71382-3.433445-8.62568-5.244317-13.61359-2.479933-15.87718a3.289216 3.289216 0 0 1 1.638599-0.580921c1.430268 0 3.008772 0.917455 6.45023 5.512743a2.007183 2.007183 0 0 1-0.657042 2.964702 148.034774 148.034774 0 0 1 3.918214 10.244246c1.514402 2.540028 16.161631 27.523651 9.931751 32.619733a1.955101 1.955101 0 0 1-1.262002 0.456724z m-10.897282-28.985969c0.140222 0.452718 0.268426 0.897423 0.388616 1.322096 0.745182 2.772397 4.69144 10.568761 8.10886 17.018991-1.714719-5.116114-4.891758-12.099189-8.497476-18.341087z" fill="#6E6E96" opacity=".19" p-id="4344"></path><path d="M510.034883 573.096896s-3.834081-3.92222-8.938175-4.174621c-7.103265-0.380604-16.281822 2.391793-17.531804-2.08731-2.103336-7.708225-17.355525-6.057607-12.451748-13.060714 4.895764-6.987081 4.871726-0.084133 21.706425 4.234716 16.826686 4.310837 13.741794 4.771567 14.9437 8.176969 1.205913 3.401394 2.271603 6.91096 2.271602 6.91096z" fill="#FFFFFF" opacity=".19" p-id="4345"></path><path d="M510.115011 575.100073l-0.120191-0.004007a2.01119 2.01119 0 0 1-1.390205-0.59294c-0.032051-0.032051-3.381363-3.369344-7.612072-3.58168-2.167437-0.116184-4.451059 0.072114-6.670579 0.244387-1.742764 0.136216-3.429439 0.264419-4.943841 0.26442h-0.016025c-1.822891 0-6.602471-0.016025-7.732263-4.05443-0.72515-2.6482-3.894176-3.938246-6.963043-5.184222-2.892587-1.177868-5.624921-2.287628-6.358084-4.783587-0.432686-1.458313-0.04407-3.068867 1.157837-4.77958 1.614561-2.303653 3.148994-3.838087 5.396558-3.838087 1.598535 0 3.056848 0.801271 5.076051 1.915037 2.628168 1.446294 6.598465 3.629757 13.373209 5.368514 13.9982 3.589693 15.452507 4.699453 16.069485 8.309178 0.060095 0.332527 0.116184 0.705118 0.268425 1.137805 0.941493 2.656213 1.802859 5.38454 2.1434 6.486287a2.003177 2.003177 0 0 1-1.678662 3.092905z m-10.488635-8.217032c0.532845 0 1.061684 0.012019 1.578504 0.040064 1.911031 0.092146 3.657801 0.620985 5.148164 1.298058l-0.476756-1.366166a10.324374 10.324374 0 0 1-0.440699-1.80286c-0.180286-1.057677-0.312496-1.822891-13.112796-5.100088a55.788477 55.788477 0 0 1-14.310696-5.741105c-1.382192-0.757201-2.576086-1.418249-3.144987-1.418249-0.232369 0-0.817296 0.276438-2.111349 2.13138-0.552877 0.789252-0.633004 1.229951-0.596947 1.346135 0.188299 0.645023 2.592111 1.622573 4.026386 2.207501 3.597706 1.462319 8.072803 3.281204 9.314773 7.828415 0.076121 0.268426 0.312496 1.113766 3.886163 1.113766 1.418249 0 3.000759-0.124197 4.635351-0.248393 1.854942-0.144229 3.769979-0.288457 5.604889-0.288458z" fill="#6E6E96" opacity=".19" p-id="4346"></path><path d="M467.17491 539.940312c-1.161843 0.93348-4.358913 2.047247-7.503901 5.532774l0.400636 0.280445s2.223526 1.15383 1.253989 10.8452c-0.969538 9.695376 7.708225 16.153619 10.620844 19.727286 1.794847 2.207501 3.19707 5.100088 3.96629 6.979068 0.47275 1.10976 0.749188 1.87898 0.749188 1.87898-0.468743 4.619326 1.566484 12.267455 1.566484 12.267456-0.500794 5.023968 1.350141 7.820403 3.03281 9.310766 0.917455-9.210607 0.168267-16.762584-1.370173-22.928363 3.116943 0.59294 7.019132 1.762796 7.439799 3.950265 0 0 0.008013-0.016025 0.032051-0.036057-0.008013 0.028044-0.024038 0.060095-0.024038 0.084133 0.913449 5.909372 3.525591 13.849965 3.525591 13.849965 0.584928 14.070315 6.257925 15.516608 9.43897 15.220139 0.156248-0.440699 0.2524-0.733163 0.2524-0.733163s-6.943011-3.946259-6.00953-13.297089c0 0-4.935828-14.014226-4.591282-17.519785 1.810872-1.025627 4.3509-1.1979 6.814808 2.756372 0 0 0.917455-1.586516 0.985563-0.092146l6.618496 13.641634c2.644194 20.308208 12.479792 15.232157 12.479793 15.232158s-8.501483-1.770808-7.42778-12.519856c0.620985-6.233887-6.698624-17.676033-10.761067-21.39393 0.68108-0.781239 1.590522-1.462319 2.86855-1.899011 4.827656-1.614561 8.249083 5.596876 14.42688 18.761755 0 0 3.140981 9.6473 9.098429 7.872485 0 0-16.634381-18.469291-15.616767-28.629405l0.59294-5.997511s-15.047865 10.067967-30.25999 10.348412a49.218057 49.218057 0 0 0-9.879669-19.450848c-4.971885-6.093664 1.65863-16.610343 9.967809-6.446223 8.313184 10.132069 29.747177 5.060025 29.747177 5.060024s4.811631 2.936657 9.058366 8.136905c4.238722 5.16419 14.919662 4.747529 14.919662 4.747529-8.773915-0.881398-21.157555-17.035016-21.157555-17.035016-27.567721 5.180215-29.230358-10.8452-29.230357-10.8452-11.758648 1.602542-13.737787-9.539128-16.025416-7.660148z m19.366715 56.922275c0.196311-2.107342 0.308489-4.254748 0.392622-6.213855-0.17628 1.682669-0.320508 3.737928-0.392622 6.213855z" fill="#F9D5B3" p-id="4347"></path><path d="M514.21351 619.458422c-4.318849 0-9.847618-2.996753-11.774673-17.215302l-5.925398-12.215373a1.939075 1.939075 0 0 1-1.434274-0.85736c-0.717137-1.149824-1.794847-2.592111-3.060855-2.42785 0.436693 3.249153 2.700282 10.58078 4.423015 15.468532a2.04324 2.04324 0 0 1 0.104165 0.865373c-0.785245 7.868479 4.77958 11.225803 5.015955 11.366025a2.019202 2.019202 0 0 1 0.897423 2.375768l-0.264419 0.757201a2.003177 2.003177 0 0 1-1.7027 1.326103c-3.657801 0.352559-10.873244-0.93348-11.61442-16.85473a133.684014 133.684014 0 0 1-1.097741-3.609725 1.874974 1.874974 0 0 1-1.354148 0.420667 2.003177 2.003177 0 0 1-1.882986-2.059266c0.072114-2.532016 0.220349-4.639358 0.404642-6.36209a1.983145 1.983145 0 0 1 0.596947-1.22995 57.811686 57.811686 0 0 1-0.17628-1.053671c-0.056089-0.212337-0.697106-0.90143-2.82448-1.594529 1.1979 6.310007 1.438281 13.156866 0.717138 20.40436a2.007183 2.007183 0 0 1-3.321267 1.298058c-1.96712-1.742764-4.18664-4.995923-3.729916-10.644882-0.392623-1.550459-1.866961-7.764314-1.570491-12.151271-0.120191-0.312496-0.312496-0.793258-0.556883-1.374179-0.500794-1.221938-1.838916-4.242729-3.677833-6.502313-0.51682-0.628998-1.229951-1.358154-2.035227-2.187469-3.705877-3.814049-9.907713-10.200177-9.026316-19.002136 0.689093-6.906954-0.352559-8.83401-0.520826-9.094423l-0.29647-0.200318a2.003177 2.003177 0 0 1-0.332527-2.980727c2.459901-2.724321 4.919802-4.110519 6.546382-5.03198 0.500794-0.284451 0.917455-0.500794 1.185881-0.721144a2.81246 2.81246 0 0 1 1.79084-0.657042c1.58251 0 2.588105 1.237963 3.749947 2.672238 2.05526 2.532016 5.007942 6.093664 11.474198 5.216273a2.01119 2.01119 0 0 1 2.263589 1.778821c0.048076 0.396629 1.398217 10.083993 17.171233 10.083992a53.452773 53.452773 0 0 0 9.695376-0.997582 2.003177 2.003177 0 0 1 1.959107 0.749188c3.301236 4.302824 13.285069 15.608755 19.771356 16.265797a2.003177 2.003177 0 1 1-0.12019 3.994335l-0.657042 0.008012c-2.668232 0-11.710572-0.396629-15.8892-5.484698a39.510661 39.510661 0 0 0-7.908542-7.271532c-1.810872 0.364578-6.249912 1.137804-11.370032 1.137804-9.110449 0-15.680869-2.379774-19.526969-7.063202-1.846929-2.259584-3.701871-3.509566-5.220279-3.509566-1.402224 0-2.13138 1.105754-2.443876 1.762796-0.697106 1.470332-0.72515 3.790011 0.797265 5.652965a51.393507 51.393507 0 0 1 9.839605 18.653584c13.930092-0.881398 27.4916-9.85563 27.631822-9.947777a2.003177 2.003177 0 1 1 3.108931 1.866961l-0.592941 5.997512c-0.761207 7.600053 10.652895 22.131099 15.111967 27.090964a2.015196 2.015196 0 0 1-0.917455 3.265179 7.051183 7.051183 0 0 1-2.019202 0.300476c-6.289976 0-9.242658-8.505489-9.559161-9.47102-4.583269-9.73544-8.277127-17.603919-11.205771-17.603919a2.159425 2.159425 0 0 0-0.677074 0.120191 4.27478 4.27478 0 0 0-0.520826 0.20833c4.382951 4.995923 10.396488 15.131998 9.771497 21.381911-0.881398 8.854042 5.568832 10.300336 5.841264 10.360431a2.003177 2.003177 0 0 1 0.512813 3.741934c-0.160254 0.080127-1.590522 0.785245-3.573668 0.785245z m-14.498994-32.002754l6.470261 13.329139a2.107342 2.107342 0 0 1 0.184293 0.616979c0.248394 1.915037 0.576915 3.653795 0.97755 5.204253a18.877939 18.877939 0 0 1 0.096153-2.431857c0.424674-4.242729-3.96629-12.423703-7.85646-17.251359 0.052083 0.160254 0.096152 0.336534 0.128203 0.532845z m-21.109478-0.13221c0.068108 2.155418 0.476756 4.631345 0.857359 6.534363a59.46631 59.46631 0 0 0-0.857359-6.534363z m18.889958-1.951094a2.243558 2.243558 0 0 1 0.969538 0.236375 19.418797 19.418797 0 0 0-1.141811-1.149824 2.003177 2.003177 0 0 1-0.276439-2.644193 73.71691 73.71691 0 0 1-3.297229 1.145817c1.266008 0.364578 2.439869 1.177868 3.513572 2.423844a2.199488 2.199488 0 0 1 0.232369-0.012019z m6.233887-6.454236c1.326103 0.196311 2.532016 0.841334 3.697864 1.915037a12.095182 12.095182 0 0 1 0.024038-1.947088l0.200318-2.023209c-1.089728" fill="#6E6E96" p-id="4348"></path></svg>