<?xml version="1.0" standalone="no"?><!DOCTYPE svg PUBLIC "-//W3C//DTD SVG 1.1//EN" "http://www.w3.org/Graphics/SVG/1.1/DTD/svg11.dtd"><svg t="1735195595074" class="icon" viewBox="0 0 1024 1024" version="1.1" xmlns="http://www.w3.org/2000/svg" p-id="8860" xmlns:xlink="http://www.w3.org/1999/xlink" width="200" height="200"><path d="M795.610309 544.074744c0 4.945472 7.266569 10.978706 7.060339 15.855435-0.214317 4.929297-5.519681 10.529853-5.940228 15.41467-0.416503 4.909079-18.601122 8.487773-19.215768 13.332152-0.610602 4.884817 0.20623 10.194224-0.610602 15.010297-0.828963 4.848423-24.343208 5.074871-25.358182 9.858595-1.035193 4.803942-16.712704 5.046565-17.94604 9.781764-1.24951 4.759461 29.992288 18.006695 28.556767 22.673151-1.431478 4.698805-12.23226 6.150502-13.878055 10.760345-1.633664 4.634106-21.144624 1.690276-22.980474 6.231376-1.823719 4.561319 38.225307 26.777529 36.203446 31.253929-2.025905 4.464269-21.496428 0.96645-23.7043 5.337714-2.224047 4.383395-23.287797-1.847981-25.68168 2.438364-2.401971 4.286346-6.449737 6.405256-9.013457 10.574334-2.587982 4.165034 19.308774 23.643644 16.575217 27.703541-2.757819 4.063941 16.470081 24.60605 13.562645 28.544636-2.927655 3.958804-12.066467 4.581537-15.151827 8.382636-3.093448 3.81323-33.991529-15.499587-37.234595-11.8198-3.251153 3.683831 18.839702 30.974913 15.447019 34.517213-3.396727 3.538257-19.017626-4.25804-22.555883-0.865356-3.542301 3.396727-28.742778-17.388006-32.434696-14.140897-3.679787 3.239022 4.22569 19.082325 0.408416 22.155554-3.801099 3.093448 14.913248 35.993172 10.958487 38.91274-3.942629 2.931699-30.833382-25.883866-34.897323-23.146267-4.059897 2.749731 5.709736 27.109114 1.532571 29.689009-4.16099 2.571807-23.409108-20.408666-27.695454-18.010739-4.278258 2.393884-11.035318-1.411259-15.418713 0.804701-4.36722 2.207872 14.601881 53.882599 10.137611 55.908504-4.464269 2.021861-19.110631-17.299044-23.667906-15.467237-4.5411 1.827762-15.018385-11.71062-19.644403-10.072913-4.621975 1.62962-8.059138 6.316294-12.761987 7.743729-4.674543 1.431478-8.823402 4.634106-13.570732 5.863397-4.735199 1.233335-5.078915 22.968343-9.878814 24.011623-4.787767 1.023062-16.59948-33.951092-21.464078-33.114042-4.81203 0.820876-4.371264 37.994814-9.25608 38.613504-4.840336 0.614646-14.286471-42.544002-19.203637-42.135586-4.868642 0.420547-7.537498 30.84147-12.466796 31.0477-4.880773 0.218361-10.093131 4.290389-15.022428 4.290389s-9.17925-27.210207-14.060022-27.404306c-4.925254-0.20623-13.073354 46.171221-17.94604 45.762805-4.909079-0.420547-4.391482-53.878556-9.239905-54.505333-4.884817-0.606558-12.770075 22.102986-17.59828 21.298286-4.852467-0.828963-13.186578 14.339039-17.962214 13.311933-4.803942-1.035193-9.486572-5.61673-14.221771-6.829847-4.763505-1.241423-6.825803-13.392808-11.50439-14.820242-4.698805-1.431478-12.822643 6.380994-17.440574 4.751374-4.634106-1.625576 5.936184-42.572308 1.395084-44.400071-4.557275-1.831806-8.002526-3.121754-12.470839-5.143614-4.464269-2.025905-17.100901 14.808111-21.480253 12.596195-4.383395-2.21596-7.189738-6.567005-11.467997-8.960889-4.294433-2.397927-28.742778 28.726603-32.923986 26.166927-4.173121-2.579895 1.617489-22.054461-2.442409-24.804193-4.063941-2.753775-21.912931 12.442533-25.863647 9.518923-3.946673-2.919567 26.773485-50.878114 22.968342-53.963474-3.809186-3.08536-21.015225 10.60264-24.695012 7.359574s-21.783532 8.738484-25.325832 5.345801c-3.538257-3.408858-0.646996-14.027673-4.043722-17.565929-3.396727-3.542301-15.503631 0.113224-18.750741-3.566563-3.251153-3.679787 7.763947-19.959813 4.6705-23.773043-3.081316-3.809186 2.494977-14.096416-0.420548-18.043089-2.927655-3.938585-16.607567-0.084918-19.361342-4.148859-2.749731-4.059897 15.649205-21.334679 13.061223-25.523975-2.575851-4.169078-49.567948 17.545711-51.965875 13.259365-2.38984-4.286346 20.0326-22.539708 17.820684-26.923103-2.211916-4.371264 20.040688-19.919376 18.014783-24.391733-2.021861-4.464269-50.481829 10.889744-52.317679 6.332469-1.823719-4.5411-9.296518-8.269412-10.934225-12.899474-1.621533-4.613887 42.006187-24.492826 40.558535-29.195674-1.431478-4.678587-30.934475-1.362734-32.175899-6.134327-1.229292-4.735199-1.261641-10.315536-2.284703-15.11139-1.027105-4.791811 13.121879-12.685157 12.301004-17.521449-0.820876-4.820117-10.857394-8.342199-11.472041-13.227015-0.606558-4.848423-13.392808-8.94067-13.813355-13.849749-0.41246-4.868642 10.877613-11.015099 10.683514-15.93631-0.20623-4.876729-9.191381-10.036519-9.19138-14.973903 0-4.933341-13.603082-11.039362-13.400896-15.924179 0.210274-4.929297-3.356289-11.374991-2.947873-16.239588 0.420547-4.92121 13.639475-9.583622 14.250077-14.432045 0.610602-4.884817 5.305364-9.939469 6.130283-14.759586 0.824919-4.840336 34.201803-3.425033 35.224865-8.192582 1.031149-4.81203-13.093573-12.810512-11.868325-17.553798 1.237379-4.763505 6.081758-8.35433 7.501104-13.045048 1.435521-4.702849 3.938585-8.807227 5.560119-13.421114 1.637708-4.634106-27.464962-21.350854-25.641243-25.891954 1.83585-4.557275 0.970493-11.621658 2.98831-16.089971 2.025905-4.464269 29.915457 2.648638 32.127374-1.722626 2.220004-4.383395-22.337522-23.886267-19.95577-28.160482 2.401971-4.294433 53.158773 19.599922 55.730581 15.41467 2.579895-4.165034-0.109181-10.772476 2.632463-14.832374 2.757819-4.063941-10.432803-19.066151-7.509192-23.000692 2.923611-3.95476-14.161115-24.217853-11.079799-28.03917 3.093448-3.809186 42.394384 22.648888 45.637449 18.95697s-25.641243-37.105196-22.244516-40.643453c3.392683-3.538257 19.430086 4.537056 22.968343 1.144374 3.538257-3.404814 12.216085-1.512352 15.912047-4.763505 3.675744-3.243065 29.583872 20.93435 33.409233 17.836859 3.809186-3.081316-28.415236-52.426859-24.476651-55.350471 3.938585-2.931699 20.946481 11.556958 25.010423 8.819359 4.059897-2.749731 4.298477-11.96133 8.487773-14.541226 4.16099-2.579895 12.774119 1.815631 17.064508-0.590383 4.274214-2.393884 3.627219-14.779805 8.010613-17.003852 4.371264-2.207872 25.875779 31.969668 30.360267 29.943763 4.464269-2.021861-6.336513-39.030007-1.779238-40.85777 4.5411-1.823719 4.68263-17.715547 9.316737-19.345167 4.621975-1.62962 10.719908-2.369621 15.422756-3.805143 4.674543-1.431478 8.79914-9.458266 13.558601-10.695645 4.735199-1.241423 24.250202 59.810696 29.066276 58.775503 4.77968-1.031149 1.192898-43.300178 6.037277-44.125097 4.81203-0.820876 14.569531 33.437539 19.454348 32.806719 4.848423-0.602515 5.454981-39.612303 10.360016-40.016676 4.868642-0.420547 10.194224-4.391482 15.115434-4.6058 4.880773-0.210274 10.529853 23.890311 15.451063 23.890311s10.837176-30.356223 15.717949-30.154037c4.933341 0.218361 7.488974 40.352305 12.357615 40.756677 4.909079 0.420547 15.414669-48.888602 20.275223-48.273956 4.884817 0.606558-0.14153 68.015409 4.674543 68.828197 4.852467 0.824919 20.202436-54.113091 24.98616-53.085986 4.803942 1.031149 4.456182 25.972828 9.183293 27.210207 4.763505 1.237379 2.244266 26.106271 6.922853 27.537748 4.698805 1.439565 11.561002-6.538699 16.18702-4.909078 4.634106 1.637708 15.414669-13.813355 19.963857-11.985593 4.561319 1.83585 9.474441 3.141972 13.934667 5.163833 4.464269 2.025905 10.052694 2.163391 14.423957 4.379351 4.383395 2.220004 10.497503 1.819675 14.759587 4.221646 4.294433 2.401971 11.209198 1.233335 15.39445 3.793012 4.169078 2.587982 3.392683 13.489858 7.452581 16.247676 4.063941 2.757819 5.123396 9.846464 9.045806 12.749856 3.95476 2.931699 12.636632-0.117268 16.449863 2.955961 3.809186 3.08536-5.936184 21.977631-2.260441 25.216652 3.683831 3.247109 32.139505-20.246917 35.685849-16.846147 3.538257 3.392683 8.689959 6.534655 12.082642 10.072913 3.396727 3.542301-5.543943 19.292599-2.292791 22.972386 3.239022 3.679787-9.167118 20.339923-6.07367 24.169328 3.081316 3.81323-9.35313 18.386805-6.437606 22.325391 2.927655 3.942629 9.0822 4.027547 11.844062 8.091488 2.753775 4.059897 41.994056-15.762429 44.565863-11.585265 2.571807 4.165034-6.033234 15.390407-3.627218 19.668666 2.393884 4.278258 29.996332-4.035635 32.212291 0.34776 2.207872 4.371264-13.336196 18.257406-11.306247 22.725719 2.017817 4.464269-15.050734 17.12112-13.218928 21.678395 1.827762 4.5411 13.958929 5.030391 15.588549 9.672584 1.621533 4.617931 24.173372 2.935742 25.604849 7.638591 1.431478 4.678587-25.277308 17.723635-24.035885 22.483096 1.233335 4.731155 32.790544 2.7376 33.825737 7.541542 1.031149 4.787767-26.971628 15.628987-26.146708 20.473366 0.816832 4.81203-14.573575 11.544827-13.958929 16.429643 0.606558 4.848423 44.278759 5.240664 44.699306 10.1457 0.416503 4.868642-18.035001 11.53674-17.828772 16.449862 0.23858 4.913123 15.576418 10.004169 15.576418 14.929422z" fill="#FFE6FA" p-id="8861"></path><path d="M972.887094 681.561302c0 4.949516-19.996207 9.656409-20.323748 14.496744-0.331585 4.933341-8.524167 8.540341-9.183294 13.380677-0.667214 4.880773 28.124088 15.07904 27.141464 19.862764-0.998799 4.803942-26.765398 4.088203-28.075564 8.787008-1.322297 4.735199-14.739368 4.751374-16.373031 9.349086-1.637708 4.634106 13.368546 15.095215 11.411384 19.587791-1.953118 4.492575 9.531053 15.924178 7.290831 20.275223-2.264484 4.355089-30.983-6.247551-33.534588-2.074429-2.551589 4.181209 5.547987 14.58975 2.725468 18.597079-2.830606 4.003285 2.062298 14.027673-1.035192 17.820684-3.097491 3.793011-12.883299 1.985468-16.227458 5.564162-3.344158 3.582738 6.554874 21.152711 2.960005 24.513044-3.578694 3.344158-16.449862-2.810387-20.259049 0.270929-3.793011 3.089404-11.132367 1.734757-15.131609 4.565363-3.983066 2.822518 2.126998 22.155554-2.058254 24.707143-4.177165 2.547545-15.782648-6.453781-20.133693-4.177165-4.33487 2.252353-4.423832 15.220571-8.920452 17.177732-4.476401 1.936943-17.084727-15.467238-21.702657-13.821443-4.609843 1.621533-6.093889 13.392808-10.837176 14.735324-4.686674 1.310166-8.507992 9.25608-13.336196 10.25488-4.771592 0.986668-12.321222-11.322422-17.201994-10.655208-4.816073 0.655083-10.699689-13.692044-15.612812-13.360459-4.852467 0.31541-8.750615 20.323748-13.696088 20.323748-4.941429 0-9.531053-9.563403-14.399695-9.878813-4.92121-0.331585-12.72155 22.855118-17.54571 22.200035-4.880773-0.667214-7.743728-17.594236-12.527452-18.57686-4.807986-0.998799-12.381878 7.048208-17.092814 5.733998-4.735199-1.322297-11.755101 1.192898-16.364944-0.428634-4.634106-1.641751-5.09509-15.883741-9.567447-17.820684-4.504707-1.957162-5.600555-11.132367-9.931382-13.392808-4.355089-2.264484-11.755101 0.926012-15.924178-1.613446-4.189296-2.551589 1.997599-20.133693-1.985468-22.97643-3.999241-2.818474-19.328992 9.858595-23.138179 6.777279-3.793011-3.109622 8.079357-23.396977 4.500663-26.741135-3.586782-3.344158-18.948883 6.06154-22.293041 2.478801-3.340115-3.590825-8.172363-5.839135-11.26581-9.652365-3.093448-3.793011-18.95697 1.362734-21.799707-2.628419-2.822518-3.991154 0.942187-13.360458-1.601314-17.537624-2.547545-4.173121 8.791052-16.231501 6.522524-20.58659-2.260441-4.322739-19.066151-1.783282-21.019268-6.304163-1.936943-4.476401 9.243949-14.290515 7.598154-18.920576-1.625576-4.613887 12.216085-13.194666 10.8857-17.929865-1.306122-4.686674-4.233777-7.614329-5.232576-12.422315-0.986668-4.783723-3.623175-8.03892-4.294433-12.919692-0.655083-4.824161 3.141972-8.847664 2.810387-13.760787-0.327542-4.852467-40.655584-8.330068-40.655584-13.263409 0-4.933341 35.467488-8.730396 35.803117-13.582864 0.331585-4.92121-26.599605-12.414227-25.944522-17.254562 0.667214-4.868642 0.667214-10.679471 1.653882-15.438932 0.998799-4.816073 16.538824-6.433562 17.853034-11.132368 1.318253-4.735199-17.776203-16.542868-16.142539-21.144623 1.645795-4.634106 41.112524 5.746129 43.057555 1.265685 1.949074-4.504707-15.147784-17.274782-12.891387-21.625827 2.272572-4.347001-8.867883-16.866366-6.320338-21.027356 2.551589-4.189296 23.663863 3.437164 26.482337-0.574208 2.830606-3.999241-6.20307-17.141339-3.11771-20.934351 3.105579-3.797055 21.063749 5.454981 24.407908 1.876288 3.344158-3.582738-14.913248-29.232068-11.334554-32.584314 3.578694-3.344158 27.739935 16.385163 31.545078 13.287671 3.793011-3.101535 5.729954-7.630504 9.725152-10.453022s3.137928-12.584064 7.327225-15.135653c4.173121-2.543501 16.073796 9.632146 20.432928 7.359575 4.326783-2.252353-1.172679-24.488782 3.319896-26.449987 4.480444-1.936943 11.201111 0.9341 15.819042-0.711696 4.609843-1.625576 6.967333-11.78745 11.702532-13.109747 4.694762-1.302079 11.007012 1.431478 15.823085 0.428634 4.771592-0.986668 12.381878 15.374232 17.262651 14.711062 4.820117-0.655083 7.088645-28.726603 12.013899-29.058188 4.852467-0.327542 10.869525 23.255447 15.802866 23.255447s10.845263-21.904844 15.69773-21.577303c4.92121 0.331585 9.35313 11.601439 14.17729 12.252479 4.880773 0.655083 12.907561-12.567889 17.683198-11.581221 4.816073 0.994756 0.20623 40.461485 4.896948 41.775695 4.743286 1.322297 21.144624-34.472732 25.734248-32.839068 4.634106 1.641751-0.056612 27.83294 4.427876 29.77797 4.504707 1.949074 11.492259-2.021861 15.819042 0.234536 4.359133 2.264484 5.733998 9.247993 9.907119 11.795538 4.189296 2.551589 0.363935 15.661336 4.359133 18.487898 3.995198 2.814431 6.655967 5.188096 10.453022 8.289631 3.797055 3.097491 18.985276-7.978264 22.568014-4.634106a213.763291 213.763291 0 0 1 10.343841 10.279142c3.344158 3.590825 16.749098-1.152461 19.834458 2.636507 3.093448 3.793011 4.132684 10.024388 6.971377 14.023629 2.822518 3.995198 15.471281 2.713338 18.026914 6.902634 2.551589 4.173121-2.252353 13.732481 0.020219 18.095657 2.256397 4.322739-11.176848 16.332594-9.203512 20.82517 1.936943 4.480444-8.564604 12.964174-6.922853 17.606367 1.633664 4.601756 36.923228-1.560877 38.245526 3.186453 1.310166 4.68263-8.443292 12.863081-7.444493 17.679154 0.982625 4.775636 13.174447 8.390724 13.841661 13.271496 0.655083 4.824161-7.222088 11.379034-6.894546 16.304288 0.359891 4.864598 9.611928 10.291273 9.611928 15.224615z" fill="#ECFF9E" opacity=".65" p-id="8862"></path><path d="M857.159806 343.910492c0 4.896948 22.309216 10.024388 21.953368 14.828329-0.359891 4.876729-17.100901 7.561761-17.800465 12.345485-0.731914 4.820117 29.838627 15.766473 28.754909 20.473365-1.087761 4.759461-39.36968-0.432678-40.809245 4.177166-1.431478 4.658368 18.617297 16.21937 16.838059 20.724076-1.779238 4.533013-21.848231 0.549946-23.959054 4.913123-2.110823 4.383395-2.640551 8.285587-5.070828 12.478927-2.442408 4.213559 8.689959 16.348769 5.968534 20.356098-2.745687 4.015416 4.379351 16.01314 1.350603 19.806151-3.032792 3.793011-3.522082 11.370947-6.825803 14.917292-3.299677 3.558476-7.824603 7.856952-11.374991 11.160673-3.558476 3.303721-8.067226 7.638591-11.872368 10.66734-3.793011 3.028748-29.232068-23.166485-33.26366-20.436973-3.995198 2.745687-3.865798 10.052694-8.075313 12.499146-4.19334 2.426233-9.971819-0.327542-14.359258 1.775194-4.359133 2.106779-4.363176 11.981549-8.896189 13.760787-4.496619 1.767107-1.188854 27.145508-5.839135 28.568898-4.630062 1.431478-12.212041-4.05181-16.955327-2.955961-4.710936 1.071586-14.5574-26.611736-19.381561-25.88791-4.775636 0.711695-6.603398 22.988561-11.480128 23.340365-4.803942 0.351804-9.903076-10.651164-14.800023-10.651165s-8.41903-10.347885-13.227016-10.699689c-4.880773-0.363935-12.495102 26.842228-17.266694 26.12649-4.832248-0.723826-8.059138-11.751057-12.770075-12.826687-4.759461-1.087761-13.975104 12.458708-18.601122 11.035318-4.654324-1.431478-2.442408-23.49807-6.934984-25.25709-4.533013-1.779238-10.574334 0.707651-14.933466-1.411259-4.383395-2.106779-9.458266-2.765906-13.65565-5.192139-4.209515-2.438365-1.285904-15.309533-5.297277-18.05522-4.015416-2.741644-7.036077-5.252795-10.837175-8.2775-3.793011-3.032792-12.070511 0.14153-15.628987-3.16219-3.566563-3.29159 3.590825-16.069752 0.274973-19.628228-3.29159-3.558476-34.933717 17.278825-37.966508 13.485813-3.020661-3.793011-1.928856-12.110948-4.654325-16.12232-2.733556-3.999241 4.245908-14.743411 1.807544-18.95697-2.430277-4.19334 6.619573-14.051935 4.496619-18.43533-2.106779-4.359133-9.373348-5.79061-11.16876-10.327667-1.77115-4.500663 3.461426-10.768432 2.029948-15.418713-1.427434-4.630062-20.914132-4.213559-21.989762-8.977063-1.071586-4.710936-11.565046-8.536298-12.288872-13.376634-0.715739-4.775636 12.725594-11.844063 12.373791-16.724835-0.351804-4.803942 3.251153-9.81007 3.251152-14.711061 0-4.896948 0.865357-9.563403 1.221204-14.375433 0.363935-4.876729 5.426675-8.847664 6.146458-13.615213 0.72787-4.824161-18.095657-13.542426-17.02407-18.249319 1.091805-4.763505 4.403614-9.858595 5.82296-14.468438 1.431478-4.658368 27.602448-0.501422 29.377642-5.002084 1.775194-4.533013-16.894672-17.683198-14.779805-22.038287 2.106779-4.387439 20.230743-0.157705 22.66102-4.347001 2.438365-4.213559 4.30252-7.860996 7.036076-11.876413 2.749731-4.011372-13.910405-22.56397-10.881656-26.352938 3.032792-3.797055 30.821251 13.918492 34.120928 10.360017 3.295634-3.558476 5.920009-5.871485 9.478485-9.17925 3.562519-3.303721 1.152461-11.880456 4.957604-14.913247 3.793011-3.028748-6.696404-25.612937-2.689076-28.362669 4.003285-2.733556 10.024388-4.092247 14.237947-6.526567 4.19334-2.426233 8.338155-7.052252 12.72155-9.171162 4.363176-2.106779 8.568647-7.553673 13.10166-9.336955 4.496619-1.77115 18.629429 23.194791 23.295884 21.771401 4.630062-1.431478 4.68263-19.328992 9.442092-20.41271 4.706893-1.079674 10.764389 3.40077 15.592593 2.6729 4.771592-0.715739 9.017501-9.858595 13.902317-10.214442 4.803942-0.351804 10.360016 20.61894 15.248877 20.618939s9.191381-4.100334 14.00341-3.744486c4.880773 0.359891 7.747772 10.246792 12.531495 10.958487 4.820117 0.719783 8.694003-0.181968 13.404939 0.885575 4.759461 1.095849 12.143298-10.323623 16.765273-8.900233 4.650281 1.431478 8.281543 4.989953 12.774119 6.765148 4.537056 1.77115 10.024388 0.772351 14.391607 2.891261 4.387439 2.106779 2.317053 15.168002 6.502306 17.594236 4.217602 2.442408 21.294241-15.802867 25.297526-13.061223 4.003285 2.745687 4.630062 11.023187 8.410942 14.047891 3.793011 3.032792 2.664813 11.848106 6.223289 15.151827 3.566563 3.295634 0.254755 12.677069 3.562519 16.235545 3.29159 3.558476 14.318821-0.181968 17.351613 3.623175 3.020661 3.793011 22.830856-3.983066 25.568456 0.03235 2.745687 4.003285-10.501547 18.928664-8.063183 23.142223 2.434321 4.19334 6.413344 7.666897 8.520123 12.050292 2.106779 4.355089-5.341757 12.656851-3.566563 17.189864 1.77115 4.500663 5.074871 7.917608 6.494218 12.567888 1.431478 4.630062-0.800657 9.632146 0.27093 14.395652 1.071586 4.710936 25.940478 5.155746 26.664304 9.996081 0.719783 4.775636-19.967901 12.260566-19.612053 17.141339 0.384154 4.848423-11.601439 9.211599-11.601439 14.108547z" fill="#FF7F00" opacity=".14" p-id="8863"></path><path d="M378.856204 1017.934295v-0.016175l49.596254-0.25071 18.690084-8.156188v7.62646h27.642886v-51.678771h-26.017309s-1.97738 33.955136-26.834141 23.720475c-40.311867-16.595436-46.33297 17.788334-46.33297 17.788334s-1.52044 10.966575 3.255196 10.966575z" fill="#7B7B9C" p-id="8864"></path><path d="M378.856204 1023.999879a8.588866 8.588866 0 0 1-6.562961-2.992355c-3.708093-4.25804-3.121754-11.8198-2.697163-14.87281 1.686232-9.66854 10.606684-27.545836 32.511527-27.545836 6.660011 0 14.108547 1.678145 22.13938 4.981865 2.361534 0.970493 4.492575 1.463827 6.328425 1.463828 10.598596 0 12.131167-19.745496 12.143298-19.947682l0.355848-5.685474 37.780497-0.012131v63.809938h-39.774052v-4.427876l-11.346685 4.949516-50.878114 0.279017z m23.24736-33.279835c-16.80571 0-20.202436 15.5562-20.534022 17.32735a20.79282 20.79282 0 0 0-0.101093 3.793012l45.702149-0.234536 26.033484-11.36286v10.825045h15.511719v-39.547604h-14.577619c-2.029949 11.419472-8.532254 25.645287-23.570857 25.645287-3.429076 0-7.108864-0.800657-10.946356-2.381753-6.554874-2.693119-12.446577-4.063941-17.517405-4.063941z" fill="#6E6E96" p-id="8865"></path><path d="M626.505887 1017.934295v-0.016175l-49.592209-0.25071-18.698172-8.156188v7.62646h-27.638842v-51.678771h26.021353s3.655525 37.626836 26.826053 23.720475c38.827821-23.283753 46.33297 17.788334 46.33297 17.788334s4.876729 10.966575-3.251153 10.966575z" fill="#7B7B9C" p-id="8866"></path><path d="M626.505887 1023.999879l-6.065583-0.048525-44.804443-0.230492-11.354772-4.949516v4.427876h-39.770008v-63.809938h37.590442l0.533771 5.4752c0.448853 4.496619 3.691918 21.326591 11.310291 21.326591 1.767107 0 3.902192-0.748089 6.356732-2.220003 8.859796-5.313451 17.108989-8.00657 24.513044-8.00657 19.68484 0 28.621466 18.722434 30.768683 29.223981 1.112024 2.749731 3.182409 9.345042-0.036394 14.298602-1.087761 1.686232-3.720224 4.512794-9.041763 4.512794z m-48.31035-12.389965l46.773736 0.238579a13.578819 13.578819 0 0 0-0.756176-2.414102l-0.424591-1.374866c-0.149618-0.796613-3.958804-19.959813-18.969101-19.959813-5.175965 0-11.326466 2.110823-18.277625 6.279901-4.363176 2.616288-8.600997 3.950717-12.596195 3.950717-13.732481 0-20.27118-14.981991-22.576101-26.805835h-14.727237v39.547604h15.507675v-10.825045l26.045615 11.36286z" fill="#6E6E96" p-id="8867"></path><path d="M275.328827 598.838875s-24.614137 5.976622-29.76584 21.17293c-5.143615 15.212483-22.325391 43.97548 11.290073 14.161115 0 0-15.192265 50.46161-5.353889 53.267954 9.84242 2.810387 21.31446-36.619949 21.31446-36.619949s-14.254121 35.888035-1.62962 40.222905c12.624501 4.318695 18.095657-43.089905 18.095658-43.089904s-3.627219 38.70651 2.058254 40.663671c5.68143 1.949074 25.463319-61.359442 17.424399-77.983184-8.051051-16.619699 4.969735-23.469764 4.969735-23.469764l-24.363427-10.145699-14.039803 21.819925z" fill="#E3B8A8" p-id="8868"></path><path d="M272.793413 697.388431a11.079799 11.079799 0 0 1-3.574651-0.602515c-3.679787-1.261641-6.26777-3.756618-7.759903-7.456624-3.449295 3.570607-6.417387 4.318695-8.936626 4.318696-0.909838 0-1.811588-0.125355-2.689075-0.376067-1.686232-0.481203-4.05181-1.690276-5.705692-4.719023-3.894105-7.120995-1.261641-23.934792 2.106779-38.261701-3.667656 2.288747-6.008971 2.939786-8.010614 2.939786h-0.004044a7.456624 7.456624 0 0 1-6.328425-3.311808c-3.05301-4.593669-0.671258-10.825045 4.165034-22.345609 1.39104-3.315852 2.826562-6.740885 3.760662-9.502748 5.200227-15.337839 24.525176-22.35774 31.670433-24.468563l12.770074-19.862764a6.057496 6.057496 0 0 1 7.432362-2.317053l24.363427 10.145699a6.065583 6.065583 0 0 1 0.493334 10.966575c-1.742844 0.994756-7.31105 5.180008-2.333228 15.455107 8.503948 17.586148-7.432362 69.649072-14.674668 81.189855-0.950275 1.516396-3.477601 5.547987-7.937827 5.547987-0.671258 0-1.601314-0.153661-2.236178-0.372022-1.484046-0.509509-3.493776-1.200986-5.046566-4.949516-3.036835 4.852467-6.821759 7.982308-11.524608 7.982308z m2.046123-33.449671c-3.974979 14.064066-2.806343 19.603966-2.013773 20.99905 3.631263-3.408858 8.455423-20.639158 10.428759-37.679404a6.033234 6.033234 0 0 1 6.655967-5.33367 6.06154 6.06154 0 0 1 5.406457 6.595311 257.807514 257.807514 0 0 0-1.120111 23.295884c6.328425-17.808553 13.485814-49.466855 9.098375-58.540967-5.038478-10.400454-3.554432-18.463636-0.202186-23.967142l-11.374991-4.739243-11.286029 17.549755a6.053452 6.053452 0 0 1-3.6717 2.612245c-5.944272 1.459784-22.127248 7.408099-25.455231 17.226256-1.071586 3.166235-2.592026 6.793453-4.063941 10.303405-0.408416 0.974537-0.885575 2.110823-1.370822 3.295633a199.945892 199.945892 0 0 0 6.959246-5.924053 6.065583 6.065583 0 0 1 9.834333 6.283945c-5.204271 17.286913-8.62526 35.269346-8.467555 43.239522 1.965249-2.664813 5.09509-8.095532 9.098375-18.977189a135.141198 135.141198 0 0 1 3.881974-11.601439 6.069627 6.069627 0 0 1 11.463952 3.934542c-0.0647 0.214317-1.500221 5.131484-3.801099 11.427559z" fill="#6E6E96" p-id="8869"></path><path d="M348.398888 629.542858l38.670116 214.984495 14.872811 115.254172s4.241865 11.609527 38.476017 13.089529c11.496302 0.505465 34.505082 1.431478 45.621275-8.265368v-401.108944l-137.640219 66.046116z" fill="#8D8DB3" p-id="8870"></path><path d="M451.081128 979.223742c-4.148859 0-7.925696-0.157705-10.934225-0.287104-36.429894-1.581095-42.964549-14.496744-43.902693-17.072596l-0.319454-1.302078-14.87281-115.254173-39.442468-219.234446 150.495212-72.212793v413.506996l-2.078473 1.815632c-7.751816 6.753016-20.489541 10.040562-38.945089 10.040562z m-43.288047-21.500471c1.475959 1.738801 8.471598 8.034876 32.887593 9.090287 2.862955 0.125355 6.457824 0.279017 10.400454 0.279017 13.417071 0 23.113917-1.852025 28.892395-5.511593v-388.444006l-124.785225 59.87944 37.853284 210.439351 14.751499 114.267504z" fill="#6E6E96" p-id="8871"></path><path d="M473.305425 711.966049l37.169896 252.983353s23.789218 15.5562 69.883608 0l10.412585-130.147201 34.205846-174.648365-151.684066-17.772159 0.012131 69.584372z" fill="#8D8DB3" p-id="8872"></path><path d="M541.7616 977.933795c-0.004044 0-0.004044 0 0 0-22.260691-0.004044-34.108797-7.581979-34.602132-7.901434l-2.284703-1.496177-37.634923-256.566091-0.008087-76.398045 164.959606 19.320905-35.398745 180.742255-10.703733 133.786551-3.788967 1.273773c-14.217728 4.803942-27.857203 7.238263-40.538316 7.238263z m-25.730205-16.927022c3.81323 1.722626 12.482971 4.795855 25.726161 4.795855h0.004044c10.246792 0 21.294241-1.807544 32.879506-5.374107l10.186136-126.786868 32.944205-168.222891-138.408526-16.21937 0.008088 62.321848 36.660386 249.485533z" fill="#6E6E96" p-id="8873"></path><path d="M271.022262 583.201801l24.618182 13.255322 22.867249 2.644594 84.83325-226.019813L451.643205 252.287833c-40.47766 11.8198-69.883608 39.106838-101.962457 67.667648 0.012131 0.028306-72.944706 101.384205-78.658486 263.24632z" fill="#8D8DB3" p-id="8874"></path><path d="M322.519066 605.67681l-28.730647-3.32394-28.961139-15.592593 0.133443-3.768749c5.200227-147.345152 66.199777-246.121156 77.894222-263.763917l-0.384154-0.958362 7.189738-6.405256c30.954694-27.606492 60.190806-53.680413 100.288357-65.391033l11.957286-3.489732-52.932324 132.359117-86.454782 230.334465z m-25.026598-15.107347l17.003853 1.965249 83.167236-221.579806 43.449795-108.654817c-31.573384 12.40614-56.822385 34.925629-83.381553 58.613754l-3.477601 3.101535c-5.99684 8.685915-70.720659 105.727163-77.024822 255.640079l20.263092 10.914006z" fill="#6E6E96" p-id="8875"></path><path d="M333.667608 608.212223l-4.864598 32.378085 38.819734 22.00998 64.699556 14.24199 38.823778-117.842155L433.042083 248.203673l-35.224865 125.614189z" fill="#8D8DB3" p-id="8876"></path><path d="M436.370066 683.93901l-70.943063-15.612811-43.243566-24.513045 5.632905-37.198201 64.14961-234.394361 35.232952-125.650583 11.860238 0.897707 38.269787 312.143009-40.958863 124.328285z m-66.551581-27.064633l58.456049 12.867124 36.684649-111.347936-34.254372-279.396947-27.048458 96.458951-64.044473 234.014252-4.19334 27.89764 34.399945 19.506916z" fill="#6E6E96" p-id="8877"></path><path d="M488.392553 685.912347l70.457817 1.293991 66.135078-31.088137-1.298035-152.79609-61.961956-240.864317s-69.006121 71.22208-112.14455 231.802336c-0.008087-0.008087-18.698172 41.431978 38.811646 191.652217z" fill="#8D8DB3" p-id="8878"></path><path d="M560.152449 693.296184l-75.961323-1.395084-1.463828-3.821318c-49.2121-128.545887-44.274715-181.635917-38.742903-195.323917l-0.262842-0.072787c43.049467-160.256757 110.785859-231.495013 113.648815-234.450974l7.533454-7.772034 64.849174 252.809473 1.330385 156.682107-70.930932 33.344534z m-67.550381-13.376634l64.946224 1.196942 61.343266-28.835783-1.261641-148.170072-58.884684-228.882768c-18.754784 23.206922-69.357924 94.206598-103.309016 220.601225l-1.063499 3.651481c-2.490933 11.383078-7.666897 59.280969 38.22935 180.438975z" fill="#6E6E96" p-id="8879"></path><path d="M421.760098 255.041607s-23.934792 85.815874 31.253929 225.88637c0 0 42.010231-121.732215 107.858204-218.017286 65.860105-96.293158 0 0 0 0L421.760098 255.041607" fill="#FFFFFF" p-id="8880"></path><path d="M453.139382 486.763069l-2.00973-5.09509c-54.800524-139.091915-31.561252-226.306917-31.318629-227.172274l0.436722-1.568964 139.593337 7.897389 20.513803-29.992288 2.401971-3.513994c3.307765-4.840336 5.636949-8.237062 5.705692-8.346243l0.137487 0.093005c0.820876-0.982625 1.083718-0.982625 1.536614-0.982624h1.221204l0.570165 1.079674c0.17388 0.327542 0.291148 0.55399-0.424591 1.884374l0.30328 0.20623c-0.076831 0.105137-2.373665 3.469514-8.111707 11.860238l-14.601881 21.354897-5.693561 8.32198-0.857269 1.257598c-64.946223 94.962774-107.199077 216.322967-107.615581 217.536083l-1.787326 5.180009z m-29.814364-229.606595c-2.773993 12.123079-18.26145 93.312935 29.608135 217.997068 7.69116-21.128449 39.066401-103.891313 85.314452-180.669467a2.021861 2.021861 0 1 1 0.113224-0.194099 684.440432 684.440432 0 0 1 18.827571-29.55961l-133.863382-7.573892z" fill="#6E6E96" p-id="8881"></path><path d="M430.086122 265.696816l35.03481 36.510768s-21.371072 20.06495-45.592969 30.170212c-1.152461-41.452197 7.060339-37.736016 10.558159-66.68098z" fill="#FFFFFF" p-id="8882"></path><path d="M413.705003 341.379122l-0.246667-8.83149c-0.731914-26.356982 2.276616-35.499838 5.459025-45.180509 1.892462-5.758261 3.853667-11.71062 5.139571-22.394134l1.532571-12.709419 48.144557 50.174506-4.468313 4.197384c-0.905794 0.849182-22.462877 20.93435-47.412644 31.342891l-8.1481 3.400771z m20.343967-62.79092c-1.144373 5.078915-2.42219 8.964932-3.602957 12.563845-2.547545 7.747772-4.799898 14.58975-4.957603 31.723002 13.174447-6.858153 24.739493-15.90396 30.857644-21.047575l-22.297084-23.239272z" fill="#6E6E96" p-id="8883"></path><path d="M561.717369 262.449707S505.060776 307.646391 457.183105 302.207584l34.792186 39.236237c0.016175 0 56.80621-22.665063 69.742078-78.994114z" fill="#FFFFFF" p-id="8884"></path><path d="M491.979335 347.509405h-2.729513L442.152589 294.395113l15.717949 1.787325c2.426233 0.274973 4.965691 0.416503 7.537498 0.416503 43.199085 0 92.039163-38.50028 92.528453-38.888477l13.570732-10.812913-3.881974 16.91489c-13.320021 58.007196-72.103612 83.696964-75.645912 83.696964z m-21.059706-38.957221l22.620583 25.511844c10.784607-5.277058 41.747389-22.80255 56.567631-55.965116-17.865165 11.617614-48.734941 28.56081-79.188214 30.453272z" fill="#6E6E96" p-id="8885"></path><path d="M458.226385 493.762752c-13.408983-35.520056-41.120612-117.462045-41.165093-188.611338l-16.684398 21.771401-11.904718 22.288997s30.914257 98.731523 67.991146 148.671493l1.763063-4.120553z" fill="#8D8DB3" p-id="8886"></path><path d="M457.890756 509.974034l-6.296075-8.479685c-37.262901-50.186637-67.639342-146.402965-68.913115-150.47095l-0.76022-2.426233 13.643519-25.362226 27.54988-35.952735 0.012131 17.869209c0.044481 70.943064 28.528461 154.037513 40.772851 186.472209l0.861313 2.280659-6.870284 16.069752zM395.031093 349.806239c3.841536 11.815756 21.573258 64.784475 44.517339 108.739736-11.763188-36.708911-25.261133-87.890304-28.03917-136.176392l-6.017059 7.852909-10.46111 19.583747z" fill="#6E6E96" p-id="8887"></path><path d="M561.717369 262.449707v51.144999l-22.652932 20.400579-31.253929 9.041763c0.004044 0.012131 31.985843-60.837802 53.906861-80.587341z" fill="#8D8DB3" p-id="8888"></path><path d="M511.26789 349.486785l-4.156946-0.420547-0.55399-6.696404-4.092247-2.18361c3.388639-6.401212 33.510326-62.710045 55.196809-82.245268l10.12548-9.118593V316.299956l-25.693811 23.138179-30.117643 8.714222-0.707652 1.334428z m44.383896-71.448529c-12.943955 16.18702-27.226382 40.417004-35.495794 55.119978l15.887785-4.597712 19.612053-17.658935v-32.863331z" fill="#6E6E96" p-id="8889"></path><path d="M550.221067 359.571828L446.709864 520.807166s-6.461868-50.538441 61.104687-177.757987l31.25393-9.041763 11.152586 25.564412z" fill="#8D8DB3" p-id="8890"></path><path d="M442.807672 538.114298l-2.110823-16.538824c-0.274973-2.143173-5.928097-53.914949 61.763814-181.373075l1.205029-2.268529 38.835909-11.237504 14.573575 33.421365-114.267504 177.996567z m69.163826-189.953854c-40.307824 76.341433-53.40544 124.122055-57.542168 149.391276l88.933584-138.529838-7.727553-17.711504-23.663863 6.850066z" fill="#6E6E96" p-id="8891"></path><path d="M421.747966 260.01943s-28.746822 18.443417-38.322356 44.98641c0 0-3.315852 17.222213 36.215577 40.222905 0.008087 0.004044-0.978581-56.074297 2.106779-85.209315" fill="#8D8DB3" p-id="8892"></path><path d="M419.216596 351.997936l-2.620332-1.524483c-42.038537-24.460476-39.54356-44.416245-39.123013-46.611987l0.250711-0.909837c10.153787-28.156438 39.507167-47.23472 40.752633-48.035377l10.639033-6.825803-1.334428 12.567889c-2.866999 27.052502-2.163391 78.525043-2.074429 84.307565l0.064699 4.088204-6.554874 2.943829z m-29.822451-45.637449c0.088962 1.621533 1.443609 12.507233 24.072278 27.845071-0.088962-14.694887-0.03235-40.522141 1.168636-61.088512-8.483729 7.302962-19.911288 19.102544-25.240914 33.243441z" fill="#6E6E96" p-id="8893"></path><path d="M688.382926 472.238018l-21.763314 166.985512-22.952167-1.229292h-23.000692l-8.621216-7.767991 11.641876-126.912223-47.711879-134.401197-14.250077-106.467164s20.129649 28.488023 62.548296 56.333095c-0.008087 0 60.760971 61.666765 64.109173 153.45926z" fill="#8D8DB3" p-id="8894"></path><path d="M671.904757 645.580261l-28.56081-1.528527-25.010422 0.008087-12.608326-11.362859 11.799581-128.610587-47.477343-133.746114-14.334995-107.093941 10.962531-4.310608c0.194099 0.274973 20.101343 27.970427 60.922719 54.764131l1.019019 0.841094c2.551589 2.612245 62.451247 65.010923 65.823711 157.466589l0.020218 0.505465-0.068743 0.501422-22.48714 172.565848z m-48.90882-13.651606h20.671508l17.662979 0.938143 20.970743-160.91184c-3.283502-84.566364-56.155171-142.411811-61.929606-148.485482-22.996649-15.163959-39.478861-30.412835-49.899533-41.399629l11.431603 85.411502 47.942371 135.060324-0.117268 1.330385-11.366903 123.883475 4.634106 4.173122z" fill="#6E6E96" p-id="8895"></path><path d="M637.529074 509.832504h-9.692802a6.065583 6.065583 0 1 1 0-12.131167h9.692802a6.065583 6.065583 0 1 1 0 12.131167z" fill="#6E6E96" p-id="8896"></path><path d="M654.993911 639.22353l-36.276233 49.297018 1.949075-50.52631z" fill="#E3B8A8" p-id="8897"></path><path d="M618.717678 694.586131a6.065583 6.065583 0 0 1-6.061539-6.300119l1.94503-50.52631a6.081758 6.081758 0 0 1 6.279901-5.827004l34.327158 1.229292a6.069627 6.069627 0 0 1 4.666456 9.656409l-36.276233 49.297018c-1.160548 1.589183-2.992354 2.470714-4.880773 2.470714z m7.776078-50.311992l-0.954318 24.743536 17.768116-24.145065-16.813798-0.598471z" fill="#6E6E96" p-id="8898"></path><path d="M623.780419 71.270605l-0.004044 0.056612c-28.678078-46.745429-81.808545-39.689134-81.808545-39.689134l36.672517 212.962634s60.550697-39.240281 62.503815-103.875138c5.054653 8.76679 7.488974 16.280026 7.488974 16.280026 8.067226-43.979523-24.852717-85.735-24.852717-85.735z" fill="#7B7B9C" p-id="8899"></path><path d="M574.220558 254.689804l-39.30498-228.235773 6.251595-0.828963c0.129399-0.016175 3.307765-0.432678 8.394767-0.432678 15.863522 0 55.184678 4.144815 79.018377 42.374165 1.8682 2.385796 34.41612 44.739743 26.017309 90.534898l-9.349086 0.622734c-10.740126 56.276483-60.963157 89.45118-63.308516 90.97162l-7.719466 4.993997zM549.100956 37.323557l33.837868 196.496596c15.774561-12.745813 50.716365-46.19144 52.143798-93.280585l0.642952-21.354898 7.383837 12.806469c-2.163391-16.591392-8.819358-31.617864-14.585706-42.066843l-0.044481 0.610602-9.870726-16.033359c-20.58659-33.550764-55.140197-37.173939-69.042514-37.173939a5.960447 5.960447 0 0 0-0.465028-0.004043z" fill="#6E6E96" p-id="8900"></path><path d="M619.190794 172.189782c-8.807227 46.668599-28.65786 101.50956-136.265353 80.029307-59.220313-11.815756-82.309967-49.70139-85.229535-101.254805-3.11771-55.124022 32.107155-155.768226 107.538751-143.940338 95.456108 14.977947 123.580196 114.125974 113.956137 165.165836z" fill="#7B7B9C" p-id="8901"></path><path d="M526.634035 263.084571c-13.437289 0-28.540592-1.653882-44.893405-4.917166-56.409926-11.253679-86.721668-47.206414-90.098176-106.859405-2.098692-37.084977 11.904718-91.683315 42.717882-124.287848 20.186262-21.354897 44.687175-30.230868 71.816508-25.984959 37.715798 5.915966 69.167869 25.378401 90.967576 56.276483 27.194032 38.544761 33.659944 86.038279 28.010864 116.006304-8.378593 44.387939-26.635999 89.766591-98.521249 89.766591zM493.220758 12.131167c-18.649647 0-35.483663 7.812471-50.045107 23.219053-28.156438 29.790102-41.326842 81.626578-39.426292 115.270347 3.069185 54.181835 29.35338 85.472158 80.360892 95.646163 15.576418 3.109622 29.879064 4.686674 42.51974 4.686674 62.859663 0 78.767666-38.399187 86.600356-79.891821 5.006128-26.567255-0.990712-71.311042-26.005178-106.762355-19.85872-28.152394-48.540842-45.88816-82.936744-51.282486A71.66689 71.66689 0 0 0 493.220758 12.131167z" fill="#6E6E96" p-id="8902"></path><path d="M583.913361 226.12495s-25.184302-51.682814-4.961647-85.929099c13.821443-23.401021-3.683831-47.719967-16.154671-60.765014-2.15126-1.62962-7.921652-8.742528-10.752257-8.97302-118.853085-9.159031-105.343009-22.66102-138.525794 20.930306-46.672642 61.30283-18.063307 171.668142 32.891637 202.901853 34.501038 21.144624 92.657852 7.327225 145.343509-76.956079 7.048208-11.281985 12.947999-22.382003 16.785491-33.486064-2.571807 12.907561-24.626269 42.277116-24.626268 42.277117z" fill="#E3B8A8" p-id="8903"></path><path d="M478.465215 309.13448c-12.713463 0-24.893154-3.344158-35.224865-9.676627-26.623867-16.320463-48.144557-53.045549-56.159215-95.848349-8.358374-44.63865-0.481203-86.883417 21.609652-115.901168l2.426234-3.190497c15.867566-20.893913 22.434571-29.547479 43.170779-29.547478 8.051051 0 18.54451 1.233335 33.06956 2.939786 15.455107 1.811588 36.619949 4.298477 65.152454 6.494218 3.926454 0.319454 7.181651 3.368421 11.710619 7.982307 0.921969 0.938144 1.706451 1.779238 2.252354 2.207873l0.711695 0.634864c22.794462 23.841787 28.827696 48.011115 16.995764 68.043715-13.324065 22.559927-4.630062 54.497245 1.180767 70.401205 4.01946-5.814873 9.154987-13.611169 12.863081-20.570416 1.799456-3.861755 3.344158-7.646679 4.589625-11.249635l11.682313 3.170278c-0.703608 3.53017-2.470714 7.945914-5.4105 13.497945-3.186453 6.797497-7.173563 13.999367-12.179692 22.014024-48.189038 77.089521-94.889987 88.597955-118.440625 88.597955z m-24.177415-242.028909c-14.306689 0-17.388006 3.522082-33.506283 24.751624l-2.438365 3.202628c-20.016425 26.292282-27.064633 65.043273-19.33708 106.317546 7.290831 38.937002 27.141464 73.377384 50.570791 87.736642 8.544385 5.232577 18.26145 7.889302 28.888352 7.889303 32.665189 0 68.346994-25.155996 99.3583-69.58033-4.023504-8.811271-24.080366-56.466538-4.096291-90.312493 11.803625-19.980032-4.217602-41.795913-15.04669-53.207298-0.913881-0.76022-1.912681-1.779238-3.125798-3.024704-1.184811-1.209073-3.538257-3.611044-4.751373-4.435963-28.374799-2.199785-49.442592-4.674543-64.861305-6.486131-14.116634-1.653882-24.314902-2.850824-31.654258-2.850824z" fill="#6E6E96" p-id="8904"></path><path d="M594.536219 206.686777c-7.925696 13.696087-16.70866 22.256647-5.68143 29.094581 11.011056 6.829847 26.369113 1.265685 34.286722-12.422315 7.933783-13.704175 5.430719-30.352179-5.592468-37.194157-11.011056-6.837934-15.07904 6.813672-23.012824 20.521891z" fill="#EDC0AF" p-id="8905"></path><path d="M599.243112 244.770553a25.730205 25.730205 0 0 1-13.586907-3.833449c-4.233777-2.624376-6.829847-5.915966-7.715422-9.773677-1.581095-6.874328 2.503064-13.332152 7.230175-20.804951 1.322297-2.090604 2.733556-4.314652 4.120553-6.708535 1.366778-2.361534 2.612245-4.723068 3.801099-6.975421 5.006128-9.458266 9.737283-18.394893 19.025714-18.394892 2.806343 0 5.709736 0.921969 8.629303 2.733556 13.756743 8.544385 17.18582 28.900483 7.642635 45.386739-6.554874 11.326466-17.723635 18.37063-29.14715 18.37063z m12.871168-54.359759c-1.981424 0-5.940228 7.472799-8.301762 11.941112-1.261641 2.377709-2.583939 4.876729-4.031591 7.37575a203.585242 203.585242 0 0 1-4.359133 7.112907c-2.725469 4.30252-6.114108 9.660453-5.661211 11.605483 0.125355 0.558034 0.982625 1.370822 2.288747 2.18361 2.147217 1.334428 4.569406 2.00973 7.189738 2.00973 6.999683 0 14.318821-4.832248 18.64156-12.313134 6.300119-10.873569 4.706893-23.886267-3.538257-29.00562-1.350603-0.845138-2.046123-0.909838-2.228091-0.909838z" fill="#6E6E96" p-id="8906"></path><path d="M526.953489 438.743867h42.677445v12.131166h-42.677445z" fill="#6E6E96" p-id="8907"></path><path d="M395.423334 147.389633s5.390282-58.633973 58.633973-58.633973h78.852585s25.608893 10.109306 25.608893 39.761921-23.453589 59.410368-6.740885 90.30845c0 0-25.612937 47.178108-83.571608 47.178108S395.423334 202.655185 395.423334 147.389633z" fill="#EDC0AF" p-id="8908"></path><path d="M295.640444 596.469254L381.945608 353.623513s38.977439 90.563204 68.003278 134.91475l-3.251153 16.049533s-59.36993-78.177283-59.369931-97.049334l-68.828196 191.575386-22.859162-2.644594z" fill="#6E6E96" opacity=".25" p-id="8909"></path><path d="M400.922797 669.931556l47.056796-130.454524 10.970618 56.535281-26.627911 80.829965z" fill="#6E6E96" opacity=".25" p-id="8910"></path><path d="M575.975534 368.912827l-121.918227 180.831216s10.024388 46.563462 34.327159 136.168304c0 0-40.388698-125.634407-41.686733-165.105181l103.515246-161.235338-11.148542-25.564412 29.49491-20.396535 7.416187 55.301946z" fill="#6E6E96" opacity=".25" p-id="8911"></path><path d="M453.438618 473.596709s-21.670308-107.846073-10.837176-126.718125l28.726603-28.726603-10.663295-12.030074-38.281919 27.274907c0 0.004044 0.339673 102.233387 31.055787 140.199895z" fill="#6E6E96" opacity=".15" p-id="8912"></path><path d="M458.776331 330.703695l36.583556 36.583555 12.454664-24.238071-15.827129-1.605358-20.655333-23.295884z" fill="#6E6E96" opacity=".15" p-id="8913"></path><path d="M558.664359 394.590463l41.642252 109.176458-12.131167 127.522825-32.349778 29.652616h-70.089838l2.656725 24.969985 70.457817 1.293991 60.983376-27.646929 0.833007-21.565171-8.621216-7.767991 11.641876-126.908179-47.711879-134.405241z" fill="#6E6E96" opacity=".25" p-id="8914"></path><path d="M624.265665 318.778758l39.393943 146.718375-16.158714 173.459511 19.122762 0.258798 21.763313-166.985511c-0.004044 0.008087-12.596195-117.259858-64.121304-153.451173z" fill="#6E6E96" opacity=".25" p-id="8915"></path><path d="M469.560939 639.377191l3.744486 72.588858 13.756744 93.604084-1.03115 159.047684-32.649013 8.524167v-269.065237H398.120497l-38.900608-14.375432-6.385038-35.483663 79.487449 22.624626 29.151194-76.551707z" fill="#6E6E96" opacity=".25" p-id="8916"></path><path d="M486.031019 798.566406l13.182535-85.051611h62.006437l22.915775-6.740885-29.65666 126.70195v137.154972l25.88791-5.669299 9.975863-124.676045 29.490867-180.726079-60.983376 27.646929-70.457817-1.293991-6.700448-15.531937-8.38668 41.585639z" fill="#6E6E96" opacity=".25" p-id="8917"></path><path d="M433.280662 169.965735a6.065583 6.065583 0 0 1-6.065583-6.065584v-22.240472a6.065583 6.065583 0 1 1 12.131167 0v22.240472a6.065583 6.065583 0 0 1-6.065584 6.065584zM499.351041 170.620818a6.065583 6.065583 0 0 1-6.065584-6.065584v-23.546595a6.065583 6.065583 0 1 1 12.131167 0v23.546595a6.065583 6.065583 0 0 1-6.065583 6.065584zM465.294812 241.75798c-10.420672 0-20.841345-3.966892-28.775128-11.900675a6.065583 6.065583 0 1 1 8.576735-8.576735 28.59316 28.59316 0 0 0 40.392742 0 6.065583 6.065583 0 1 1 8.576735 8.576735 40.550447 40.550447 0 0 1-28.771084 11.900675z" fill="#6E6E96" p-id="8918"></path></svg>