<?xml version="1.0" standalone="no"?><!DOCTYPE svg PUBLIC "-//W3C//DTD SVG 1.1//EN" "http://www.w3.org/Graphics/SVG/1.1/DTD/svg11.dtd"><svg t="1735195563820" class="icon" viewBox="0 0 1024 1024" version="1.1" xmlns="http://www.w3.org/2000/svg" p-id="8658" xmlns:xlink="http://www.w3.org/1999/xlink" width="200" height="200"><path d="M792.985445 514.027215c0 4.891758 7.199418 10.869238 6.995094 15.704907-0.20833 4.875733-5.468673 10.432545-5.881327 15.268214-0.412654 4.863714-18.429228 8.409337-19.038194 13.208949-0.608966 4.839675 0.200318 10.100018-0.608965 14.871585-0.821303 4.803618-24.114244 5.027974-25.123845 9.767491-1.025627 4.759548-16.55826 4.99993-17.780199 9.687364-1.233957 4.719485 29.715126 17.840294 28.292871 22.475645-1.418249 4.651377-12.123227 6.093664-13.749806 10.656901-1.618567 4.591281-20.949224 1.674656-22.764103 6.173791-1.810872 4.519167 37.872063 26.530075 35.868886 30.961102-2.007183 4.423015-21.301783 0.969538-23.489252 5.2964-2.199488 4.342888-23.068585-1.830904-25.440347 2.403812-2.379774 4.250741-6.390134 6.346064-8.934169 10.476616-2.56006 4.138564 19.134346 23.429157 16.422044 27.451536-2.732333 4.026386 16.317879 24.378663 13.437311 28.288864-2.896594 3.906195-11.95496 4.523173-15.011808 8.297159-3.060854 3.773985-33.67741-15.356354-36.890506-11.710572-3.217102 3.649788 18.669609 30.68867 15.308278 34.198236-3.365337 3.50556-18.841882-4.222697-22.347442-0.857359-3.509566 3.365337-28.481169-17.231328-32.134964-14.014226-3.645782 3.213096 4.18664 18.90999 0.404642 21.962832-3.769979 3.052842 14.771427 35.656549 10.857219 38.549136-3.906195 2.9006-30.548448-25.652684-34.574834-22.932369-4.022379 2.724321 5.656972 26.85459 1.518409 29.41465-4.126544 2.552047-23.192782-20.220068-27.439518-17.8443-4.238722 2.375768-10.93334-1.398217-15.272221 0.797264-4.330868 2.187469 14.466944 53.384665 10.039923 55.387842-4.423015 2.003177-18.930022-17.135175-23.445182-15.320297-4.499135 1.810872-14.879598-11.602401-19.466874-9.979828-4.575256 1.614561-7.984663 6.257925-12.644052 7.672168-4.631345 1.418249-8.737858 4.591281-13.445324 5.809213-4.69144 1.221938-5.03198 22.75609-9.791529 23.785723-4.739517 1.017614-16.450089-33.63334-21.261719-32.804026-4.771567 0.809283-4.330868 37.643701-9.170544 38.256673-4.799612 0.604959-14.158454-42.150849-19.026175-41.746207-4.82365 0.412654-7.47185 30.556461-12.351588 30.760785-4.835669 0.20833-9.999859 4.246735-14.883605 4.246735s-9.094423-26.958755-13.930092-27.15106c-4.879739-0.204324-12.952542 45.744548-17.780198 45.3359-4.863714-0.416661-4.3509-53.376652-9.154519-53.997637-4.839675-0.604959-12.656072 21.906743-17.435652 21.093453-4.807625-0.821303-13.06472 14.210537-17.796223 13.192923-4.763555-1.025627-9.398906-5.560819-14.090347-6.766731-4.719485-1.229951-6.762725-13.269044-11.398077-14.683287-4.655383-1.418249-12.704148 6.322026-17.275397 4.707466-4.591281-1.618567 5.881327-42.182899 1.382192-43.997778-4.515161-1.810872-7.928574-3.088899-12.355595-5.092076-4.423015-2.007183-16.94287 14.671268-21.281752 12.479792-4.342888-2.199488-7.123297-6.506319-11.362019-8.882086-4.250741-2.371761-28.477163 28.46915-32.615727 25.929122-4.138564-2.556054 1.602542-21.850654-2.419838-24.574975-4.026386-2.732333-21.710431 12.323544-25.620632 9.434964-3.910201-2.9006 26.526069-50.407944 22.752083-53.472805-3.773985-3.056848-20.821021 10.50466-24.466803 7.287558-3.645782-3.209089-21.582228 8.661737-25.091794 5.2964-3.50556-3.369344-0.641017-13.890029-4.006354-17.395589-3.365337-3.509566-15.360361 0.112178-18.577462-3.533604s7.692199-19.779369 4.631345-23.553354c-3.052842-3.773985 2.47192-13.962143-0.416661-17.876351-2.896594-3.906195-16.454095-0.084133-19.182422-4.110519-2.724321-4.022379 15.504589-21.145535 12.944529-25.292111-2.552047-4.126544-49.109885 17.387576-51.485653 13.136834-2.367755-4.238722 19.847477-22.331416 17.656001-26.674304-2.191476-4.326862 19.85549-19.735299 17.848307-24.16232-2.003177-4.423015-50.015321 10.789111-51.834206 6.27395-1.806866-4.499135-9.210607-8.192994-10.833181-12.780269-1.610554-4.575256 41.613997-24.270491 40.183729-28.925874-1.418249-4.635351-30.648607-1.354148-31.878557-6.073633-1.217932-4.69144-1.249982-10.220209-2.267597-14.97575-1.013608-4.743523 13.004625-12.559919 12.187329-17.363538-0.81329-4.771567-10.753054-8.261102-11.36202-13.100777-0.604959-4.803618-13.27305-8.858048-13.685704-13.721762-0.408648-4.82365 10.777092-10.913308 10.58078-15.78904-0.204324-4.82365-9.106442-9.947777-9.106442-14.831522 0-4.891758-13.481381-10.949365-13.281063-15.785034 0.20833-4.879739-3.325274-11.261861-2.920632-16.085511 0.412654-4.863714 13.513431-9.495059 14.118391-14.298676 0.608966-4.839675 5.256336-9.847618 6.073632-14.623192 0.817296-4.803618 33.885741-3.393382 34.899348-8.124885 1.02162-4.767561-12.97658-12.692129-11.758648-17.38357 1.225944-4.719485 6.025556-8.28514 7.435793-12.924497 1.422256-4.65939 3.898182-8.725839 5.508736-13.293082 1.622573-4.591281-27.211155-21.165567-25.40429-25.664703 1.818885-4.515161 0.961525-11.514261 2.960696-15.941282 2.007183-4.427021 29.643012 2.624162 31.830481-1.706706 2.199488-4.342888-22.131099-23.665532-19.76735-27.900248 2.379774-4.250741 52.667527 19.418797 55.215569 15.280233 2.556054-4.138564-0.108172-10.676933 2.608136-14.699312 2.732333-4.026386-10.336393-18.889958-7.439799-22.788141 2.896594-3.906195-14.030251-23.994053-10.977409-27.772044 3.060854-3.781998 42.002614 22.431575 45.215709 18.781786s-25.40429-36.762303-22.038953-40.267862c3.361331-3.50556 19.25053 4.495129 22.75609 1.133798 3.50556-3.361331 12.103195-1.498376 15.760996-4.711472 3.641776-3.213096 29.314491 20.732881 33.100495 17.672027 3.773985-3.052842-28.152648-51.942377-24.250459-54.838971 3.902189-2.892587 20.752913 11.462178 24.779298 8.737857 4.022379-2.724321 4.258754-11.850795 8.40533-14.406848 4.126544-2.548041 12.660078 1.802859 16.906814-0.580921 4.234716-2.371761 3.597706-14.64723 7.940593-16.842712 4.330868-2.191476 25.636658 31.670227 30.075698 29.663044 4.423015-2.003177-6.277956-38.665321-1.762796-40.480199 4.499135-1.810872 4.639358-17.543823 9.23064-19.170403 4.575256-1.614561 10.620844-2.347723 15.280233-3.769979 4.631345-1.418249 8.717826-9.370862 13.433304-10.596806 4.69144-1.221938 24.026104 59.257979 28.797672 58.236359 4.73551-1.013608 1.181874-42.900037 5.981486-43.721339 4.771567-0.81329 14.434893 33.12854 19.274568 32.515568 4.803618-0.608966 5.400565-39.250248 10.260272-39.654891 4.82365-0.404642 10.100018-4.3509 14.979757-4.55923 4.835669-0.204324 10.428539 23.677551 15.308278 23.677551s10.737028-30.079705 15.572698-29.875381c4.883745 0.204324 7.415761 39.979405 12.239411 40.376034 4.863714 0.412654 15.276227-48.436818 20.087858-47.827852 4.839675 0.612972-0.140222 67.390878 4.631345 68.200161 4.807625 0.817296 20.015744-53.613027 24.75526-52.595413 4.759548 1.025627 4.410996 25.736817 9.09843 26.954749 4.719485 1.225944 2.223526 25.86502 6.858877 27.283269 4.655383 1.426262 11.458172-6.474268 16.037435-4.863713 4.591281 1.622573 15.272221-13.685705 19.779369-11.874833 4.519167 1.818885 9.386887 3.116943 13.805895 5.12012 4.423015 2.007183 9.959796 2.151412 14.290664 4.338882 4.342888 2.195482 10.400495 1.810872 14.627198 4.182633 4.250741 2.375768 11.105613 1.217932 15.248182 3.761966 4.134557 2.56006 3.361331 13.365196 7.383711 16.093524 4.026386 2.728327 5.07605 9.751465 8.966219 12.636039 3.914208 2.9006 12.519856-0.120191 16.297848 2.928645 3.773985 3.056848-5.881327 21.774533-2.239552 24.987629 3.649788 3.213096 31.846507-20.051801 35.360079-16.69047 3.50556 3.361331 8.609654 6.48228 11.970985 9.98784 3.365337 3.509566-5.492711 19.102295-2.275609 22.752083 3.209089 3.645782-9.078398 20.159972-6.017543 23.941971 3.052842 3.777992-9.26269 18.216891-6.374109 22.123086 2.896594 3.902189 8.998271 3.990328 11.730604 8.016714 2.728327 4.018373 41.605984-15.620774 44.154025-11.48221 2.548041 4.130551-5.97748 15.248183-3.597705 19.490911 2.371761 4.234716 29.719133-3.998341 31.914614 0.344546 2.187469 4.330868-13.212955 18.084681-11.201765 22.515709 1.999171 4.419008-14.907643 16.966908-13.092764 21.482069 1.810872 4.499135 13.829933 4.983904 15.444494 9.579192 1.610554 4.57125 23.949983 2.904607 25.368232 7.563996 1.418249 4.635351-25.043718 17.559849-23.813767 22.279334 1.221938 4.687434 32.487523 2.704289 33.51315 7.467843 1.02162 4.739517-26.72238 15.484558-25.905084 20.288176 0.81329 4.771567-14.438899 11.442147-13.829934 16.281822 0.604959 4.803618 43.869574 5.192235 44.286235 10.055948 0.408648 4.819644-17.868338 11.418108-17.664014 16.293841 0.224356 4.835669 15.420456 9.875662 15.420456 14.763414z" fill="#FFE6FA" p-id="8659"></path><path d="M968.623997 650.243245c0 4.891758-19.81142 9.555154-20.135934 14.366785-0.328521 4.875733-8.4494 8.453407-9.09843 13.240999-0.661048 4.835669 27.864191 14.9437 26.890647 19.67921-0.989569 4.767561-26.518056 4.05443-27.816114 8.709814-1.310078 4.69144-14.60316 4.707466-16.221727 9.26269-1.622573 4.591281 13.245006 14.951712 11.30593 19.398765-1.935069 4.455065 9.446982 15.781028 7.223456 20.087858-2.243558 4.310837-30.696683-6.189817-33.224692-2.059266-2.528009 4.154589 5.496717 14.462937 2.700283 18.429228-2.804448 3.96629 2.04324 13.898041-1.025627 17.651995-3.068867 3.75796-12.764243 1.971126-16.077498 5.516749-3.313255 3.549629 6.4943 20.96525 2.936657 24.286517-3.545623 3.313255-16.301854-2.788422-20.071832 0.268425-3.75796 3.060854-11.029492 1.718726-14.991776 4.523174-3.950265 2.792429 2.107342 21.950813-2.039234 24.474815-4.138564 2.528009-15.636799-6.386128-19.947636-4.138563-4.294811 2.235545-4.378945 15.083922-8.838017 17.018991-4.435034 1.92305-16.922839-15.320297-21.502101-13.693717-4.563237 1.618567-6.037575 13.277057-10.733022 14.603159-4.64737 1.298059-8.429368 9.170544-13.212954 10.160114-4.727498 0.97755-12.20736-11.217791-17.04303-10.560749-4.775574 0.649029-10.600812-13.561508-15.472538-13.232987-4.807625 0.320508-8.66975 20.139941-13.565514 20.139941s-9.446982-9.467014-14.266626-9.795535c-4.875733-0.328521-12.603989 22.651925-17.383569 22.002895-4.835669-0.657042-7.672168-17.435652-12.407678-18.405189-4.767561-0.989569-12.267455 6.979068-16.934858 5.681009-4.69144-1.310078-11.646471 1.181874-16.213714-0.42868-4.591281-1.62658-5.048006-15.732951-9.479033-17.660007-4.463078-1.935069-5.5488-11.025486-9.839605-13.265038-4.314843-2.247564-11.646471 0.917455-15.777021-1.602541-4.150583-2.528009 1.983145-19.947636-1.96712-22.760096-3.962284-2.796435-19.150371 9.767491-22.92035 6.710642-3.75796-3.07688 8.004695-23.18477 4.459072-26.494018-3.553636-3.313255-18.773774 6.001518-22.087029 2.455895-3.309248-3.553636-8.096841-5.789181-11.161702-9.55916-3.064861-3.75796-18.781787 1.354148-21.598253-2.608136-2.796435-3.954271 0.937487-13.22898-1.586516-17.379563-2.524003-4.130551 8.709813-16.073492 6.462248-20.384328-2.235545-4.294811-18.889958-1.774815-20.825027-6.249912-1.92305-4.431027 9.158525-14.158454 7.527939-18.74573-1.614561-4.563237 12.103195-13.060713 10.785104-17.760166-1.294052-4.643364-4.194652-7.543964-5.184221-12.311526-0.97755-4.73551-3.589693-7.964631-4.250742-12.8003-0.649029-4.77958 3.112937-8.761896 2.784416-13.633622-0.324515-4.803618-40.279881-8.253089-40.279881-13.132828 0-4.895764 35.143736-8.661737 35.472256-13.473368 0.328521-4.875733-26.353795-12.2955-25.704766-17.083093 0.661048-4.835669 0.661048-10.584787 1.638599-15.304271 0.989569-4.771567 16.385987-6.378115 17.688052-11.033499 1.306071-4.687434-17.611931-16.385987-15.993364-20.949224 1.630586-4.591281 40.732599 5.693029 42.659655 1.249982 1.935069-4.459072-15.007801-17.111137-12.772256-21.413961 2.247564-4.314843-8.78994-16.714508-6.265937-20.841052 2.528009-4.154589 23.445183 3.405401 26.237611-0.564896 2.804448-3.958278-6.145747-16.978928-3.088899-20.740894 3.072873-3.75796 20.869097 5.404571 24.182352 1.858948s-14.775433-28.961932-11.22981-32.283199c3.545623-3.313255 27.483587 16.233746 31.253566 13.164879 3.75796-3.064861 5.677003-7.551977 9.635281-10.352419 3.958278-2.800441 3.112937-12.471779 7.259513-14.999788 4.134557-2.519997 15.92125 9.543135 20.2401 7.303583 4.290805-2.235545-1.161843-24.266485 3.293223-26.205561 4.43904-1.931063 11.093594 0.921461 15.672856-0.709124 4.563237-1.614561 6.898941-11.678521 11.590382-12.984593 4.651377-1.302065 10.905295 1.414243 15.676862 0.420667 4.727498-0.97755 12.267455 15.232157 17.103125 14.575115 4.775574-0.645023 7.023138-28.461138 11.902877-28.789658 4.807625-0.324515 10.769079 23.040541 15.656831 23.040541s10.745041-21.702419 15.552665-21.377904c4.875733 0.328521 9.266696 11.494229 14.046277 12.143258 4.835669 0.657042 12.788281-12.455754 17.519785-11.478204 4.771567 0.985563 0.200318 40.087576 4.851694 41.389642 4.695447 1.314084 20.945218-34.154166 25.496436-32.5356 4.591281 1.630586-0.056089 27.575733 4.386958 29.506796 4.463078 1.935069 11.382051-2.003177 15.672856 0.228362 4.318849 2.243558 5.68101 9.162531 9.815567 11.686534 4.150583 2.528009 0.360572 15.516608 4.318849 18.31705 3.958278 2.804448 6.594458 5.152171 10.356425 8.213025 3.75796 3.068867 18.809831-7.896523 22.35946-4.587275a208.190177 208.190177 0 0 1 10.248254 10.184152c3.317261 3.549629 16.590311-1.145817 19.651165 2.612142s4.094494 9.931751 6.906954 13.890029c2.796435 3.958278 15.32831 2.69227 17.860325 6.838846 2.524003 4.134557-2.231539 13.605578 0.016026 17.924427 2.235545 4.286799-11.069556 16.181663-9.118461 20.636729 1.919043 4.43904-8.485457 12.84437-6.858878 17.439658 1.618567 4.559231 36.582017-1.53844 37.892094 3.153 1.298059 4.651377-8.365267 12.748218-7.375697 17.519786 0.973544 4.727498 13.052701 8.321197 13.713749 13.152859 0.649029 4.77958-7.155348 11.27388-6.830833 16.153619 0.348553 4.827656 9.51509 10.204183 9.51509 15.095941z" fill="#ECFF9E" opacity=".65" p-id="8660"></path><path d="M853.966157 315.708694c0 4.851694 22.103054 9.931751 21.750495 14.6913-0.356565 4.827656-16.94287 7.487875-17.639976 12.219379-0.721144 4.783586 29.562885 15.628786 28.493188 20.292182-1.077709 4.719485-39.009867-0.436693-40.432122 4.138564-1.418249 4.61532 18.441247 16.069485 16.682457 20.532563-1.762796 4.491123-21.64633 0.544864-23.737647 4.86772-2.091317 4.342888-2.616149 8.209019-5.023967 12.363608-2.419838 4.174621 8.613661 16.197689 5.913378 20.167985-2.720314 3.978309 4.338881 15.865161 1.338122 19.623121-3.004765 3.75796-3.489534 11.265867-6.762725 14.787452-3.269185 3.525591-7.748288 7.784345-11.269873 11.061543-3.525591 3.269185-7.992676 7.555983-11.762655 10.556742-3.75796 3.000759-28.961932-22.952401-32.95226-20.236093-3.962284 2.708295-3.830074 9.955789-8.000689 12.371621-4.154589 2.403812-9.879669-0.324515-14.226562 1.766802-4.318849 2.08731-4.322856 11.870826-8.813979 13.633622-4.459072 1.750777-1.177868 26.894653-5.789181 28.316909-4.583269 1.414243-12.095182-4.014367-16.798642-2.940664-4.667402 1.061684-14.422874-26.365815-19.202454-25.648677-4.731504 0.709125-6.542376 22.768109-11.374038 23.120668-4.759548 0.348553-9.811561-10.544723-14.663255-10.544724s-8.341229-10.252259-13.104784-10.600812c-4.835669-0.356565-12.375627 26.598183-17.103124 25.885052-4.787593-0.717137-7.984663-11.638458-12.652065-12.704148-4.715478-1.073703-13.845959 12.343576-18.429228 10.93334-4.611313-1.418249-2.415831-23.276916-6.870897-25.023686-4.491123-1.766802-10.476615 0.697106-14.795464-1.394211-4.342888-2.091317-9.370862-2.740346-13.529457-5.140152-4.170614-2.419838-1.274021-15.176068-5.248324-17.892377-3.978309-2.716308-6.971056-5.204254-10.733022-8.201006-3.75796-3.004765-11.962973 0.140222-15.488564-3.128962-3.529598-3.273191 3.557642-15.925256 0.276439-19.446842-3.265178-3.525591-34.610891 17.127163-37.615656 13.36119-2.992746-3.75796-1.907024-11.99903-4.611314-15.973332-2.708295-3.962284 4.206672-14.607166 1.790841-18.781787-2.407819-4.154589 6.558401-13.91006 4.455065-18.252948-2.08731-4.322856-9.286728-5.741105-11.061543-10.236234-1.754783-4.455065 3.433445-10.66892 2.01119-15.280234-1.414243-4.583269-20.720862-4.174621-21.790559-8.890099-1.061684-4.667402-11.458172-8.461419-12.175309-13.253018-0.709125-4.727498 12.612002-11.730604 12.259443-16.566273-0.348553-4.759548 3.217102-9.715408 3.217102-14.567103 0-4.855701 0.85736-9.48304 1.209919-14.246594 0.360572-4.831663 5.380533-8.761896 6.089657-13.489393 0.717137-4.783586-17.928433-13.417279-16.866749-18.080675 1.077709-4.715478 4.362919-9.763484 5.769149-14.334734 1.418249-4.611313 27.347371-0.496788 29.106161-4.951853 1.758789-4.495129-16.738546-17.519785-14.64723-21.842642 2.08731-4.342888 20.043788-0.156248 22.451607-4.310836 2.415831-4.174621 4.26276-7.788352 6.971056-11.758649 2.724321-3.974303-13.781857-22.351448-10.781098-26.109408 3.004765-3.75796 30.536429 13.797883 33.805613 10.272292 3.269185-3.529598 5.865302-5.821232 9.390894-9.09843 3.529598-3.269185 1.141811-11.762655 4.911789-14.76742 3.75796-3.000759-6.638528-25.376245-2.664225-28.100566 3.96629-2.708295 9.931751-4.05443 14.106372-6.462249 4.154589-2.407819 8.261102-6.991087 12.603989-9.090416 4.322856-2.08731 8.489464-7.483869 12.980587-9.246665 4.455065-1.754783 18.457272 22.984452 23.080604 21.566203 4.583269-1.410237 4.639358-19.150371 9.354836-20.220068 4.663396-1.06569 10.664914 3.365337 15.4485 2.652206 4.727498-0.705118 8.934169-9.767491 13.773845-10.128062 4.759548-0.348553 10.264279 20.428398 15.10796 20.428398s9.106442-4.062443 13.874003-3.709884c4.835669 0.356565 7.676174 10.152101 12.411685 10.857219 4.77958 0.717137 8.617667-0.180286 13.285069 0.881398 4.715478 1.073703 12.031081-10.232228 16.610343-8.821991 4.611313 1.418249 8.205013 4.943841 12.660078 6.698623 4.495129 1.758789 9.931751 0.76922 14.254607 2.860537 4.346894 2.091317 2.295641 15.027833 6.446223 17.431645 4.178627 2.419838 21.093453-15.652824 25.059743-12.944529 3.970297 2.716308 4.587275 10.917314 8.337223 13.914067 3.75796 3.004765 2.640187 11.738617 6.165778 15.011808 3.529598 3.273191 0.248394 12.559919 3.525592 16.08551 3.265178 3.529598 14.186499-0.180286 17.191264 3.589693 2.996753 3.75796 22.619874-3.946259 25.336182 0.032051 2.716308 3.96629-10.404501 18.753742-7.98867 22.928363 2.407819 4.154589 6.350071 7.596047 8.441387 11.938935 2.08731 4.318849-5.292393 12.539887-3.533604 17.03101 1.754783 4.463078 5.027974 7.844441 6.438211 12.45976 1.418249 4.579262-0.797264 9.539128 0.268426 14.254607 1.061684 4.667402 25.70076 5.116114 26.417897 9.903707 0.709125 4.731504-19.783375 12.147265-19.430816 16.982934 0.372591 4.775574-11.502242 9.094423-11.502242 13.946117z" fill="#FF7F00" opacity=".14" p-id="8661"></path><path d="M391.324436 375.928199c-6.398147 5.184222-11.157695 7.872485-11.157695 7.872485 4.727498-2.035228 8.365267-4.743523 11.157695-7.872485z m86.208722-210.998631L431.924826 90.972276s-113.764423-0.108172-81.45318 121.608864c0.829315 3.112937 1.722732 6.281963 2.744352 9.559161 0 0 1.342129 3.080886 3.657802 8.541546 3.66982 13.853972 6.089658 33.180622-2.26359 48.833447-13.597565 25.488423 35.25992 32.575663 43.23657 58.352543 0.452718 2.323685 0.853353 4.731504 1.101747 7.203424v0.024039c1.141811 10.737028-0.084133 22.383499-7.608065 30.828892 18.276986-14.847547 49.943207-50.311791 21.878698-102.927236-21.838635-40.924904 64.313998-108.067388 64.313998-108.067388z" fill="#B08F81" p-id="8662"></path><path d="M380.170747 389.810215a6.009531 6.009531 0 0 1-2.964702-11.237823c0.04407-0.024038 4.282792-2.447882 9.967809-7.011119 5.039993-5.917385 6.995094-14.60316 5.797194-25.824957l-0.016026-0.196311c-0.196311-1.882986-0.496788-3.858119-0.941493-6.177798-2.956689-9.018302-12.900459-15.873174-22.523721-22.507696-13.553495-9.342817-30.420245-20.969256-20.184011-40.15969 7.395729-13.857978 5.132139-31.530005 1.862955-44.057873a979.188932 979.188932 0 0 0-3.465496-8.088829 5.63694 5.63694 0 0 1-0.228363-0.612972 245.389172 245.389172 0 0 1-2.81246-9.799541c-10.600812-39.923316-7.111278-71.685689 10.360431-94.401716 26.433923-34.366503 74.850709-34.763132 76.893949-34.763132a6.009531 6.009531 0 0 1 5.116114 2.856531l45.608332 73.953285c1.606548 2.608136 0.997582 6.009531-1.418249 7.896523-22.848236 17.820262-78.652738 70.615993-62.711457 100.499386 30.516397 57.206726-5.668991 95.908104-23.064579 110.154698-3.481521 3.781998-7.820403 6.806795-12.908472 8.998271-0.765214 0.324515-1.574497 0.480762-2.367755 0.480763z m24.767279-45.191672a68.50865 68.50865 0 0 1 0.388617 7.920562c12.587964-17.720103 20.296188-43.504996 2.584098-76.709657-21.205631-39.751043 44.00579-97.570741 61.7299-112.246015L428.663654 97.130042c-10.680939 0.72515-44.963309 4.987911-64.137719 29.96352-15.055878 19.603089-17.828275 47.847884-8.245076 83.949139 0.781239 2.928645 1.622573 5.921391 2.576086 9.006283 0.392623 0.909442 1.642605 3.798023 3.549629 8.289146 0.112178 0.260413 0.204324 0.532845 0.276439 0.805277 3.874144 14.635211 6.542376 35.744689-2.772397 53.200373-4.719485 8.846029 1.061684 14.034257 16.402012 24.607025 10.877251 7.499894 23.204801 15.997371 27.275257 29.138211 0.064102 0.204324 0.116184 0.412654 0.156248 0.624991 0.564896 2.896594 0.941493 5.360501 1.181874 7.748289l0.012019 0.156247z" fill="#6E6E96" p-id="8663"></path><path d="M550.340626 447.221265s-134.741692-26.105402-124.950163 130.567071c19.863502 179.564779-277.920765 241.511021-172.000783 324.931321 105.927995 83.420299 351.393288 68.280288 409.152891-9.266696 79.966822-107.370283 10.148094-174.749141-67.523087-301.902799-69.79469-114.245186-36.249489-151.440175-36.24949-151.440175" fill="#FFFFFF" p-id="8664"></path><path d="M458.603136 964.677919c-74.862728 0-157.089134-16.414032-208.927346-57.234771-16.766591-13.204942-24.987629-26.718374-25.13987-41.309514-0.304483-29.490771 33.525169-57.286853 72.69529-89.469894 58.857344-48.360697 132.113524-108.552157 122.193792-198.218362-3.261172-52.094619 8.609654-90.235107 35.25992-113.656251 37.43537-32.888159 90.219082-24.651095 96.300727-23.561367 1.650618-3.205083 3.056848-4.839675 3.32928-5.148165a6.005524 6.005524 0 1 1 8.926156 8.048765c-0.232369 0.276438-28.901837 36.553972 36.914544 144.284827 11.554324 18.918003 22.812179 36.317597 33.701449 53.152296 62.647355 96.821553 104.03299 160.786998 33.509143 255.477171-23.26089 31.229528-76.429212 54.414298-145.879355 63.620898-19.699242 2.608136-40.976987 4.01036-62.88373 4.014367z m71.024641-513.033639c-18.31705 0-45.948872 3.62575-67.078383 22.235263-23.665532 20.845059-34.15016 55.676299-31.157413 103.532196 10.608825 95.856022-65.435777 158.33511-126.532673 208.538729-36.782334 30.223933-68.548714 56.325328-68.304327 80.062975 0.112178 10.716996 6.83484 21.177586 20.560608 31.982723 64.253903 50.604255 178.282745 61.93823 262.79678 50.748484 66.253073-8.781928 116.484738-30.243965 137.814565-58.885389 65.535936-87.991549 28.08454-145.871343-33.961862-241.771434-10.93334-16.894794-22.235264-34.362497-33.869715-53.408703-46.978505-76.893949-48.152367-120.587244-43.052278-141.925084a128.864371 128.864371 0 0 0-17.215302-1.10976z" fill="#6E6E96" p-id="8665"></path><path d="M561.906969 30.712708s82.514863 14.222556 82.514864 96.108422c0 60.556038-41.898448 24.274498-27.599772 130.106341 5.897353 43.553072-22.952401 51.429564-22.952401 51.429564-5.364508 7.123297 33.104502-26.137452 7.64813-54.646666-18.176827-20.356284-73.480536-167.413507-39.610821-222.997661z" fill="#B08F81" p-id="8666"></path><path d="M593.424955 315.34011a6.149753 6.149753 0 0 1-5.444635-3.361331c-1.149824-2.311666-0.781239-4.747529 1.089728-7.239482a6.009531 6.009531 0 0 1 3.000759-2.119361c4.166608-4.471091 22.071003-25.752842 4.963873-44.90722-19.751324-22.119079-75.527782-172.253183-40.263856-230.124964 1.282033-2.103336 3.721903-3.221108 6.153759-2.796435 0.877391 0.152241 87.502774 16.073492 87.502774 102.029813 0 27.159073-8.084822 36.806373-15.905225 46.133165-9.731433 11.610413-19.791388 23.617456-11.750635 83.167899 5.364508 39.618833-15.777021 53.112233-24.054149 56.806091-1.466326 1.310078-3.124956 2.411825-5.292393 2.411825z m-28.413061-277.8166c-11.434134 23.060573-10.41652 64.089642 3.004765 116.40461 11.870826 46.277393 30.127781 86.973935 37.984241 95.779901 1.798853 2.015196 3.325274 4.05443 4.607306 6.105684-8.265108-63.176193 3.409407-77.106286 14.703319-90.579654 7.027145-8.381292 13.096771-15.620774 13.096771-38.412921 0-66.609639-57.194707-85.33133-73.396402-89.29762z" fill="#6E6E96" p-id="8667"></path><path d="M352.230435 558.397584c21.518126-24.230428 42.230976-60.684241 45.988936-69.101591l18.00856-31.910608c9.599224-24.919521 12.852383-32.515568 17.3395-46.958474 7.407748-15.528627 8.201006-28.797671 15.324303-16.522203 0 0 23.373068 16.890788 29.991565 46.690048h72.571093c1.374179-26.682316 12.76825-46.702067 26.24963-54.109815 5.63694-3.100918 0.2524-4.294811 4.731504-4.130551-1.474338 0.344546-1.402224 1.145817 1.266008 0.068108 7.920562 2.804448 12.924497 15.200106 25.131858 43.228558l20.440417 50.331823c4.847688 10.877251 46.878346 74.698467 80.932354 91.56121l3.253159-5.068037c3.004765-5.93341-1.742764-17.455684-9.839605-31.574075-6.774744-11.830763-19.907572-29.462726-28.80969-43.1925-11.770668-18.112726-19.146365-32.367333-24.146295-46.690048l-16.77861-53.753249 0.008013 0.048076c-10.769079-37.046754-29.286446-88.340102-50.784541-85.984366-13.40526 1.470332-23.761685 1.117773-33.004343 0.47275-12.495818-9.675344-11.00946-31.465903-11.00946-31.465903h-32.683835v14.482969c0 10.432545-4.855701 16.766591-11.037505 20.644742-21.450018 5.853283-16.442076 5.124127-36.36968 4.05443-40.740612-2.207501-60.263574 60.067263-68.416504 98.520247l-14.346753 50.391918c-4.250741 12.171303-10.452577 27.848165-16.674445 38.705384-8.172962 14.298677-21.546171 41.613997-31.189464 60.479918 0 0-6.926986 13.128821-15.352348 13.128821v-0.004006s-15.440488-6.049594-31.133376 9.627268c-4.162602 4.154589-18.673615 23.152719-13.160872 26.273668 0 0 10.672927 0.416661 14.911649-4.755542a40.724587 40.724587 0 0 1 9.05436-8.132898c-3.653795 7.764314-6.025556 15.03184-6.025557 15.03184s-7.195411 23.681557 13.605578 28.709531c23.032528 5.552806 40.72058-49.726864 40.72058-49.726863 5.432616-14.106372 2.13138-10.809143 11.233816-29.37058z" fill="#F9D5B3" p-id="8668"></path><path d="M303.537211 643.901187a19.871515 19.871515 0 0 1-4.675415-0.560889c-7.191405-1.738758-12.708154-5.660978-15.957307-11.345995-4.254748-7.435793-3.737928-15.993364-2.896594-20.949224-4.166608 1.394211-8.40533 1.614561-10.704977 1.614561l-0.809284-0.012019a6.177798 6.177798 0 0 1-2.72432-0.773226c-2.327692-1.31809-3.814049-3.565655-4.190647-6.322027-1.430268-10.54873 15.889199-29.258402 16.065479-29.434681 10.368444-10.356425 20.865091-12.531875 27.848166-12.531875a30.929052 30.929052 0 0 1 8.192993 1.06569c3.052842-0.721144 7.367685-6.069626 9.382881-9.851624a3199.542274 3199.542274 0 0 0 8.7018-17.20729c8.164949-16.221727 16.610343-32.992324 22.579811-43.436888 7.059195-12.323544 13.693717-30.472327 16.21772-37.703796l14.186499-49.859073c18.116732-85.239184 49.234082-103.139573 72.154432-103.139573 0.797264 0 1.610554 0.020032 2.419838 0.068108 2.532016 0.136216 4.667402 0.264419 6.506319 0.376597 3.261172 0.200318 5.532775 0.344546 7.471849 0.344547 3.753954 0 5.873315-0.54887 15.264209-3.136975l4.30683-1.181875c5.128133-3.489534 7.523932-8.309178 7.523932-15.099947v-14.482969a6.009531 6.009531 0 0 1 6.009531-6.009531h32.683835a6.001518 6.001518 0 0 1 5.993505 6.418179c-0.308489 4.895764 0.488775 18.421215 7.423774 25.195959 4.48311 0.284451 8.273121 0.412654 12.067137 0.412654 5.925397 0 11.774674-0.324515 17.876351-0.997582 20.280163-2.199488 38.837594 27.19513 57.126599 89.982707a1.354148 1.354148 0 0 1 0.04407 0.136216l16.77861 53.753249c4.747529 13.585546 11.99903 27.583746 23.453195 45.203691 3.46149 5.34047 7.68018 11.430127 11.758649 17.315461 6.390134 9.230639 12.996612 18.77778 17.231328 26.165497 10.88927 18.974092 13.777851 29.779228 9.983833 37.275116-0.08814 0.184292-0.192305 0.360572-0.304483 0.532845l-3.253159 5.068037a5.981486 5.981486 0 0 1-7.72425 2.135387c-35.488282-17.575874-78.632707-83.007645-83.752827-94.497868l-22.395518-54.830958c-7.884504-18.124745-13.072733-30.059673-17.571868-34.15016a15.248183 15.248183 0 0 1-3.221108 2.303653c-10.560749 5.8012-21.806584 23.248871-23.1407 49.153955a6.009531 6.009531 0 0 1-6.001518 5.701042h-72.571093a6.005524 6.005524 0 0 1-5.865302-4.707466c-6.053601-27.255225-27.431505-42.968145-27.643841-43.124392a4.887752 4.887752 0 0 1-0.424674-0.336534c-0.352559 0.90143-0.705118 1.83491-1.033639 2.700282-1.233957 3.257166-2.760378 7.287558-4.73551 11.478204-3.533604 11.325962-6.386128 18.665602-11.99903 33.120527-1.542446 3.970297-3.297229 8.49347-5.344476 13.805895a5.97748 5.97748 0 0 1-0.376597 0.793258l-17.876351 31.674234c-4.603301 10.12005-25.195959 45.760573-46.317457 69.758633-5.080057 10.408507-5.853283 13.156866-6.918973 16.926845-0.705118 2.499965-1.58251 5.608895-3.753953 11.237822-1.666643 5.228292-17.984522 53.965586-43.068304 53.965586z m-10.8452-56.153055a6.009531 6.009531 0 0 1 5.440629 8.569591c-3.437452 7.307589-5.729086 14.270632-5.753124 14.33874-0.713131 2.419838-2.019202 10.216202 0.981556 15.41645 1.614561 2.796435 4.334875 4.623332 8.321197 5.588863 13.445323 3.229121 28.55729-30.011597 33.585264-45.716503 2.08731-5.436622 2.844511-8.132898 3.513573-10.508667 1.213925-4.294811 2.171444-7.692199 8.048764-19.67921 0.240381-0.488775 0.540858-0.937487 0.90143-1.346134 20.845059-23.469221 41.337559-59.366151 44.99536-67.563151 0.076121-0.168267 0.160254-0.336534 0.2524-0.500795l17.792218-31.525998c1.983145-5.148165 3.693858-9.551148 5.200247-13.429298 5.75713-14.819503 8.385299-21.582228 11.850794-32.74393 0.084133-0.272432 0.192305-0.544864 0.316502-0.80127 1.850935-3.882157 3.277197-7.640117 4.531187-10.957378 2.920632-7.712231 5.232298-13.801889 11.510254-13.801889 4.298818 0 7.111278 3.257166 9.270703 6.750706 4.611313 3.62575 22.772115 19.20646 30.099736 44.758985h62.350885c2.592111-24.286517 13.541476-44.803055 28.713538-53.260468 0.268426-1.193893 0.833322-2.083304 1.366166-2.696276 1.983145-2.295641 4.719485-2.295641 5.753124-2.295641l0.917455 0.020032c0.248394 0.008013 0.496788 0.032051 0.741176 0.072115 0.781239-0.048076 1.570491 0.072114 2.315672 0.336533 9.947777 3.521585 14.851554 14.799471 26.702349 42.05069l1.931062 4.443046 20.496506 50.472046c4.3509 9.755472 41.878417 66.613645 73.348326 85.836131 0.54887-1.474338 0.885404-7.079227-9.775503-25.664703-3.978309-6.943011-10.436552-16.273809-16.686464-25.296118-4.126544-5.961454-8.397318-12.123227-11.95496-17.611931-11.995023-18.457272-19.639146-33.256743-24.779298-47.980094l-16.742553-53.625046c-0.048076-0.124197-0.084133-0.2524-0.124197-0.380603-22.050971-75.836272-38.933746-81.729618-43.581117-81.729618-0.256407 0-0.51682 0.012019-0.777232 0.044069a174.288411 174.288411 0 0 1-19.186429 1.065691c-4.627339 0-9.222627-0.17628-14.891617-0.572909a5.993505 5.993505 0 0 1-3.257165-1.245976c-10.304342-7.97665-12.764243-22.014914-13.273051-30.207908h-20.732881v8.473438c0 11.149683-4.791599 20.047795-13.853971 25.736817a6.089658 6.089658 0 0 1-1.610555 0.709125l-5.188228 1.422256c-9.683357 2.672238-12.944529 3.573668-18.457272 3.573667-2.13138 0-4.627339-0.148235-8.209019-0.364578-1.814878-0.112178-3.918214-0.240381-6.422185-0.372591a33.136553 33.136553 0 0 0-1.774815-0.048076c-15.144017 0-43.132405 12.187328-60.439854 93.816787a6.486287 6.486287 0 0 1-0.096152 0.400636l-14.346753 50.391918c-3.381363 9.711402-9.955789 27.335352-17.243347 40.047513-5.805207 10.16412-14.555083 27.539676-22.275327 42.871992a3620.269521 3620.269521 0 0 1-8.777922 17.355525c-0.917455 1.742764-8.990258 16.406019-20.70083 16.406019-0.777233 0-1.518408-0.148235-2.203494-0.416661-0.897423-0.300477-12.50383-3.886163-24.687153 8.281134-3.140981 3.132969-8.397318 10.356425-11.029492 15.328309 1.858948-0.460731 3.265178-1.117773 3.882157-1.870967a46.954467 46.954467 0 0 1 10.556742-9.446982c0.973544-0.624991 2.063272-0.917455 3.144988-0.917455z" fill="#6E6E96" p-id="8669"></path><path d="M482.92571 90.122929s31.834488 54.722787-52.980023 111.520865c0.008013-0.004006-39.366433-60.423828 52.980023-111.520865z" p-id="8670"></path><path d="M429.949693 203.646971a2.015196 2.015196 0 0 1-1.698694-0.937486l1.694688-1.069697-1.698694 1.061684c-0.556883-0.877391-13.525451-21.806584-6.57042-48.989695 6.330039-24.727216 26.610202-46.710079 60.279599-65.339624a1.999171 1.999171 0 0 1 2.700283 0.745182c0.328521 0.564896 31.794424 57.006409-53.592995 114.193103a2.027215 2.027215 0 0 1-1.113767 0.336533z m52.142695-110.763664C450.506295 110.73562 431.488133 131.528596 425.554723 154.705353c-5.484698 21.433993 2.159425 38.625257 5.056019 44.069892 72.679265-49.602667 56.032865-96.2206 51.481646-105.891938z" fill="#6E6E96" p-id="8671"></path><path d="M505.910162 79.830606s19.775362 44.334311-24.190365 66.918128l1.213926-56.625805c-0.008013 0 5.648959-12.832351 22.976439-10.292323z" p-id="8672"></path><path d="M481.719797 148.751911a2.003177 2.003177 0 0 1-2.003176-2.047247l1.213925-56.625805c0-1.081716 2.111348-4.362919 4.731504-6.754712 2.916626-2.660219 8.028733-5.833251 15.849135-5.833251a32.852101 32.852101 0 0 1 4.691441 0.352559 2.01119 2.01119 0 0 1 1.53844 1.165849c0.204324 0.460731 20.027763 46.333482-25.103813 69.518251a2.015196 2.015196 0 0 1-0.917456 0.224356z m3.205084-58.148219l-1.129792 52.739642c15.604748-8.982245 23.841812-21.950813 24.50286-38.60122 0.432686-10.917314-2.664225-20.091864-3.806036-23.072591a27.327339 27.327339 0 0 0-2.984734-0.168267c-11.22981 0-15.716926 7.435793-16.582298 9.102436z" fill="#6E6E96" p-id="8673"></path><path d="M607.150723 109.193174c-4.334875-54.947143-80.411528-103.063452-151.043546-60.560045-73.027818 43.937682-45.976917 115.85574-23.597424 164.997676 23.288935 51.149119 93.908934 75.347496 119.753923 62.198643 21.466044-10.921321 60.760362-92.306392 54.887047-166.636274z" fill="#F9D5B3" p-id="8674"></path><path d="M534.431395 285.368577h-0.008013c-36.477852-0.004006-87.907416-26.477992-107.386308-69.249826-18.216891-40.003443-56.125011-123.247463 25.965179-172.637793 18.877939-11.358013 38.893683-17.11915 59.498361-17.11915 51.028929 0 97.114017 37.715815 100.635602 82.354609 5.785175 73.160027-32.150989 159.240546-58.156232 172.46552-5.448641 2.78041-12.367614 4.18664-20.548589 4.18664z m-21.926775-246.983701c-18.389164 0-36.321604 5.180215-53.300531 15.400424-64.077623 38.553143-48.068233 98.412075-21.225663 157.357559 18.48131 40.588371 67.887666 62.206656 96.444956 62.210663h0.004006c6.18581 0 11.410096-0.997582 15.107961-2.876562 17.940452-9.122468 57.423069-87.446685 51.625875-160.80703-3.048835-38.641283-43.649225-71.285054-88.656604-71.285054z" fill="#6E6E96" p-id="8675"></path><path d="M422.309577 226.515239a4.14257 3.589693 90 1 0 7.179386 0 4.14257 3.589693 90 1 0-7.179386 0Z" fill="#FFFFFF" p-id="8676"></path><path d="M425.89927 232.660986c-3.088899 0-5.596876-2.756371-5.596877-6.145747s2.511984-6.145747 5.596877-6.145747 5.59287 2.756371 5.59287 6.145747-2.507977 6.145747-5.59287 6.145747z m0-8.28514c-0.861366 0-1.590522 0.981557-1.590523 2.139393s0.729156 2.139393 1.590523 2.139393c0.861366 0 1.586516-0.981557 1.586516-2.139393s-0.72515-2.139393-1.586516-2.139393z" fill="#6E6E96" p-id="8677"></path><path d="M661.597072 539.299295c0-0.008013 20.071833-5.612902 31.133375 13.605578 11.073562 19.230498 18.677622 19.186428 13.164879 22.287346 0 0-0.172273 0.016025-0.464737 0.024038-2.243558-1.36216-12.828345-8.160943-17.215303-19.63514-4.931822-12.852383-31.297636-0.544864-49.37831-22.62388l10.256265 0.084133c4.026386-3.345305 3.19707-12.692129 3.197071-12.692129-4.447053 1.161843 1.522414 13.036675 9.30676 18.950054z" fill="#FFFFFF" opacity=".13" p-id="8678"></path><path d="M705.430589 577.219434a2.019202 2.019202 0 0 1-1.041652-0.288458c-3.100918-1.886993-13.577533-8.946188-18.044618-20.632722-1.65863-4.318849-6.458242-5.116114-14.799471-6.149753-9.967808-1.24197-23.621462-2.932651-34.258331-15.925256a1.995164 1.995164 0 0 1 1.550459-3.269185h0.016025l9.430957 0.080127c0.685087-0.809283 1.221938-2.051253 1.578503-3.645782-1.205913-2.924638-1.418249-5.248324-0.624991-6.894935a3.874144 3.874144 0 0 1 2.548041-2.079298 1.959107 1.959107 0 0 1 1.662637 0.296471c0.480762 0.34054 0.789252 0.877391 0.841334 1.462319 0.012019 0.140222 0.280445 3.301236-0.2524 6.726668 1.730745 3.609725 4.819644 7.539958 7.988669 10.176139 1.290046-0.324515 3.269185-0.544864 6.310008-0.544865 6.454236 0 18.441247 1.995164 26.137452 15.376386 5.152171 8.946188 9.527109 13.61359 12.135246 16.406019 2.107342 2.251571 3.381363 3.605718 3.096911 5.436623-0.236375 1.53844-1.498376 2.439869-2.824479 3.189057a2.031221 2.031221 0 0 1-0.801271 0.248394l-0.588934 0.032051h-0.060095z m-62.002332-42.222963c9.062372 8.74587 19.799401 10.079986 28.609373 11.169714 8.28514 1.029633 15.444494 1.919043 18.048624 8.697795 3.525591 9.222627 11.309937 15.296259 15.075909 17.80023a57.214739 57.214739 0 0 0-1.478344-1.614561c-2.732333-2.916626-7.299577-7.792358-12.688123-17.147194-6.358084-11.045518-15.83311-13.365196-22.663944-13.365197-3.549629 0-5.973474 0.633004-6.157765 0.685087a2.003177 2.003177 0 0 1-1.782828-0.324515c-2.94467-2.243558-5.837258-5.444635-8.008701-8.797953a8.593629 8.593629 0 0 1-2.007183 2.48394c-0.364578 0.29647-0.917455 0.536851-1.294053 0.46073l-5.652965-0.048076z" fill="#6E6E96" opacity=".13" p-id="8679"></path><path d="M679.71781 559.911985c0.825309-0.673067 2.832492 1.402224 5.220279 4.587276-1.754783-1.410237-3.004765-2.17545-3.004765-2.175451a148.844057 148.844057 0 0 1 6.037575 15.023827c5.432616 8.858048 14.146435 27.243206 10.496647 30.22794 0 0-11.041511-19.899559-12.439729-25.135864-2.05526-7.55999-8.990258-20.340258-6.310007-22.527728z" fill="#FFFFFF" opacity=".19" p-id="8680"></path><path d="M698.467546 609.574747a2.031221 2.031221 0 0 1-1.754783-1.033639c-0.452718-0.821303-11.177727-20.175998-12.624021-25.592588-0.669061-2.463908-1.935069-5.648959-3.161013-8.729845-3.433445-8.617667-5.244317-13.605578-2.475927-15.865161a3.353318 3.353318 0 0 1 1.638599-0.576915c1.430268 0 3.008772 0.917455 6.45023 5.512743a2.007183 2.007183 0 0 1-0.657042 2.964702 148.034774 148.034774 0 0 1 3.918214 10.244246c1.514402 2.540028 16.161631 27.523651 9.931751 32.619733a1.975132 1.975132 0 0 1-1.266008 0.456724z m-10.897283-28.985969c0.140222 0.452718 0.272432 0.897423 0.388617 1.322096 0.745182 2.772397 4.69144 10.568761 8.10886 17.018991-1.714719-5.116114-4.891758-12.099189-8.497477-18.341087z" fill="#6E6E96" opacity=".19" p-id="8681"></path><path d="M682.325946 573.096896s-3.834081-3.92222-8.938175-4.174621c-7.103265-0.380604-16.281822 2.391793-17.531804-2.08731-2.103336-7.708225-17.355525-6.057607-12.451748-13.060714 4.895764-6.987081 4.871726-0.084133 21.706425 4.234716 16.826686 4.310837 13.741794 4.771567 14.9437 8.176969 1.205913 3.401394 2.271603 6.91096 2.271602 6.91096z" fill="#FFFFFF" opacity=".19" p-id="8682"></path><path d="M682.406073 575.100073l-0.116184-0.004007a2.01119 2.01119 0 0 1-1.390205-0.59294c-0.032051-0.032051-3.385369-3.369344-7.608066-3.58168-2.183463-0.116184-4.451059 0.072114-6.670579 0.244387-1.74677 0.136216-3.429439 0.264419-4.94384 0.26442h-0.016026c-1.822891 0-6.602471-0.016025-7.732263-4.05443-0.72515-2.6482-3.898182-3.938246-6.963043-5.184222-2.892587-1.177868-5.620914-2.287628-6.358083-4.783587-0.42868-1.458313-0.04407-3.068867 1.157836-4.77958 1.610554-2.303653 3.144988-3.838087 5.396559-3.838087 1.594529 0 3.056848 0.801271 5.07605 1.915037 2.628168 1.446294 6.598465 3.629757 13.373209 5.368514 13.9982 3.589693 15.4485 4.699453 16.069485 8.309178 0.060095 0.332527 0.112178 0.705118 0.268426 1.137805 0.937487 2.656213 1.798853 5.38454 2.143399 6.486287a2.01119 2.01119 0 0 1-1.686675 3.092905z m-10.488634-8.217032c0.532845 0 1.061684 0.012019 1.578503 0.040064 1.915037 0.092146 3.657801 0.620985 5.148165 1.298058-0.156248-0.452718-0.312496-0.909442-0.476756-1.366166a9.931751 9.931751 0 0 1-0.436693-1.80286c-0.180286-1.057677-0.312496-1.822891-13.112796-5.100088a55.788477 55.788477 0 0 1-14.310695-5.741105c-1.382192-0.757201-2.576086-1.418249-3.140982-1.418249-0.236375 0-0.817296 0.276438-2.115355 2.13138-0.552877 0.789252-0.628998 1.229951-0.59294 1.346135 0.192305 0.645023 2.588105 1.622573 4.026386 2.207501 3.593699 1.462319 8.076809 3.281204 9.314772 7.828415 0.076121 0.268426 0.308489 1.113766 3.886163 1.113766 1.418249 0 3.000759-0.124197 4.635352-0.248393 1.842923-0.144229 3.761966-0.288457 5.596876-0.288458z" fill="#6E6E96" opacity=".19" p-id="8683"></path><path d="M639.461967 539.936305c-1.161843 0.937487-4.358913 2.051253-7.503901 5.540788l0.400635 0.272432s2.223526 1.157836 1.253989 10.845199c-0.969538 9.695376 7.708225 16.157625 10.620844 19.727287 1.794847 2.215514 3.19707 5.104095 3.96629 6.979068 0.47275 1.113766 0.749188 1.87898 0.749189 1.87898-0.468743 4.623332 1.566484 12.271462 1.566484 12.271462-0.500794 5.023968 1.350141 7.820403 3.03281 9.310766 0.917455-9.206601 0.168267-16.758578-1.370173-22.932369 3.116943 0.596947 7.019132 1.766802 7.439799 3.954271 0 0 0.008013-0.016025 0.032051-0.036057-0.008013 0.028044-0.024038 0.064102-0.024038 0.084133 0.913449 5.905366 3.525591 13.849965 3.525591 13.849965 0.584928 14.062302 6.257925 15.516608 9.442976 15.212126l0.248394-0.729157s-6.943011-3.950265-6.009531-13.301094c0 0-4.935828-14.014226-4.591281-17.519785 1.810872-1.025627 4.3509-1.1979 6.814807 2.756371 0 0 0.917455-1.590522 0.985563-0.08814l6.618497 13.637629c2.644194 20.308208 12.479792 15.236164 12.479792 15.236163s-8.501483-1.774815-7.42778-12.527868c0.620985-6.22988-6.698624-17.66802-10.761066-21.385917 0.68108-0.781239 1.590522-1.470332 2.868549-1.903018 4.827656-1.614561 8.249083 5.600883 14.42688 18.757749 0 0 3.140981 9.651306 9.09843 7.872485 0 0-16.634381-18.465285-15.616767-28.629405l0.59294-5.997511s-15.047865 10.063961-30.259991 10.348412a49.198025 49.198025 0 0 0-9.879668-19.446842c-4.971885-6.093664 1.65863-16.610343 9.967808-6.450229 8.313184 10.136075 29.747177 5.060025 29.747177 5.060024s4.811631 2.936657 9.058366 8.136905c4.238722 5.16419 14.919662 4.743523 14.919662 4.743523-8.773915-0.877391-21.157555-17.035016-21.157554-17.035017-27.567721 5.188228-29.230358-10.8452-29.230358-10.845199-11.754642 1.618567-13.733781-9.523103-16.025415-7.64813z m19.366714 56.926282c0.196311-2.111348 0.308489-4.258754 0.392623-6.217861-0.17628 1.678662-0.320508 3.733922-0.392623 6.217861z" fill="#F9D5B3" p-id="8684"></path><path d="M686.504573 619.458422c-4.318849 0-9.851624-2.996753-11.77868-17.219308l-5.93341-12.227392a1.943082 1.943082 0 0 1-1.426262-0.845341c-0.717137-1.149824-1.870967-2.576086-3.056848-2.431857 0.436693 3.249153 2.700282 10.58078 4.423015 15.468532a1.983145 1.983145 0 0 1 0.100159 0.865373c-0.785245 7.868479 4.77958 11.22981 5.019961 11.370032 0.817296 0.476756 1.201906 1.474338 0.897423 2.375768l-0.2524 0.745182a2.003177 2.003177 0 0 1-1.7027 1.338122c-3.685846 0.368585-10.881257-0.909442-11.622433-16.846718a119.934208 119.934208 0 0 1-1.097741-3.609725 1.854942 1.854942 0 0 1-1.358154 0.420667 2.003177 2.003177 0 0 1-1.882986-2.059266c0.076121-2.540028 0.224356-4.64737 0.404642-6.366096a2.003177 2.003177 0 0 1 0.59294-1.22995c-0.064102-0.356565-0.120191-0.709125-0.17628-1.057678-0.068108-0.220349-0.713131-0.90143-2.824479-1.590522 1.201906 6.314014 1.438281 13.160872 0.717137 20.40436a2.003177 2.003177 0 0 1-3.321267 1.298058c-1.96712-1.742764-4.18664-4.995923-3.729915-10.644882-0.392623-1.550459-1.866961-7.764314-1.574497-12.155277a35.067615 35.067615 0 0 0-0.556884-1.378186c-0.500794-1.213925-1.838916-4.23071-3.681839-6.498306-0.512813-0.628998-1.221938-1.354148-2.023208-2.179456-3.709884-3.818055-9.919732-10.204183-9.034328-19.010149 0.68108-6.83484-0.336534-8.793947-0.51682-9.086411l-0.280445-0.184292a2.003177 2.003177 0 0 1-0.352559-2.996753c2.451889-2.724321 4.915796-4.110519 6.542376-5.03198 0.504801-0.284451 0.917455-0.504801 1.189887-0.72515a2.816467 2.816467 0 0 1 1.794846-0.657042c1.58251 0 2.588105 1.237963 3.753954 2.672238 2.05526 2.532016 4.991917 6.077639 11.470191 5.212266a1.999171 1.999171 0 0 1 2.26359 1.778821c0.052083 0.396629 1.402224 10.083993 17.16322 10.083993 2.920632 0 6.181804-0.336534 9.703389-0.997582a1.987151 1.987151 0 0 1 1.959107 0.749188c3.301236 4.302824 13.285069 15.612761 19.771356 16.265796a2.003177 2.003177 0 1 1-0.120191 3.994335l-0.665054 0.008013c-3.421426 0-11.818744-0.532845-15.881187-5.480692a39.510661 39.510661 0 0 0-7.908543-7.271532c-1.814878 0.364578-6.253918 1.137804-11.374038 1.137804-9.110449 0-15.676863-2.375768-19.522962-7.063202-1.850935-2.259584-3.701871-3.509566-5.220279-3.509566-1.402224 0-2.13138 1.105754-2.443876 1.762796-0.701112 1.470332-0.72515 3.794017 0.797264 5.656972a51.293348 51.293348 0 0 1 9.835599 18.649577c13.934099-0.885404 27.4916-9.85563 27.631822-9.947777a2.003177 2.003177 0 0 1 3.108931 1.866961l-0.592941 5.997512c-0.761207 7.600053 10.648888 22.131099 15.107961 27.086958a2.007183 2.007183 0 0 1-0.913449 3.265178 7.091246 7.091246 0 0 1-2.023209 0.300477c-6.289976 0-9.242658-8.505489-9.55916-9.475027-4.587275-9.727427-8.281133-17.595906-11.209778-17.595906a2.115355 2.115355 0 0 0-0.673067 0.120191c-0.184292 0.060095-0.360572 0.128203-0.524833 0.20833 4.382951 4.995923 10.396488 15.131998 9.767491 21.377904-0.85736 8.597635 5.172203 10.216202 5.865302 10.37245a2.003177 2.003177 0 1 1 0.492782 3.737928 8.301165 8.301165 0 0 1-3.557643 0.781239z m-14.503001-32.002754l6.470262 13.325133a2.107342 2.107342 0 0 1 0.184292 0.616978c0.248394 1.915037 0.576915 3.653795 0.973544 5.204254a19.691229 19.691229 0 0 1 0.096153-2.435863c0.420667-4.238722-3.96629-12.415691-7.860467-17.243347 0.060095 0.160254 0.104165 0.336534 0.136216 0.532845z m-21.109478-0.136216c0.068108 2.155418 0.47275 4.627339 0.85736 6.530357a61.525576 61.525576 0 0 0-0.85736-6.530357z m18.885952-1.951094c0.276438 0 0.624991 0.068108 0.961525 0.236375a18.136764 18.136764 0 0 0-1.133798-1.145818 2.003177 2.003177 0 0 1-0.268426-2.652206c-1.06569 0.400635-2.163431 0.785245-3.297229 1.145817 1.262001 0.368585 2.439869 1.177868 3.513572 2.427851a2.103336 2.103336 0 0 1 0.224356-0.012019z m6.237893-6.454236c1.326103 0.196311 2.536022 0.841334 3.701871 1.919043-0.04407-0.673067-0.040064-1.322097 0.028044-1.951094l0.200318-2.023209a84.253621 84.253621 0 0 1-3.930233 2.05526z m-41.277463-33.396966c0.833322 1.634592 1.502383 4.903777 0.865372 11.27388-0.693099 6.951024 4.286799 12.07515 7.924568 15.817085 0.897423 0.921461 1.682669 1.738758 2.259583 2.439869 1.386198 1.710713 2.507977 3.725909 3.285211 5.312425a47.315039 47.315039 0 0 0-8.429369-15.111966c-2.311666-2.836499-2.828486-6.726668-1.314084-9.915726 1.205913-2.540028 3.469502-4.05443 6.06562-4.05443 1.939075 0 4.95586 0.865372 8.31719 4.975891 3.794017 4.623332 11.025486 5.59287 16.426051 5.59287 2.503971 0 4.855701-0.204324 6.754713-0.440699-0.761207 0.036057-1.510395 0.056089-2.239552 0.056089-14.955719 0-19.402772-7.956619-20.66878-11.73461-7.543964 0.320508-11.197759-4.174621-13.341158-6.818814-0.224356-0.272432-0.492782-0.604959-0.72515-0.873385a22.812179 22.812179 0 0 1-0.93348 0.544864c-1.169855 0.669061-2.672238 1.518408-4.246735 2.936657z m48.06022 15.280234a1.442287 1.442287 0 0 1 0.152242 0.084133c0.096152 0.060095 1.213925 0.749188 2.820473 2.007183a106.148345 106.148345 0 0 1-1.882987-2.267596l-1.089728 0.17628z" fill="#6E6E96" p-id="8685"></path><path d="M470.017238 29.226351s-9.222627 39.690947-30.941071 73.352332c-21.710431 33.665391-21.786552 61.657785-2.507977 98.291885 19.266556 36.642112-3.421426 79.365869-3.421426 79.365869s5.312425-60.219504-27.53567-97.238213c-32.852101-37.042747-35.340047-159.877556 64.406144-153.771873z" fill="#B08F81" p-id="8686"></path><path d="M433.146764 286.245968a6.005524 6.005524 0 0 1-5.989499-6.534363c0.048076-0.576915 4.651377-58.132194-26.045307-92.727059-20.560608-23.18477-30.708702-77.386731-12.395658-118.107311 9.414931-20.933199 29.935476-45.880764 74.245749-45.880764 2.411825 0 4.883745 0.076121 7.419767 0.232368a6.017543 6.017543 0 0 1 5.484699 7.359672c-0.38461 1.662637-9.711402 41.10519-31.742342 75.251344-20.119909 31.201484-20.748906 57.062498-2.239552 92.234278 20.508525 39.005861-2.447882 83.127836-3.433445 84.982778a6.009531 6.009531 0 0 1-5.304412 3.189057z m29.102154-251.226429c-37.387294 0.264419-54.658685 21.205631-62.567228 38.789518-15.957307 35.488282-7.660149 84.810504 10.428539 105.202845 17.323474 19.522962 24.599012 44.738953 27.53567 65.191389 1.518408-12.579951 0.669061-27.102984-6.390134-40.536288-20.588652-39.130058-19.783375-69.362004 2.776403-104.345485 15.520615-24.062161 24.554943-51.573793 28.21675-64.301979z" fill="#6E6E96" p-id="8687"></path><path d="M443.839722 17.764173c-10.180145 8.781928-8.377286 25.496436 17.010978 40.532282 0 0 63.761121 40.067545 172.757984 21.630304 0 0-34.486694-68.027888-151.780715-73.364351 0 0.008013-26.229599 1.06569-37.988247 11.201765z" fill="#B08F81" p-id="8688"></path><path d="M577.331432 90.787984h-0.012019c-75.187242 0-117.886961-26.285687-119.665783-27.40346-19.81142-11.730604-24.831381-23.573386-25.528487-31.429846-0.641017-7.199418 2.127374-13.853972 7.788352-18.741723C452.285116 2.548041 476.69583 0.805277 481.467397 0.564896c0.20833-0.012019 0.420667-0.016025 0.63701-0.004006 119.421395 5.432616 155.394446 73.744955 156.864778 76.649561a6.017543 6.017543 0 0 1-4.358913 8.645712c-19.354695 3.269185-38.629264 4.931822-57.27884 4.931821zM481.848001 12.579951c-9.138493 0.492782-26.357802 3.072873-34.086059 9.73544-2.728327 2.35173-3.962284 5.240311-3.665813 8.577603 0.624991 7.039164 7.844441 15.144017 19.815426 22.231258 0.536851 0.332527 41.938512 25.640664 113.407858 25.640664h0.012019c15.055878 0 30.540435-1.121779 46.153196-3.345305-12.684116-17.055048-52.559356-58.705103-141.636627-62.83966z" fill="#6E6E96" p-id="8689"></path><path d="M699.625382 774.275953s70.191319-79.209622 70.191319-136.38029c0-166.960789-206.475457-58.324499-247.272158-188.034211-0.008013 0.008013 64.534347 397.237995 177.080839 324.414501z" fill="#FFFFFF" p-id="8690"></path><path d="M672.302049 789.199621h-0.008013c-23.256884-0.004006-45.684453-17.275398-66.669734-51.337418-23.94197-38.865638-46.201272-99.017035-66.16894-178.783539a1548.660078 1548.660078 0 0 1-17.043029-76.549403c-6.458242-32.948254-6.297988-33.272769-5.244317-35.368091a6.009531 6.009531 0 0 1 11.101607 0.901429c17.732122 56.377411 67.947761 64.790754 121.108069 73.700885 62.162586 10.41652 126.440527 21.185599 126.440527 116.136185 0 58.773211-68.77307 137.061371-71.697708 140.366613-0.364578 0.408648-0.777233 0.761207-1.237963 1.061683-10.124056 6.546382-20.416379 9.871656-30.580499 9.871656z m-136.981244-302.359523c20.969256 106.168376 71.048679 290.332449 136.977238 290.340462h0.004006c7.588034 0 15.440488-2.524003 23.357043-7.507907 6.438211-7.439799 68.144072-80.131083 68.144072-131.780997 0-84.778453-53.945554-93.816788-116.408617-104.281383-42.17088-7.063202-85.459533-14.322715-112.073742-46.770175z" fill="#6E6E96" p-id="8691"></path><path d="M535.296767 935.227212a30.263997 30.263997 0 0 1-0.260413-9.270703c-0.520826 0.064102-2.091317 0.100159-2.60413 0.216343-14.014226 2.9006-17.728116 21.502101-9.21862 43.492977-0.008013-0.012019-8.741864-35.973051 12.083163-34.438617z" fill="#B2B2B2" opacity=".23" p-id="8692"></path><path d="M523.209598 971.665a2.007183 2.007183 0 0 1-1.870968-1.278027c-5.705048-14.747388-6.221867-28.26082-1.418249-37.082811 2.6482-4.863714 6.83484-8.008701 12.099189-9.098429 0.352559-0.080127 1.205913-0.144229 1.951094-0.188299 0.34054-0.020032 0.645023-0.036057 0.821303-0.056089 0.612972-0.084133 1.233957 0.136216 1.666643 0.580921s0.641017 1.061684 0.556883 1.674656a28.352966 28.352966 0 0 0 0.164261 8.140911 2.003177 2.003177 0 0 1-1.886993 2.868549l-0.148235-0.004006c-3.725909-0.292464-6.48228 0.773226-8.409337 3.221109-5.380533 6.862884-2.976721 23.036535-1.586516 28.717544a2.007183 2.007183 0 0 1-1.939075 2.503971z m9.619255-43.533041c-4.138564 0.861366-7.287558 3.249153-9.386887 7.091247-1.165849 2.143399-1.959107 4.675415-2.38378 7.499894 0.42868-1.221938 0.957519-2.367755 1.598535-3.41742 2.299647-3.725909 5.857289-5.821232 10.32838-6.09767a32.924216 32.924216 0 0 1-0.156248-5.076051z" fill="#6E6E96" opacity=".23" p-id="8693"></path><path d="M299.803289 640.383608a6.009531 6.009531 0 0 1-5.508736-8.409336l7.684186-17.651995a6.009531 6.009531 0 1 1 11.02148 4.799612l-7.684187 17.651995a6.009531 6.009531 0 0 1-5.512743 3.609724z" fill="#6E6E96" p-id="8694"></path><path d="M530.160622 972.43422c7.21945-47.527375 44.554661-189.059837 64.930976-326.77825l-67.919716-28.21675-20.732881 351.112843s2.712302 9.695376 7.151341 18.962073l-3.321267 1.550459c-0.248394 10.993435 17.692058 20.312214 40.051519 20.813008 22.367473 0.500794 51.129088-0.749188 51.369469-11.74663 0.2524-11.001448-49.157961-25.187947-71.529441-25.696753z" fill="#F9D5B3" p-id="8695"></path><path d="M558.145003 1015.975273c-2.704289 0-5.376527-0.036057-7.956619-0.088139-11.718585-0.260413-22.776122-2.800441-31.141388-7.147336-9.707395-5.048006-14.955719-12.083163-14.783446-19.807413 0.032051-1.502383 0.624991-2.904607 1.610555-3.962284-3.229121-7.728257-5.124127-14.454925-5.220279-14.795465a5.97748 5.97748 0 0 1-0.212337-1.975132l20.732881-351.112843a6.009531 6.009531 0 0 1 8.301165-5.192235l67.919717 28.21675c2.544035 1.057677 4.042411 3.705877 3.637769 6.426192-12.992605 87.835301-32.904184 177.357278-47.439236 242.724946-7.359672 33.08447-13.349171 60.019187-16.434063 77.631119 11.289905 1.181874 26.077357 4.443046 39.130058 8.753883 28.401042 9.362849 31.525998 17.399595 31.409814 22.62388-0.348553 15.688882-26.662285 17.704078-49.554591 17.704077z m-40.844777-23.73364c1.310078 1.991158 3.834081 4.034398 7.287557 5.829245 6.666573 3.46149 16.09753 5.576845 25.865021 5.793188a321.269513 321.269513 0 0 0 7.688193 0.088139c30.376175 0 36.341636-4.575256 37.359249-5.725079-4.799612-6.686605-43.28064-19.282581-65.479847-19.787382a6.009531 6.009531 0 0 1-5.805206-6.91096c2.656213-17.491741 9.270703-47.230905 17.643982-84.882619 14.242588-64.03756 33.649366-151.32399 46.593895-237.244254l-55.784471-23.176757-20.171991 341.629803c0.773226 2.564066 3.132969 10.003866 6.510325 17.055049a6.033569 6.033569 0 0 1-1.706707 7.331627z" fill="#6E6E96" p-id="8696"></path><path d="M505.942213 968.187485c20.476474-142.301682 20.544582-152.758265 18.22891-366.200772l-79.502086 65.167352c26.534081 189.316244 21.486076 216.731723 26.866609 296.702551 0 0 1.009601 7.079227 3.112937 15.200107-0.584928 4.294811-1.105754 6.842852-1.105754 6.842852-6.898941 10.96539 4.871726 20.284169 27.19513 21.786552 22.319397 1.49437 51.509691 1.542446 51.846225-9.446982 0.709125-23.18477-53.288512-14.759407-46.641971-30.05166z" fill="#F9D5B3" p-id="8697"></path><path d="M519.740095 1014.39677c-0.004006 0-0.004006 0 0 0-5.75713 0-12.283481-0.244388-19.402771-0.717137-16.814667-1.133798-28.885811-6.546382-33.112515-14.843541-2.407819-4.727498-2.179456-10.039923 0.608966-15.087929 0.160254-0.893417 0.416661-2.383781 0.701112-4.362919a159.432851 159.432851 0 0 1-2.948676-14.687293 8.373279 8.373279 0 0 1-0.048077-0.444706c-1.346135-19.991706-2.051253-36.994671-2.736339-53.436747-2.067279-49.634718-4.198659-100.95611-24.086199-242.833118a6.001518 6.001518 0 0 1 2.143399-5.480692l79.498079-65.167351a6.009531 6.009531 0 1 1 9.819573 4.583268c2.283622 210.593989 2.419838 223.201984-18.289005 367.12624-0.048076 0.324515-0.120191 0.649029-0.22035 0.961524 2.383781 1.386198 8.954201 2.756371 13.465356 3.705878 14.346753 3.000759 33.993912 7.111278 33.45706 24.707184-0.436693 14.322715-22.379492 15.977339-38.849613 15.977339z m-42.222963-51.185177c0.180286 1.1979 1.157836 7.411755 2.952683 14.334734 0.196311 0.753195 0.244388 1.546453 0.136216 2.319679a122.089627 122.089627 0 0 1-1.173862 7.231469 5.985493 5.985493 0 0 1-0.80127 1.99917c-1.590522 2.528009-0.961525 3.75796-0.6931 4.282793 1.770808 3.477515 9.631275 7.395729 23.204802 8.305171 6.854871 0.460731 13.10879 0.693099 18.597494 0.693099 24.086199 0 26.850583-4.398977 26.878628-4.43904 0.17628-6.858878-10.264279-9.599224-23.94197-12.463766-10.596806-2.215514-18.962073-3.96629-22.179175-10.192165-0.969538-1.870967-1.774815-4.843682-0.404642-8.641705 20.06382-139.453164 20.336252-154.625226 18.204872-352.066355l-67.210592 55.087365c19.530975 139.921907 21.662355 191.131122 23.725627 240.657668 0.677074 16.297847 1.378186 33.152578 2.704289 52.891883z" fill="#6E6E96" p-id="8698"></path><path d="M575.732896 1015.065831H410.27449a6.009531 6.009531 0 1 1 0-12.019062h165.458406a6.009531 6.009531 0 0 1 0 12.019062z" fill="#6E6E96" opacity=".21" p-id="8699"></path><path d="M565.440573 422.417928s-67.591195 104.481701 170.814902 227.384618c132.794604 68.472593-45.023404 302.563847-332.359101 219.143548" fill="#FFFFFF" p-id="8700"></path><path d="M524.267275 892.876046c-37.575593 0-78.424376-5.492711-122.045556-18.156796a6.009531 6.009531 0 0 1-4.094494-7.443805 5.989499 5.989499 0 0 1 7.447812-4.094494c194.456396 56.461544 331.233315-33.092483 362.442811-111.388655 16.570279-41.565921 3.986322-76.789784-34.514738-96.645274-71.068711-36.638106-159.845505-95.555545-179.188181-168.166702-10.897282-40.912885 5.38454-66.745855 6.081645-67.823564a6.009531 6.009531 0 0 1 10.104024 6.510325c-0.604959 0.961525-14.142429 22.968426-4.435033 58.721128 10.212196 37.619662 48.504926 95.928136 172.946282 160.08188 44.00579 22.691988 59.025611 64.478258 40.171709 111.773266-25.736817 64.554379-118.824448 136.632691-254.916281 136.632691z" fill="#6E6E96" p-id="8701"></path><path d="M586.181467 802.007934a6.005524 6.005524 0 0 1-1.562478-11.810731c42.407255-11.466185 73.612745-39.18214 75.888354-67.394884 1.810872-22.403531-15.252189-42.916062-48.036182-57.767616-94.285531-42.699719-74.117546-158.667637-73.905209-159.833485a6.009531 6.009531 0 0 1 11.82275 2.171443c-0.052083 0.272432-4.899771 27.603778 1.137805 59.334101 7.948606 41.778258 30.123774 71.176882 65.90452 87.382583 50.936783 23.072592 56.357379 53.560944 55.055314 69.682512-2.720314 33.701448-36.770315 65.05918-84.730377 78.03576a6.45023 6.45023 0 0 1-1.574497 0.200317z" fill="#6E6E96" p-id="8702"></path><path d="M501.058467 615.155598c18.345094 9.26269 20.344265 42.271039 4.455066 73.700885-15.897212 31.449878-43.653231 75.627941-61.994319 66.357239-18.349101-9.266696-20.344265-68.504644-4.443047-99.93449 15.885193-31.421833 43.6332-49.402349 61.9823-40.123634z" fill="#FFFFFF" p-id="8703"></path><path d="M583.705541 382.414485c14.823509 58.889395-29.214332 133.487703-61.169011 133.487704-14.903636 0-37.122875-11.52628-52.355032-31.301643-17.463696-22.651925-27.002825-56.125011-27.002824-95.487437 0 0 11.341988-26.874621 70.912462-25.304131 19.114314 0.628998 49.474463-1.534434 69.614405 18.605507" fill="#FFFFFF" p-id="8704"></path><path d="M522.53653 521.911719c-18.369132 0-41.854378-13.837946-57.118586-33.645359-18.216891-23.629475-28.252807-58.845325-28.252807-99.157257 0-0.805277 0.160254-1.598535 0.472749-2.335705 0.512813-1.217932 13.521444-30.648607 76.605492-28.97395 2.231539 0.072114 4.575256 0.108172 7.031151 0.144228 19.903566 0.29647 47.158791 0.697106 66.677747 20.220068 0.765214 0.765214 1.314084 1.730745 1.582509 2.78041 10.464596 41.585953-7.007113 89.069258-27.675892 115.583308-12.760237 16.369962-26.72238 25.384258-39.322363 25.384257zM449.192211 390.647543c0.244388 37.018709 9.366855 69.037489 25.748836 90.283183 14.494988 18.813838 35.340047 28.961932 47.595483 28.961932 8.557572 0 19.711261-7.760307 29.839324-20.752913 18.653583-23.933958 34.518745-66.3332 25.897071-103.620335-16.025415-14.947706-38.793524-15.288246-57.174676-15.560679-2.532016-0.036057-4.943841-0.076121-7.203424-0.148235-1.598535-0.040064-3.19707-0.064102-4.759548-0.064101-43.933676 0.008013-57.326917 16.794635-59.943066 20.901148z" fill="#6E6E96" p-id="8705"></path><path d="M440.338169 209.616439s93.648521 74.730518 115.475136 28.533252c49.831029-105.467264 25.816944-130.426849 25.816944-130.426849s-91.404963-16.8988-115.691479-46.617933c0 0 88.548432 45.319874 167.665907 18.82185l8.813979 25.897071-35.279952 3.365337s-1.366167 113.103375-54.883041 166.640281c0 0-19.090276 22.131099-108.075401-37.235052l-3.842093-28.977957z" fill="#6E6E96" opacity=".1" p-id="8706"></path><path d="M453.402889 12.279474s-14.450918 15.680869 31.077286 31.065268c45.516186 15.392411 152.133274 35.472257 132.045416 15.392411l17.095112 21.197619c-0.008013-0.004006-248.866687 14.334734-180.217814-67.655298z" fill="#6E6E96" opacity=".15" p-id="8707"></path><path d="M526.695126 226.619404c-12.063131 0-21.890717-6.91096-22.367474-7.2515a6.005524 6.005524 0 0 1 6.967049-9.791529c0.104165 0.072114 9.55916 6.622503 18.994124 4.667402 5.180215-1.069696 9.475027-4.475097 13.128821-10.412513a6.005524 6.005524 0 1 1 10.232228 6.297988c-5.432616 8.83401-12.515849 14.186499-21.049383 15.909231a29.735158 29.735158 0 0 1-5.905365 0.580921zM463.563002 174.180239c-2.524003 0-4.863714-1.594529-5.693029-4.122538-0.368585-1.121779-3.46149-11.205772 1.213925-19.76735 2.56006-4.687434 6.991087-7.964631 12.804307-9.475027 15.672856-4.074462 24.79933 7.596047 27.102984 16.434064a6.009531 6.009531 0 1 1-11.630445 3.03281c-0.661048-2.391793-3.549629-10.124056-12.447742-7.836429-2.580092 0.669061-4.298818 1.838916-5.256336 3.573668-1.882986 3.405401-0.893417 8.605648-0.348553 10.324374a6.025556 6.025556 0 0 1-5.745111 7.836428zM534.988278 155.606783c-2.524003 0-4.863714-1.594529-5.693029-4.122538-0.372591-1.121779-3.46149-11.209778 1.209919-19.771357 2.56006-4.687434 6.987081-7.968638 12.800301-9.479033 15.66885-4.102506 24.791317 7.596047 27.09497 16.442076a6.009531 6.009531 0 1 1-11.634451 3.024797c-0.657042-2.387787-3.597706-10.124056-12.435722-7.832421-2.580092 0.669061-4.298818 1.838916-5.256337 3.573667-1.886993 3.405401-0.893417 8.609654-0.348552 10.328381a6.029563 6.029563 0 0 1-5.737099 7.836428z" fill="#6E6E96" p-id="8708"></path><path d="M418.944239 41.181311s2.031221 12.25143 19.891547 19.899559c0 0-45.692465 37.307167-30.652613 94.317582 15.043859 57.006409 34.915374 79.157539 24.967597 124.829973 0 0 14.903636-39.598801 11.049524-67.655297s-37.779917-52.919928-5.108101-110.006464l21.778539-44.274216s-21.401942-7.996682-21.401942-21.401942V31.950672l-20.524551 9.230639z" fill="#6E6E96" opacity=".15" p-id="8709"></path><path d="M369.069141 113.540067s-4.591281 48.476881 17.932439 70.984578c22.499683 22.511702-3.974303 46.345501 5.284381 87.390596 9.266696 41.049101 23.921939 95.815958-12.107201 111.885443 0 0 44.142006-27.127022 44.142006-69.514245 0-42.371198-31.594106-51.990454-2.015196-90.880131 29.57891-38.893683 4.423015 2.159425 4.423015 2.159425s-18.537399-51.641901-35.764721-68.857203c-17.211296-17.223315-4.899771-54.498431-4.89977-54.498431l-16.994953 11.329968z" fill="#6E6E96" opacity=".15" p-id="8710"></path><path d="M495.377458 305.476467s23.196789-22.776122 54.730799-3.665814l-13.485387-23.280922-22.511702-1.326103c-0.008013 0.008013-5.664984 24.723209-18.73371 28.272839zM443.178674 389.121122s12.76825 93.332019 66.954185 93.332019c54.197955 0 67.559145-96.537102 67.559144-105.206852 0 0 41.998607 76.781771-55.155473 138.6559 0.004006 0-85.399438-14.875592-79.357856-126.781067zM266.494464 810.613582s-47.663591 37.307167 11.918902 70.39965c59.5865 33.108508 199.067709 91.112499 345.6001 19.859496 0 0-218.470481 15.897212-239.656079-33.108508 0 0-7.9446-26.477992 17.876351-17.876351 25.812938 8.605648 240.549496 0.448712 305.216053-64.213839 63.556797-63.548784 61.449455-91.769541-28.393029-168.559325 0 0 96.873636 39.478611 101.016205 88.716699 5.496717 65.291548-88.981118 228.566492-362.827422 166.788517 0 0 156.007418 36.66615 265.108446-15.584717 0 0-23.505278 116.208299-259.391379 100.555475-235.914145-15.66885-194.420339-114.87819-156.468148-146.977097z" fill="#6E6E96" opacity=".1" p-id="8711"></path><path d="M543.153227 517.084063s-43.613168 69.97097 27.888229 141.476373c71.505403 71.509409 55.612197 107.254098-5.2964 117.846898 0 0-14.567103 9.26269-10.592799 25.147882 3.970297 15.901218 66.209003 23.833799 105.927995-15.893205 39.706973-39.718992 35.087647-121.144127-22.511702-140.350587-57.595343-19.194441-103.440049-89.60611-95.415323-128.227361zM391.392544 496.12282s23.405119-61.34529 30.027622-106.356675C428.038663 344.746747 494.904708 334.810989 539.928112 345.407795c45.007379 10.5928 68.192148 5.957448 86.721535 97.322347 18.529386 91.368905 41.049101 82.098203 41.049101 82.098203s-50.319804-45.019398-50.319804-76.797797c0-31.786411-33.116521-74.161616-82.094196-80.772099-48.993701-6.618497-97.03389 1.4503-107.254098 59.5865-5.41659 30.828893-36.638106 69.27787-36.638106 69.277871z" fill="#6E6E96" opacity=".1" p-id="8712"></path></svg>